SplineFontDB: 3.2
FontName: D-DIN-PRO-Exp-SemiBold
FullName: D-DIN-PRO-Exp-SemiBold
FamilyName: D-DIN-PRO-Exp
Weight: Semibold
Copyright: Copyright (c) CyberFei. All rights reserved
Version: 1.1.0
ItalicAngle: 0
UnderlinePosition: -150
UnderlineWidth: 50
Ascent: 831
Descent: 169
InvalidEm: 0
sfntRevision: 0x00010000
LayerCount: 2
Layer: 0 0 "Back" 1
Layer: 1 0 "Fore" 0
XUID: [1021 868 -1451673819 2223]
StyleMap: 0x0040
FSType: 4
OS2Version: 4
OS2_WeightWidthSlopeOnly: 1
OS2_UseTypoMetrics: 0
CreationTime: 1462909513
ModificationTime: 1778060079
PfmFamily: 17
TTFWeight: 600
TTFWidth: 7
LineGap: 0
VLineGap: 0
Panose: 2 11 5 4 2 2 2 3 2 4
OS2TypoAscent: 831
OS2TypoAOffset: 0
OS2TypoDescent: -169
OS2TypoDOffset: 0
OS2TypoLinegap: 86
OS2WinAscent: 902
OS2WinAOffset: 0
OS2WinDescent: 184
OS2WinDOffset: 0
HheadAscent: 902
HheadAOffset: 0
HheadDescent: -184
HheadDOffset: 0
OS2SubXSize: 650
OS2SubYSize: 600
OS2SubXOff: 0
OS2SubYOff: 75
OS2SupXSize: 650
OS2SupYSize: 600
OS2SupXOff: 0
OS2SupYOff: 350
OS2StrikeYSize: 50
OS2StrikeYPos: 307
OS2CapHeight: 690
OS2XHeight: 512
OS2Vendor: 'MONO'
OS2CodePages: 00000001.00000000
OS2UnicodeRanges: 8000006f.4000000a.00000000.00000000
Lookup: 1 0 0 "'rtla' Right to Left Alternates lookup 0" { "'rtla' Right to Left Alternates lookup 0 subtable"  } ['rtla' ('DFLT' <'dflt' > ) ]
Lookup: 1 0 0 "'sups' Superscript lookup 1" { "'sups' Superscript lookup 1 subtable" ("superior") } ['sups' ('DFLT' <'dflt' > ) ]
Lookup: 4 0 0 "'frac' Diagonal Fractions lookup 2" { "'frac' Diagonal Fractions lookup 2 subtable"  } ['frac' ('DFLT' <'dflt' > ) ]
Lookup: 258 0 0 "'kern' Horizontal Kerning in Latin lookup 0" { "'kern' Horizontal Kerning in Latin lookup 0 subtable"  } ['kern' ('DFLT' <'dflt' > 'latn' <'dflt' > ) ]
Lookup: 258 0 0 "Pairwise Positioning (kerning) lookup 1" { "Pairwise Positioning (kerning) lookup 1 subtable"  } []
Lookup: 258 0 0 "Pairwise Positioning (kerning) lookup 2" { "Pairwise Positioning (kerning) lookup 2 subtable"  } []

StartChar: .notdef
Encoding: 65536 -1 0
Width: 603
GlyphClass: 1
Flags: MW
HStem: 0.0595703 61.4404<165.188 452.228 165.188 513.668 103.748 452.228> 629.82 61.4395<165.188 452.228 165.188 165.188>
VStem: 103.748 61.4395<61.5 61.5 61.5 629.82> 452.228 61.4404<61.5 629.82 629.82 629.82>
LayerCount: 2
Fore
SplineSet
103.748046875 691.259765625 m 1
 513.66796875 691.259765625 l 1
 513.66796875 0.0595703125 l 1
 103.748046875 0.0595703125 l 1
 103.748046875 691.259765625 l 1
165.1875 61.5 m 1
 452.227539062 61.5 l 1
 452.227539062 629.8203125 l 1
 165.1875 629.8203125 l 1
 165.1875 61.5 l 1
EndSplineSet
EndChar

StartChar: exclam
Encoding: 33 33 4
Width: 252
GlyphClass: 2
Flags: MW
HStem: 0.0595703 128.641<73.0283 198.788 73.0283 198.788> 671.26 20G<72.4824 199.303 199.303 199.303>
VStem: 73.0283 125.76<0.0595703 128.7 0.0595703 128.7> 90.833 91.1377<197.82 197.82>
LayerCount: 2
Fore
SplineSet
199.302734375 691.259765625 m 1xd0
 181.970703125 197.8203125 l 1
 90.8330078125 197.8203125 l 1
 72.482421875 691.259765625 l 1
 199.302734375 691.259765625 l 1xd0
73.0283203125 128.700195312 m 1xe0
 198.788085938 128.700195312 l 1
 198.788085938 0.0595703125 l 1
 73.0283203125 0.0595703125 l 1
 73.0283203125 128.700195312 l 1xe0
EndSplineSet
EndChar

StartChar: quotedbl
Encoding: 34 34 5
Width: 347
GlyphClass: 2
Flags: MW
HStem: 421.5 269.76<52.8682 159.428 52.8682 159.428 52.8682 206.468 206.468 313.988>
VStem: 52.8682 106.56<421.5 691.26 421.5 691.26> 206.468 107.521<421.5 691.26 421.5 691.26>
LayerCount: 2
Fore
SplineSet
52.8681640625 691.259765625 m 1
 159.427734375 691.259765625 l 1
 159.427734375 421.5 l 1
 52.8681640625 421.5 l 1
 52.8681640625 691.259765625 l 1
206.467773438 691.259765625 m 1
 313.98828125 691.259765625 l 1
 313.98828125 421.5 l 1
 206.467773438 421.5 l 1
 206.467773438 691.259765625 l 1
EndSplineSet
EndChar

StartChar: numbersign
Encoding: 35 35 6
Width: 587
GlyphClass: 2
Flags: MW
HStem: 0.0595703 21G<108.479 207.604 108.479 108.479 301.439 400.563 301.439 301.439> 207.42 93.1201<28.8682 135.359 28.8682 147.72 246.839 328.319 28.8682 234.483 438.839 551.107> 406.14 92.1602<51.9082 161.297 51.9082 173.649 51.9082 260.416 271.812 354.257 463.812 575.107> 671.26 20G<198.609 296.771 296.771 296.771 390.609 488.771 488.771 488.771>
LayerCount: 2
Fore
SplineSet
575.107421875 498.299804688 m 1
 575.107421875 406.139648438 l 1
 452.416015625 406.139648438 l 1
 438.838867188 300.540039062 l 1
 551.107421875 300.540039062 l 1
 551.107421875 207.419921875 l 1
 427.443359375 207.419921875 l 1
 400.563476562 0.0595703125 l 1
 301.439453125 0.0595703125 l 1
 328.319335938 207.419921875 l 1
 234.483398438 207.419921875 l 1
 207.603515625 0.0595703125 l 1
 108.479492188 0.0595703125 l 1
 135.359375 207.419921875 l 1
 28.8681640625 207.419921875 l 1
 28.8681640625 300.540039062 l 1
 147.719726562 300.540039062 l 1
 161.296875 406.139648438 l 1
 51.908203125 406.139648438 l 1
 51.908203125 498.299804688 l 1
 173.649414062 498.299804688 l 1
 198.609375 691.259765625 l 1
 296.771484375 691.259765625 l 1
 271.811523438 498.299804688 l 1
 365.649414062 498.299804688 l 1
 390.609375 691.259765625 l 1
 488.771484375 691.259765625 l 1
 463.811523438 498.299804688 l 1
 575.107421875 498.299804688 l 1
340.6796875 300.540039062 m 1
 354.256835938 406.139648438 l 1
 260.416015625 406.139648438 l 1
 246.838867188 300.540039062 l 1
 340.6796875 300.540039062 l 1
EndSplineSet
EndChar

StartChar: dollar
Encoding: 36 36 7
Width: 524
GlyphClass: 2
Flags: MW
HStem: 28.2773 104.212<218.948 218.948> 558.799 102.094<218.948 218.948>
VStem: 49.0283 111.359<468.724 502.612 468.724 504.632> 218.948 93.1191<-56.5801 28.2773 28.2773 28.2773 132.489 288.279 416.023 558.726 661.953 740.22> 383.107 111.36<192.904 224.079>
LayerCount: 2
Fore
SplineSet
218.948242188 305.977539062 m 1
 80.5625 331.708007812 49.0283203125 405.103515625 49.0283203125 479.099609375 c 0
 49.0283203125 530.1640625 65.1796875 573.212890625 97.8876953125 605.919921875 c 0
 128.001953125 636.03515625 168.85546875 654.067382812 218.948242188 660.892578125 c 1
 218.948242188 740.219726562 l 1
 312.067382812 740.219726562 l 1
 312.067382812 661.953125 l 1
 356.76171875 656.178710938 474.493164062 631.166992188 483.879882812 480.969726562 c 2
 484.8359375 465.659179688 l 1
 376.650390625 465.659179688 l 1
 373.44140625 501.7421875 369.647460938 544.403320312 312.067382812 558.725585938 c 1
 312.067382812 398.1796875 l 1
 338.9609375 393.688476562 404.771484375 382.69921875 449.866210938 338.140625 c 0
 480.030273438 308.334960938 494.467773438 267.096679688 494.467773438 217.01953125 c 0
 494.467773438 162.7421875 477.153320312 117.720703125 441.92578125 84.607421875 c 0
 409.543945312 54.16796875 365.8046875 36.087890625 312.067382812 29.357421875 c 1
 312.067382812 -56.580078125 l 1
 218.948242188 -56.580078125 l 1
 218.948242188 28.27734375 l 1
 168.393554688 34.1884765625 45.9990234375 58.7822265625 36.5732421875 219.04296875 c 2
 35.67578125 234.299804688 l 1
 143.661132812 234.299804688 l 1
 147.956054688 191.341796875 153.264648438 147.56640625 218.948242188 132.489257812 c 1
 218.948242188 305.977539062 l 1
218.948242188 558.798828125 m 1
 172.853515625 547.696289062 160.387695312 519.405273438 160.387695312 485.819335938 c 0
 160.387695312 451.62890625 173.53515625 429.7734375 218.948242188 416.0234375 c 1
 218.948242188 558.798828125 l 1
312.067382812 130.796875 m 1
 369.520507812 141.268554688 383.107421875 174.548828125 383.107421875 211.258789062 c 0
 383.107421875 236.899414062 376.275390625 253.4296875 364.7421875 264.001953125 c 0
 354.716796875 273.192382812 337.270507812 281.749023438 312.067382812 288.279296875 c 1
 312.067382812 130.796875 l 1
EndSplineSet
EndChar

StartChar: percent
Encoding: 37 37 8
Width: 910
GlyphClass: 2
Flags: MW
HStem: -5.7002 93.1191<714.39 733.433 714.39 796.654> 255.42 93.1201<189.27 208.312 189.27 271.203> 342.779 93.1211<714.338 733.485> 604.86 93.1201<189.27 208.312>
VStem: 47.1074 102.722<427.26 432.06 432.06 523.26 415.377 530.94 415.377 556.959> 246.788 103.68<432.06 523.26 523.26 530.94> 572.228 102.722<166.14 169.979 169.979 261.179 153.634 268.859 153.634 287.745> 771.909 103.679<169.979 261.179 261.179 268.86 144.184 277.549>
LayerCount: 2
Fore
SplineSet
197.828125 255.419921875 m 0xdf
 146.845703125 255.419921875 47.107421875 271.05078125 47.107421875 427.259765625 c 2
 47.107421875 530.940429688 l 2
 47.107421875 582.978515625 59.251953125 624.822265625 85.849609375 654.333984375 c 0
 112.555664062 683.967773438 151.244140625 697.98046875 198.788085938 697.98046875 c 0
 271.732421875 697.98046875 350.467773438 666.567382812 350.467773438 530.940429688 c 2
 350.467773438 427.259765625 l 2
 350.467773438 383.53125 344.578125 255.419921875 197.828125 255.419921875 c 0xdf
597.306640625 693.1796875 m 1
 701.235351562 693.1796875 l 1
 319.618164062 0.0595703125 l 1
 216.69140625 0.0595703125 l 1
 597.306640625 693.1796875 l 1
246.788085938 432.059570312 m 2
 246.788085938 523.259765625 l 2
 246.788085938 555.311523438 241.76171875 577.09375 234.567382812 588.603515625 c 0
 228.047851562 599.03515625 217.836914062 604.860351562 198.788085938 604.860351562 c 0
 179.751953125 604.860351562 169.255859375 599.016601562 162.4140625 588.422851562 c 0
 155.002929688 576.946289062 149.829101562 555.276367188 149.829101562 523.259765625 c 2
 149.829101562 432.059570312 l 2
 149.829101562 398.6953125 155.077148438 376.338867188 162.4140625 364.977539062 c 0
 169.255859375 354.383789062 179.751953125 348.540039062 198.788085938 348.540039062 c 0
 217.836914062 348.540039062 228.047851562 354.365234375 234.567382812 364.796875 c 0
 241.690429688 376.193359375 246.788085938 398.6640625 246.788085938 432.059570312 c 2
722.948242188 -5.7001953125 m 0
 650.18359375 -5.7001953125 572.227539062 26.8125 572.227539062 166.139648438 c 2
 572.227539062 268.859375 l 2
 572.227539062 306.629882812 575.689453125 435.900390625 723.908203125 435.900390625 c 0xbf
 796.852539062 435.900390625 875.587890625 404.487304688 875.587890625 268.860351562 c 2
 875.587890625 166.139648438 l 2
 875.587890625 122.227539062 870.360351562 -5.7001953125 722.948242188 -5.7001953125 c 0
771.909179688 169.979492188 m 2
 771.909179688 261.178710938 l 2
 771.909179688 293.918945312 766.8125 315.83984375 759.76171875 326.88671875 c 0
 753.307617188 336.998046875 743.061523438 342.779296875 723.909179688 342.779296875 c 0
 704.767578125 342.779296875 694.235351562 336.983398438 687.458984375 326.70703125 c 0
 680.1953125 315.692382812 674.94921875 293.88671875 674.94921875 261.178710938 c 2
 674.94921875 169.979492188 l 2
 674.94921875 137.288085938 680.16015625 115.274414062 687.534179688 103.856445312 c 0
 694.375976562 93.2626953125 704.872070312 87.4189453125 723.908203125 87.4189453125 c 0
 742.95703125 87.4189453125 753.16796875 93.244140625 759.6875 103.67578125 c 0
 766.845703125 115.12890625 771.909179688 137.255859375 771.909179688 169.979492188 c 2
EndSplineSet
EndChar

StartChar: ampersand
Encoding: 38 38 9
Width: 664
GlyphClass: 2
Flags: MW
HStem: -10.499 102.72<251.591 290.332 251.591 307.32> 0.0605469 103.68<548.999 622.148 588.548 622.148 588.548 622.148> 604.861 96.96<279.641 300.333>
VStem: 56.707 109.439<171.294 201.462 171.294 226.587> 116.227 109.44<529.166 551.473 529.166 588.44> 354.307 108.481<524.382 550.887>
LayerCount: 2
Fore
SplineSet
462.788085938 539.581054688 m 0xac
 462.788085938 470.9609375 427.608398438 421.768554688 342.166992188 363.50390625 c 1
 454.309570312 228.771484375 l 1
 539.09375 327.686523438 l 1
 615.477539062 260.68359375 l 1
 520.022460938 149.643554688 l 1
 535.14453125 131.37109375 l 2
 555.701171875 108.462890625 568.584960938 103.740234375 588.547851562 103.740234375 c 2
 622.1484375 103.740234375 l 1
 622.1484375 0.060546875 l 1
 575.106445312 0.060546875 l 2x6c
 522.891601562 0.060546875 493.393554688 15.767578125 455.651367188 58.900390625 c 2
 447.501953125 68.7646484375 l 1
 407.4375 29.2431640625 351.533203125 -10.4990234375 263.106445312 -10.4990234375 c 0
 220.909179688 -10.4990234375 183.8671875 -2.28125 152.556640625 14.7646484375 c 0
 118.439453125 33.33984375 56.70703125 80.9716796875 56.70703125 182.4609375 c 0xb4
 56.70703125 270.713867188 110.467773438 333.676757812 186.365234375 385.458007812 c 1
 137.977539062 447.232421875 116.2265625 491.314453125 116.2265625 540.541015625 c 0
 116.2265625 636.33984375 191.611328125 701.821289062 289.987304688 701.821289062 c 0
 339.596679688 701.821289062 381.651367188 686.953125 414.056640625 656.661132812 c 0
 446.491210938 626.342773438 462.788085938 586.504882812 462.788085938 539.581054688 c 0xac
277.556640625 440.696289062 m 1
 340.680664062 482.478515625 354.306640625 508.22265625 354.306640625 540.541015625 c 0
 354.306640625 561.232421875 348.319335938 576.087890625 336.926757812 587.48046875 c 0
 325.533203125 598.874023438 310.678710938 604.861328125 289.987304688 604.861328125 c 0
 269.294921875 604.861328125 254.440429688 598.874023438 243.046875 587.48046875 c 0
 231.5703125 576.00390625 225.666992188 561.4453125 225.666992188 541.500976562 c 0
 225.666992188 516.830078125 234.918945312 494.919921875 277.556640625 440.696289062 c 1
249.823242188 307.1953125 m 1
 178.921875 257.45703125 166.146484375 217.583984375 166.146484375 185.340820312 c 0
 166.146484375 157.248046875 174.94921875 135.6640625 192.56640625 118.321289062 c 0
 209.71875 101.4375 234.315429688 92.220703125 268.8671875 92.220703125 c 0xb4
 311.796875 92.220703125 344.98046875 109.295898438 382.938476562 146.774414062 c 1
 249.823242188 307.1953125 l 1
EndSplineSet
EndChar

StartChar: quotesingle
Encoding: 39 39 10
Width: 193
GlyphClass: 2
Flags: MW
HStem: 421.5 269.76<52.8682 159.428 52.8682 159.428>
VStem: 52.8682 106.56<421.5 691.26 421.5 691.26>
LayerCount: 2
Fore
SplineSet
52.8681640625 691.259765625 m 1
 159.427734375 691.259765625 l 1
 159.427734375 421.5 l 1
 52.8681640625 421.5 l 1
 52.8681640625 691.259765625 l 1
EndSplineSet
EndChar

StartChar: parenleft
Encoding: 40 40 11
Width: 324
GlyphClass: 2
Flags: MW
VStem: 56.709 110.398<293.847 384.333>
LayerCount: 2
Fore
SplineSet
56.708984375 329.341796875 m 0
 56.708984375 439.325195312 82.8212890625 588.907226562 192.091796875 733.530273438 c 2
 196.421875 739.26171875 l 1
 298.73828125 739.26171875 l 1
 283.716796875 716.857421875 l 2
 245.254882812 659.489257812 167.107421875 519.528320312 167.107421875 329.340820312 c 0
 167.107421875 258.352539062 179.842773438 94.9970703125 283.673828125 -58.111328125 c 2
 298.911132812 -80.5791015625 l 1
 195.3671875 -80.5791015625 l 1
 155.002929688 -25.96875 56.708984375 113.54296875 56.708984375 329.341796875 c 0
EndSplineSet
Substitution2: "'rtla' Right to Left Alternates lookup 0 subtable" parenright
EndChar

StartChar: parenright
Encoding: 41 41 12
Width: 324
GlyphClass: 2
Flags: MW
VStem: 175.749 110.398<233.364 364.568>
LayerCount: 2
Fore
SplineSet
175.749023438 329.337890625 m 0
 175.749023438 399.797851562 162.96875 561.990234375 59.1396484375 716.854492188 c 2
 44.1181640625 739.258789062 l 1
 146.434570312 739.258789062 l 1
 180.159179688 694.623046875 286.147460938 553.2109375 286.147460938 329.338867188 c 0
 286.147460938 109.670898438 183.770507812 -31.4921875 147.489257812 -80.580078125 c 1
 43.9443359375 -80.580078125 l 1
 59.181640625 -58.1123046875 l 2
 97.6162109375 -1.435546875 175.749023438 137.390625 175.749023438 329.337890625 c 0
EndSplineSet
Substitution2: "'rtla' Right to Left Alternates lookup 0 subtable" parenleft
EndChar

StartChar: asterisk
Encoding: 42 42 13
Width: 419
GlyphClass: 2
Flags: MW
HStem: 390.78 300.479<178.628 258.308 178.628 258.308>
VStem: 178.628 79.6797<390.78 480.559 607.041 691.26>
LayerCount: 2
Fore
SplineSet
258.307617188 390.780273438 m 1
 178.627929688 390.780273438 l 1
 178.627929688 480.55859375 l 1
 86.9111328125 433.817382812 l 1
 51.56640625 502.969726562 l 1
 135.76953125 543.419921875 l 1
 51.56640625 583.870117188 l 1
 86.861328125 652.924804688 l 1
 178.627929688 607.041015625 l 1
 178.627929688 691.259765625 l 1
 258.307617188 691.259765625 l 1
 258.307617188 606.282226562 l 1
 350.254882812 653.139648438 l 1
 384.201171875 583.703125 l 1
 301.036132812 544.178710938 l 1
 385.315429688 502.865234375 l 1
 350.024414062 433.817382812 l 1
 258.307617188 480.55859375 l 1
 258.307617188 390.780273438 l 1
EndSplineSet
EndChar

StartChar: plus
Encoding: 43 43 14
Width: 514
GlyphClass: 2
Flags: MW
HStem: 226.62 105.6<57.668 212.228 57.668 212.228 318.788 473.348>
VStem: 212.228 106.561<71.0996 226.62 71.0996 226.62 332.22 487.74>
LayerCount: 2
Fore
SplineSet
318.788085938 226.620117188 m 1
 318.788085938 71.099609375 l 1
 212.227539062 71.099609375 l 1
 212.227539062 226.620117188 l 1
 57.66796875 226.620117188 l 1
 57.66796875 332.219726562 l 1
 212.227539062 332.219726562 l 1
 212.227539062 487.740234375 l 1
 318.788085938 487.740234375 l 1
 318.788085938 332.219726562 l 1
 473.34765625 332.219726562 l 1
 473.34765625 226.620117188 l 1
 318.788085938 226.620117188 l 1
EndSplineSet
EndChar

StartChar: comma
Encoding: 44 44 15
Width: 193
GlyphClass: 2
Flags: MW
HStem: -157.1 288.68<52.8682 159.428>
VStem: 52.8682 106.56<-61.0635 131.58 -61.0635 131.58 -61.0635 131.58>
LayerCount: 2
Fore
SplineSet
52.8681640625 131.580078125 m 1
 159.427734375 131.580078125 l 1
 159.427734375 -61.0634765625 l 1
 52.8681640625 -157.099609375 l 1
 52.8681640625 131.580078125 l 1
EndSplineSet
EndChar

StartChar: hyphen
Encoding: 45 45 16
Width: 430
GlyphClass: 2
Flags: MW
HStem: 293.82 106.56<56.708 390.788 56.708 390.788>
LayerCount: 2
Fore
SplineSet
56.7080078125 400.379882812 m 1
 390.788085938 400.379882812 l 1
 390.788085938 293.8203125 l 1
 56.7080078125 293.8203125 l 1
 56.7080078125 400.379882812 l 1
EndSplineSet
EndChar

StartChar: period
Encoding: 46 46 17
Width: 213
GlyphClass: 2
Flags: MW
HStem: 0.0595703 131.521<52.8682 179.588 52.8682 179.588>
VStem: 52.8682 126.72<0.0595703 131.58 0.0595703 131.58>
LayerCount: 2
Fore
SplineSet
52.8681640625 131.580078125 m 1
 179.587890625 131.580078125 l 1
 179.587890625 0.0595703125 l 1
 52.8681640625 0.0595703125 l 1
 52.8681640625 131.580078125 l 1
EndSplineSet
EndChar

StartChar: slash
Encoding: 47 47 18
Width: 436
GlyphClass: 2
Flags: MW
HStem: -9.54004 21G<50.6631 151.335 50.6631 50.6631> 673.18 20G<301.921 402.592 402.592 402.592>
LayerCount: 2
Fore
SplineSet
301.920898438 693.1796875 m 1
 402.591796875 693.1796875 l 1
 151.334960938 -9.5400390625 l 1
 50.6630859375 -9.5400390625 l 1
 301.920898438 693.1796875 l 1
EndSplineSet
EndChar

StartChar: zero
Encoding: 48 48 19
Width: 553
GlyphClass: 2
Flags: MW
HStem: -9.54004 106.561<266.322 304.775 266.322 393.22> 594.3 106.56<266.322 304.412>
VStem: 65.3477 116.159<246.779 253.5 253.5 437.82> 389.828 116.16<253.5 437.82 437.82 449.339>
LayerCount: 2
Fore
SplineSet
285.1875 -9.5400390625 m 0
 182.736328125 -9.5400390625 65.34765625 36.37109375 65.34765625 246.779296875 c 2
 65.34765625 449.338867188 l 2
 65.34765625 563.212890625 103.025390625 700.859375 285.1875 700.859375 c 0
 382.322265625 700.859375 505.98828125 659.577148438 505.98828125 449.338867188 c 2
 505.98828125 246.779296875 l 2
 505.98828125 188.947265625 501.252929688 -9.5400390625 285.1875 -9.5400390625 c 0
389.828125 253.5 m 2
 389.828125 437.8203125 l 2
 389.828125 496.013671875 380.19140625 536.478515625 364.0703125 559.703125 c 0
 348.399414062 582.278320312 323.635742188 594.299804688 285.1875 594.299804688 c 0
 247.456054688 594.299804688 222.984375 582.349609375 207.264648438 559.703125 c 0
 191.143554688 536.478515625 181.506835938 496.013671875 181.506835938 437.8203125 c 2
 181.506835938 253.5 l 2
 181.506835938 195.306640625 191.143554688 154.841796875 207.264648438 131.6171875 c 0
 222.984375 108.970703125 247.456054688 97.0205078125 285.1875 97.0205078125 c 0
 324.362304688 97.0205078125 349.189453125 109.107421875 364.484375 131.522460938 c 0
 380.340820312 154.758789062 389.828125 195.286132812 389.828125 253.5 c 2
EndSplineSet
EndChar

StartChar: one
Encoding: 49 49 20
Width: 372
GlyphClass: 2
Flags: MW
HStem: 0.0595703 21G<191.107 307.268 191.107 191.107> 671.26 20G<201.299 307.268 307.268 307.268>
VStem: 191.107 116.16<0.0595703 555.82 555.82 555.82>
LayerCount: 2
Fore
SplineSet
49.98828125 467.500976562 m 1
 49.98828125 594.50390625 l 1
 201.298828125 691.259765625 l 1
 307.267578125 691.259765625 l 1
 307.267578125 0.0595703125 l 1
 191.107421875 0.0595703125 l 1
 191.107421875 555.8203125 l 1
 49.98828125 467.500976562 l 1
EndSplineSet
Substitution2: "'sups' Superscript lookup 1 subtable" uni00B9
EndChar

StartChar: two
Encoding: 50 50 21
Width: 534
GlyphClass: 2
Flags: MW
HStem: 0.0595703 105.601<221.994 494.468 221.994 494.468> 596.22 104.641<244.187 287.88>
VStem: 59.5879 113.28<480.06 505.02 480.06 511.74 480.06 540.285> 372.547 116.161<497.34 508.86 508.86 510.78 462.396 523.284>
LayerCount: 2
Fore
SplineSet
272.70703125 700.860351562 m 0
 408.521484375 700.860351562 488.708007812 620.2890625 488.708007812 510.780273438 c 2
 488.708007812 496.379882812 l 2
 488.708007812 428.411132812 460.7578125 377.03515625 397.598632812 305.25 c 2
 221.994140625 105.66015625 l 1
 494.467773438 105.66015625 l 1
 494.467773438 0.0595703125 l 1
 60.5478515625 0.0595703125 l 1
 60.5478515625 89.98046875 l 1
 309.190429688 371.776367188 l 2
 358.162109375 424.514648438 372.546875 457.373046875 372.546875 497.33984375 c 2
 372.546875 508.860351562 l 2
 372.546875 537.708007812 363.723632812 558.048828125 346.750976562 572.900390625 c 0
 329.634765625 587.877929688 304.97265625 596.219726562 270.787109375 596.219726562 c 0
 217.5859375 596.219726562 172.868164062 575.313476562 172.868164062 505.01953125 c 2
 172.868164062 480.059570312 l 1
 59.587890625 480.059570312 l 1
 59.587890625 511.740234375 l 2
 59.587890625 568.829101562 79.0712890625 615.958007812 118.272460938 650.259765625 c 0
 157.325195312 684.431640625 209.454101562 700.860351562 272.70703125 700.860351562 c 0
EndSplineSet
Substitution2: "'sups' Superscript lookup 1 subtable" uni00B2
EndChar

StartChar: three
Encoding: 51 51 22
Width: 553
GlyphClass: 2
Flags: MW
HStem: -9.54004 104.641<247.002 306.96 228.781 314.233> 304.38 105.601<219.909 272.709 272.709 273.669 219.909 272.709> 596.22 104.641<248.861 313.504 248.861 325.096>
VStem: 60.5488 113.28<174.781 175.741 175.741 198.781 165.659 198.781> 68.2285 111.36<489.66 513.66 489.66 514.62 489.66 543.105> 378.309 115.199<498.3 503.1 503.1 511.74 511.74 517.5 481.838 525.488> 389.829 116.159<191.101 208.38 160.671 209.341 160.671 227.32>
LayerCount: 2
Fore
SplineSet
418.211914062 366.165039062 m 1xec
 455.029296875 347.0078125 505.98828125 303.340820312 505.98828125 208.379882812 c 2
 505.98828125 191.099609375 l 2
 505.98828125 130.2421875 485.607421875 80.23828125 444.462890625 43.974609375 c 0
 403.435546875 7.814453125 348.079101562 -9.5400390625 280.387695312 -9.5400390625 c 0
 213.6171875 -9.5400390625 159.6015625 5.8232421875 120.046875 38.376953125 c 0
 80.25390625 71.1259765625 60.548828125 117.668945312 60.548828125 174.78125 c 2
 60.548828125 198.78125 l 1
 173.829101562 198.78125 l 1
 173.829101562 175.741210938 l 2
 173.829101562 155.576171875 176.213867188 95.1005859375 281.348632812 95.1005859375 c 0
 332.572265625 95.1005859375 389.829101562 112.646484375 389.829101562 191.100585938 c 2
 389.829101562 209.340820312 l 2xf2
 389.829101562 245.299804688 379.193359375 304.379882812 273.668945312 304.379882812 c 2
 219.909179688 304.379882812 l 1
 219.909179688 409.98046875 l 1
 272.708984375 409.98046875 l 2
 324.44921875 409.98046875 378.30859375 427.083984375 378.30859375 498.299804688 c 2
 378.30859375 511.740234375 l 2
 378.30859375 539.235351562 371.723632812 596.219726562 278.46875 596.219726562 c 0
 189.012695312 596.219726562 179.588867188 544.803710938 179.588867188 513.66015625 c 2
 179.588867188 489.66015625 l 1
 68.228515625 489.66015625 l 1
 68.228515625 514.620117188 l 2
 68.228515625 571.58984375 87.13671875 618.286132812 125.494140625 651.71875 c 0
 163.768554688 685.077148438 216.375 700.860351562 281.34765625 700.860351562 c 0
 345.66015625 700.860351562 397.875976562 685.4140625 436.125976562 652.778320312 c 0
 474.547851562 619.99609375 493.5078125 573.875 493.5078125 517.5 c 2
 493.5078125 503.099609375 l 2
 493.5078125 460.577148438 479.762695312 404.427734375 418.211914062 366.165039062 c 1xec
EndSplineSet
Substitution2: "'sups' Superscript lookup 1 subtable" uni00B3
EndChar

StartChar: four
Encoding: 52 52 23
Width: 568
GlyphClass: 2
Flags: MW
HStem: 0.0595703 21G<340.868 457.028 340.868 340.868> 122.94 106.56<174.812 340.868 174.812 340.868 457.028 536.708> 671.26 20G<279.075 400.411 400.411 400.411>
VStem: 340.868 116.16<0.0595703 122.94 0.0595703 122.94 229.5 401.34>
LayerCount: 2
Fore
SplineSet
457.028320312 229.5 m 1
 536.708007812 229.5 l 1
 536.708007812 122.940429688 l 1
 457.028320312 122.940429688 l 1
 457.028320312 0.0595703125 l 1
 340.868164062 0.0595703125 l 1
 340.868164062 122.940429688 l 1
 48.0673828125 122.940429688 l 1
 48.0673828125 218.432617188 l 1
 279.075195312 691.259765625 l 1
 400.411132812 691.259765625 l 1
 174.811523438 229.5 l 1
 340.868164062 229.5 l 1
 340.868164062 401.33984375 l 1
 457.028320312 401.33984375 l 1
 457.028320312 229.5 l 1
EndSplineSet
EndChar

StartChar: five
Encoding: 53 53 24
Width: 540
GlyphClass: 2
Flags: MW
HStem: -9.54004 105.6<259.083 302.665 259.083 308.252> 361.02 104.641<267.415 299.696> 584.7 106.56<182.467 475.267 182.467 182.467>
VStem: 65.3467 112.32<172.86 175.74 175.74 194.94 164.118 194.94> 75.9072 106.56<433.382 433.382 433.382 584.7> 378.307 115.2<211.26 244.86 244.86 248.7 174.085 296.387>
LayerCount: 2
Fore
SplineSet
182.466796875 433.381835938 m 1xec
 201.296875 445.775390625 240.04296875 465.66015625 294.786132812 465.66015625 c 0
 355.95703125 465.66015625 405.737304688 446.85546875 441.235351562 408.194335938 c 0
 476.704101562 369.563476562 493.506835938 315.662109375 493.506835938 248.700195312 c 2
 493.506835938 207.419921875 l 2
 493.506835938 140.750976562 474.631835938 86.71484375 435.481445312 47.9140625 c 0
 396.336914062 9.1181640625 341.875976562 -9.5400390625 274.627929688 -9.5400390625 c 0
 210.1953125 -9.5400390625 158.19140625 6.80859375 120.857421875 41.326171875 c 0
 83.94921875 75.4482421875 65.3466796875 120.103515625 65.3466796875 172.860351562 c 2
 65.3466796875 194.940429688 l 1
 177.666992188 194.940429688 l 1
 177.666992188 175.740234375 l 2xf4
 177.666992188 152.49609375 185.51171875 134.352539062 201.887695312 119.067382812 c 0
 217.506835938 104.489257812 241.620117188 96.0595703125 276.546875 96.0595703125 c 0
 328.782226562 96.0595703125 378.306640625 115.631835938 378.306640625 211.259765625 c 2
 378.306640625 244.860351562 l 2
 378.306640625 347.9140625 319.965820312 361.01953125 279.426757812 361.01953125 c 0
 247.517578125 361.01953125 207.619140625 350.654296875 188.049804688 304.526367188 c 2
 184.322265625 295.740234375 l 1
 75.9072265625 295.740234375 l 1
 75.9072265625 691.259765625 l 1
 475.266601562 691.259765625 l 1
 475.266601562 584.700195312 l 1
 182.466796875 584.700195312 l 1
 182.466796875 433.381835938 l 1xec
EndSplineSet
EndChar

StartChar: six
Encoding: 54 54 25
Width: 557
GlyphClass: 2
Flags: MW
HStem: -9.54004 104.64<269.229 305.311 269.229 320.751> 324.541 105.599<301.288 304.721> 671.26 20G<293.349 422.131 422.131 422.131>
VStem: 59.5869 116.159<198.78 219.9 219.9 220.86 182.069 252.687> 399.426 115.201<199.741 202.62 202.62 221.821 221.821 225.66 170.647 238.175>
LayerCount: 2
Fore
SplineSet
310.146484375 430.139648438 m 0
 428.693359375 430.139648438 514.626953125 344.192382812 514.626953125 225.66015625 c 2
 514.626953125 202.620117188 l 2
 514.626953125 138.673828125 493.881835938 86.0625 451.875976562 47.52734375 c 0
 410.021484375 9.1318359375 354.39453125 -9.5400390625 287.107421875 -9.5400390625 c 0
 219.247070312 -9.5400390625 163.453125 8.9189453125 121.862304688 47.0439453125 c 0
 80.25390625 85.185546875 59.5869140625 136.654296875 59.5869140625 198.780273438 c 2
 59.5869140625 219.900390625 l 2
 59.5869140625 285.473632812 81.474609375 337.71875 127.038085938 413.748046875 c 2
 293.348632812 691.259765625 l 1
 422.130859375 691.259765625 l 1
 260.696289062 425.260742188 l 1
 275.944335938 428.544921875 292.428710938 430.139648438 310.146484375 430.139648438 c 0
399.42578125 199.741210938 m 2
 399.42578125 221.821289062 l 2
 399.42578125 254.529296875 389.430664062 278.6015625 369.946289062 296.712890625 c 0
 350.490234375 314.799804688 323.296875 324.541015625 286.145507812 324.541015625 c 0
 249.630859375 324.541015625 223.124023438 314.958984375 204.3359375 297.258789062 c 0
 185.63671875 279.64453125 175.74609375 255.102539062 175.74609375 220.860351562 c 2
 175.74609375 198.780273438 l 2
 175.74609375 165.358398438 185.80078125 140.984375 205.225585938 122.927734375 c 0
 224.783203125 104.747070312 251.350585938 95.099609375 287.106445312 95.099609375 c 0
 323.514648438 95.099609375 350.348632812 104.9140625 369.868164062 123.333007812 c 0
 389.368164062 141.734375 399.42578125 166.32421875 399.42578125 199.741210938 c 2
EndSplineSet
EndChar

StartChar: seven
Encoding: 55 55 26
Width: 495
GlyphClass: 2
Flags: MW
HStem: 0.0595703 21G<95.2812 214.991 95.2812 95.2812> 584.7 106.56<42.3076 347.762 42.3076 471.428>
LayerCount: 2
Fore
SplineSet
471.427734375 691.259765625 m 1
 471.427734375 596.12890625 l 1
 214.991210938 0.0595703125 l 1
 95.28125 0.0595703125 l 1
 347.76171875 584.700195312 l 1
 42.3076171875 584.700195312 l 1
 42.3076171875 691.259765625 l 1
 471.427734375 691.259765625 l 1
EndSplineSet
EndChar

StartChar: eight
Encoding: 56 56 27
Width: 572
GlyphClass: 2
Flags: MW
HStem: -9.54004 104.639<262.098 313.776 262.098 328.38> 309.179 104.641<278.04 311.887 278.04 313.776> 596.219 104.641<278.345 311.581>
VStem: 65.3486 115.199<193.02 194.939 194.939 207.419 207.419 210.299 159.791 220.417> 79.749 115.2<501.18 513.659 485.531 513.66 485.531 565.993> 395.588 115.2<499.259 501.18 501.18 513.659 513.659 513.66 484.271 526.992> 409.028 115.199<194.939 208.38 163.462 210.299 163.462 226.303>
LayerCount: 2
Fore
SplineSet
439.546875 363.467773438 m 1xec
 470.547851562 344.8125 524.227539062 299.373046875 524.227539062 208.379882812 c 2
 524.227539062 193.98046875 l 2
 524.227539062 132.944335938 502.893554688 82.46484375 460.231445312 45.3525390625 c 0
 417.754882812 8.400390625 361.97265625 -9.5400390625 294.788085938 -9.5400390625 c 0
 227.026367188 -9.5400390625 171.083007812 8.19140625 128.87109375 44.8671875 c 0
 86.4931640625 81.685546875 65.3486328125 132.01953125 65.3486328125 193.01953125 c 2
 65.3486328125 207.418945312 l 2xf2
 65.3486328125 233.416015625 68.4072265625 315.001953125 150.532226562 363.478515625 c 1
 127.2578125 378.900390625 79.7490234375 420.288085938 79.7490234375 501.1796875 c 2
 79.7490234375 513.66015625 l 2
 79.7490234375 618.326171875 158.037109375 700.859375 294.788085938 700.859375 c 0
 429.889648438 700.859375 510.788085938 620.590820312 510.788085938 513.66015625 c 2
 510.788085938 501.1796875 l 2
 510.788085938 467.361328125 502.225585938 436.622070312 484.979492188 409.872070312 c 0
 472.932617188 391.1875 457.68359375 375.646484375 439.546875 363.467773438 c 1xec
395.587890625 499.258789062 m 2xec
 395.587890625 513.659179688 l 2
 395.587890625 540.325195312 387.006835938 559.331054688 369.990234375 573.689453125 c 0
 352.833007812 588.166015625 328.372070312 596.21875 294.7890625 596.21875 c 0
 261.901367188 596.21875 237.758789062 588.211914062 220.546875 573.689453125 c 0
 203.530273438 559.331054688 194.94921875 540.325195312 194.94921875 513.659179688 c 2
 194.94921875 499.258789062 l 2
 194.94921875 471.803710938 203.528320312 452.015625 220.349609375 437.063476562 c 0
 237.16015625 422.120117188 261.291015625 413.819335938 294.7890625 413.819335938 c 0
 328.984375 413.819335938 353.432617188 422.169921875 370.188476562 437.063476562 c 0
 387.008789062 452.015625 395.587890625 471.802734375 395.587890625 499.258789062 c 2xec
180.547851562 194.939453125 m 2xf2
 180.547851562 124.641601562 229.408203125 95.0986328125 294.788085938 95.0986328125 c 0
 332.764648438 95.0986328125 360.420898438 104.51953125 379.796875 121.712890625 c 0
 399.046875 138.79296875 409.028320312 162.21484375 409.028320312 194.939453125 c 2
 409.028320312 210.298828125 l 2
 409.028320312 242.306640625 399.110351562 265.428710938 379.796875 282.565429688 c 0
 360.420898438 299.7578125 332.764648438 309.178710938 294.788085938 309.178710938 c 0
 256.811523438 309.178710938 229.154296875 299.7578125 209.778320312 282.565429688 c 0
 190.46484375 265.428710938 180.547851562 242.306640625 180.547851562 210.298828125 c 2
 180.547851562 194.939453125 l 2xf2
EndSplineSet
EndChar

StartChar: nine
Encoding: 57 57 28
Width: 557
GlyphClass: 2
Flags: MW
HStem: 0.0595703 21G<153.044 280.841 153.044 153.044> 261.18 105.601<269.845 273.252> 596.22 104.641<268.905 305.336>
VStem: 59.5889 115.2<465.66 469.5 469.5 488.7 488.7 491.58 453.173 520.673> 399.43 115.198<470.46 471.42 471.42 492.54 440.146 509.251>
LayerCount: 2
Fore
SplineSet
264.068359375 261.1796875 m 0
 145.521484375 261.1796875 59.5888671875 347.127929688 59.5888671875 465.66015625 c 2
 59.5888671875 488.700195312 l 2
 59.5888671875 552.646484375 80.333984375 605.2578125 122.33984375 643.79296875 c 0
 164.193359375 682.188476562 219.821289062 700.860351562 287.107421875 700.860351562 c 0
 354.96875 700.860351562 410.76171875 682.401367188 452.352539062 644.276367188 c 0
 493.961914062 606.133789062 514.627929688 554.666015625 514.627929688 492.540039062 c 2
 514.627929688 471.419921875 l 2
 514.627929688 408.87109375 495.750976562 356.556640625 448.171875 277.6328125 c 2
 280.840820312 0.0595703125 l 1
 153.043945312 0.0595703125 l 1
 314.306640625 265.776367188 l 1
 299.194335938 262.649414062 282.435546875 261.1796875 264.068359375 261.1796875 c 0
399.4296875 470.459960938 m 2
 399.4296875 492.540039062 l 2
 399.4296875 525.961914062 389.375 550.3359375 369.950195312 568.392578125 c 0
 350.443359375 586.525390625 323.563476562 596.219726562 287.109375 596.219726562 c 0
 250.701171875 596.219726562 223.8671875 586.40625 204.34765625 567.986328125 c 0
 184.846679688 549.584960938 174.7890625 524.99609375 174.7890625 491.580078125 c 2
 174.7890625 469.5 l 2
 174.7890625 436.845703125 184.891601562 412.809570312 204.673828125 394.67578125 c 0
 224.533203125 376.471679688 251.62109375 366.780273438 288.068359375 366.780273438 c 0
 324.576171875 366.780273438 351.293945312 376.358398438 370.434570312 394.1328125 c 0
 389.427734375 411.76953125 399.4296875 436.26953125 399.4296875 470.459960938 c 2
EndSplineSet
EndChar

StartChar: colon
Encoding: 58 58 29
Width: 213
GlyphClass: 2
Flags: MW
HStem: 47.0996 131.521<52.8682 179.588 52.8682 179.588> 277.5 131.52<52.8682 179.588 52.8682 179.588>
VStem: 52.8682 126.72<47.0996 178.62 47.0996 178.62 277.5 409.02>
LayerCount: 2
Fore
SplineSet
52.8681640625 409.01953125 m 1
 179.587890625 409.01953125 l 1
 179.587890625 277.5 l 1
 52.8681640625 277.5 l 1
 52.8681640625 409.01953125 l 1
52.8681640625 178.620117188 m 1
 179.587890625 178.620117188 l 1
 179.587890625 47.099609375 l 1
 52.8681640625 47.099609375 l 1
 52.8681640625 178.620117188 l 1
EndSplineSet
EndChar

StartChar: semicolon
Encoding: 59 59 30
Width: 213
GlyphClass: 2
Flags: MW
HStem: -156.836 21G<72.0674 72.0674> 324.54 131.52<52.8682 179.588 52.8682 179.588>
VStem: 52.8682 126.72<324.54 456.06> 72.0674 107.521<-61.1162 131.58 -61.1162 131.58 -61.1162 131.58>
LayerCount: 2
Fore
SplineSet
52.8681640625 456.059570312 m 1xe0
 179.587890625 456.059570312 l 1
 179.587890625 324.540039062 l 1
 52.8681640625 324.540039062 l 1
 52.8681640625 456.059570312 l 1xe0
72.0673828125 131.580078125 m 1xd0
 179.587890625 131.580078125 l 1
 179.587890625 -61.1162109375 l 1
 72.0673828125 -156.8359375 l 1
 72.0673828125 131.580078125 l 1xd0
EndSplineSet
EndChar

StartChar: less
Encoding: 60 60 31
Width: 514
GlyphClass: 2
Flags: W
LayerCount: 2
Fore
SplineSet
57.66796875 235.157226562 m 1
 57.66796875 323.705078125 l 1
 472.387695312 490.831054688 l 1
 472.387695312 379.020507812 l 1
 217.120117188 279.361328125 l 1
 472.387695312 178.828125 l 1
 472.387695312 67 l 1
 57.66796875 235.157226562 l 1
EndSplineSet
Substitution2: "'rtla' Right to Left Alternates lookup 0 subtable" greater
EndChar

StartChar: equal
Encoding: 61 61 32
Width: 514
GlyphClass: 2
Flags: MW
HStem: 145.98 105.6<57.668 472.388 57.668 472.388> 306.3 106.561<57.668 472.388 57.668 472.388>
LayerCount: 2
Fore
SplineSet
57.66796875 412.860351562 m 1
 472.387695312 412.860351562 l 1
 472.387695312 306.299804688 l 1
 57.66796875 306.299804688 l 1
 57.66796875 412.860351562 l 1
57.66796875 251.580078125 m 1
 472.387695312 251.580078125 l 1
 472.387695312 145.98046875 l 1
 57.66796875 145.98046875 l 1
 57.66796875 251.580078125 l 1
EndSplineSet
EndChar

StartChar: greater
Encoding: 62 62 33
Width: 514
GlyphClass: 2
Flags: W
LayerCount: 2
Fore
SplineSet
57.66796875 379.020507812 m 1
 57.66796875 490.831054688 l 1
 472.387695312 323.705078125 l 1
 472.387695312 235.157226562 l 1
 57.66796875 67 l 1
 57.66796875 178.828125 l 1
 312.935546875 279.361328125 l 1
 57.66796875 379.020507812 l 1
EndSplineSet
Substitution2: "'rtla' Right to Left Alternates lookup 0 subtable" less
EndChar

StartChar: question
Encoding: 63 63 34
Width: 491
GlyphClass: 2
Flags: MW
HStem: 0.0595703 127.68<184.388 310.147 184.388 310.147> 595.26 105.601<217.483 281.493 217.483 294.604>
VStem: 39.1045 112.644<493.5 507.9> 184.388 125.76<0.0595703 127.739 0.0595703 127.739> 345.668 115.2<503.348 531.981>
LayerCount: 2
Fore
SplineSet
248.708007812 595.259765625 m 0
 169.065429688 595.259765625 151.748046875 554.2109375 151.748046875 507.900390625 c 2
 151.748046875 493.5 l 1
 39.1044921875 493.5 l 1
 39.98046875 532.942382812 41.4873046875 600.76953125 96.4365234375 651.008789062 c 0
 133.48828125 684.884765625 185.297851562 700.860351562 249.66796875 700.860351562 c 0
 313.317382812 700.860351562 365.141601562 685.751953125 403.368164062 653.837890625 c 0
 441.712890625 621.825195312 460.868164062 577.291015625 460.868164062 523.259765625 c 0
 460.868164062 467.206054688 442.911132812 420.623046875 399.208984375 376.919921875 c 2
 333.768554688 311.479492188 l 2
 310.643554688 288.35546875 304.387695312 273.774414062 304.387695312 239.099609375 c 2
 304.387695312 175.740234375 l 1
 191.107421875 175.740234375 l 1
 191.107421875 242.940429688 l 2
 191.107421875 305.698242188 203.6328125 336.69140625 245.336914062 377.048828125 c 0
 245.416992188 377.126953125 301.016601562 431.76953125 301.016601562 431.76953125 c 2
 301.109375 431.861328125 301.204101562 431.952148438 301.30078125 432.040039062 c 0
 336.084960938 464.424804688 345.66796875 486.31640625 345.66796875 520.379882812 c 0
 345.66796875 543.583007812 340.5 595.259765625 248.708007812 595.259765625 c 0
184.387695312 127.739257812 m 1
 310.147460938 127.739257812 l 1
 310.147460938 0.0595703125 l 1
 184.387695312 0.0595703125 l 1
 184.387695312 127.739257812 l 1
EndSplineSet
EndChar

StartChar: at
Encoding: 64 64 35
Width: 851
GlyphClass: 2
Flags: MW
HStem: -124.74 100.801<395.516 484.111 350.742 495.996> 53.8242 93.1182<639.41 657.013 639.41 669.052> 414.785 95.0391<417.086 419.288 342.695 440.956> 593.341 100.803<346.645 468.005 321.681 514.618>
VStem: 56.7109 108.479<249.664 322.624 322.624 323.581 164.468 434.118> 255.431 107.521<239.104 243.904 243.904 322.625 227.103 323.584 227.103 362.23> 494.472 106.559<240.063 324.545 324.545 340.289> 699.911 108.479<251.582 253.504 253.504 324.542 324.542 325.504 221.787 407.355>
LayerCount: 2
Fore
SplineSet
165.189453125 249.661132812 m 2
 165.189453125 79.275390625 269.416015625 -23.939453125 432.068359375 -23.939453125 c 0
 536.154296875 -23.939453125 589.751953125 3.7294921875 639.181640625 30.50390625 c 1
 681.178710938 -57.5546875 l 1
 625.763671875 -89.7958984375 559.923828125 -124.740234375 432.067382812 -124.740234375 c 0
 358.963867188 -124.740234375 293.713867188 -109.21484375 236.955078125 -77.8310546875 c 0
 180.294921875 -46.501953125 135.784179688 -2.146484375 104.130859375 54.494140625 c 0
 72.408203125 111.26171875 56.7109375 176.537109375 56.7109375 249.6640625 c 2
 56.7109375 322.624023438 l 2
 56.7109375 545.612304688 211.291015625 694.143554688 432.0703125 694.143554688 c 0
 503.939453125 694.143554688 568.842773438 678.59375 626.161132812 647.268554688 c 0
 728.494140625 591.342773438 808.390625 483.81640625 808.390625 325.50390625 c 2
 808.390625 253.50390625 l 2
 808.390625 190.0703125 794.278320312 139.96484375 763.48828125 105.237304688 c 0
 733.208007812 71.0859375 692.9140625 53.82421875 645.190429688 53.82421875 c 0
 613.834960938 53.82421875 564.30078125 61.7373046875 531.974609375 105.89453125 c 1
 506.5234375 70.93359375 464.75 53.82421875 410.950195312 53.82421875 c 0
 359.99609375 53.82421875 319.34765625 70.0244140625 292.998046875 104.059570312 c 0
 267.275390625 137.28515625 255.430664062 182.772460938 255.430664062 239.103515625 c 2
 255.430664062 323.583984375 l 2
 255.430664062 400.876953125 278.280273438 509.82421875 407.110351562 509.82421875 c 0
 431.46484375 509.82421875 465.508789062 505.4453125 496.390625 480.772460938 c 1
 496.390625 500.22265625 l 1
 601.030273438 500.22265625 l 1
 601.030273438 208.3828125 l 2
 601.030273438 185.432617188 606.26171875 170.37109375 614.270507812 161.217773438 c 0
 622.854492188 151.407226562 632.668945312 146.942382812 646.150390625 146.942382812 c 0
 667.875 146.942382812 699.911132812 154.30859375 699.911132812 251.58203125 c 2
 699.911132812 324.541992188 l 2
 699.911132812 490.168945312 597.166015625 593.340820312 432.069335938 593.340820312 c 0
 261.220703125 593.340820312 165.189453125 485.447265625 165.189453125 323.581054688 c 2
 165.189453125 249.661132812 l 2
429.19140625 148.864257812 m 0
 452.854492188 148.864257812 494.471679688 154.005859375 494.471679688 240.063476562 c 2
 494.471679688 324.544921875 l 2
 494.471679688 356.033203125 488.139648438 378.629882812 477.494140625 393.428710938 c 0
 467.447265625 407.395507812 452.720703125 414.78515625 429.19140625 414.78515625 c 0
 404.98046875 414.78515625 362.951171875 409.38671875 362.951171875 322.625 c 2
 362.951171875 243.904296875 l 2
 362.951171875 210.301757812 369.09765625 186.134765625 379.29296875 170.709960938 c 0
 388.556640625 156.6953125 403.53125 148.864257812 429.19140625 148.864257812 c 0
EndSplineSet
EndChar

StartChar: A
Encoding: 65 65 36
Width: 667
GlyphClass: 2
Flags: MW
HStem: 0.0595703 21G<5.33105 5.33105 5.33105 127.923 552.911 552.911 552.911 676.434> 149.82 102.72<228.699 451.116 228.699 492.431 187.443 451.116> 671.26 20G<293.832 386.931 386.931 386.931>
LayerCount: 2
Fore
SplineSet
5.3310546875 0.0595703125 m 1
 293.83203125 691.259765625 l 1
 386.930664062 691.259765625 l 1
 676.43359375 0.0595703125 l 1
 552.911132812 0.0595703125 l 1
 492.430664062 149.8203125 l 1
 187.443359375 149.8203125 l 1
 127.922851562 0.0595703125 l 1
 5.3310546875 0.0595703125 l 1
228.69921875 252.540039062 m 1
 451.116210938 252.540039062 l 1
 339.908203125 530.560546875 l 1
 228.69921875 252.540039062 l 1
EndSplineSet
EndChar

StartChar: B
Encoding: 66 66 37
Width: 672
GlyphClass: 2
Flags: MW
HStem: 0.0595703 105.601<192.066 386.948> 300.54 105.6<192.067 381.187 381.187 383.106 192.066 381.187> 585.661 105.599<192.067 381.188 381.188 383.106 192.067 192.067>
VStem: 75.9082 116.158<105.66 300.54 105.66 691.26> 496.387 115.201<474.247 517.644> 506.946 116.16<177.085 224.873>
LayerCount: 2
Fore
SplineSet
533.383789062 357.119140625 m 1xf8
 576.979492188 335 623.106445312 290.03515625 623.106445312 198.78125 c 0xf4
 623.106445312 151.091796875 613.671875 0.0595703125 386.948242188 0.0595703125 c 2
 75.908203125 0.0595703125 l 1
 75.908203125 691.259765625 l 1
 381.1875 691.259765625 l 2
 453.505859375 691.259765625 510.686523438 675.920898438 551.091796875 642.89453125 c 0
 591.799804688 609.619140625 611.587890625 560.568359375 611.587890625 499.259765625 c 0
 611.587890625 432.428710938 579.58203125 384.104492188 533.383789062 357.119140625 c 1xf8
496.38671875 495.420898438 m 0xf8
 496.38671875 539.866210938 480.05859375 585.661132812 383.106445312 585.661132812 c 2
 192.067382812 585.661132812 l 1
 192.067382812 406.139648438 l 1
 381.186523438 406.139648438 l 2
 481.919921875 406.139648438 496.38671875 453.072265625 496.38671875 495.420898438 c 0xf8
388.866210938 105.66015625 m 2
 485.014648438 105.66015625 506.946289062 149.630859375 506.946289062 204.540039062 c 0xf4
 506.946289062 245.206054688 493.970703125 300.540039062 383.106445312 300.540039062 c 2
 192.06640625 300.540039062 l 1
 192.06640625 105.66015625 l 1
 388.866210938 105.66015625 l 2
EndSplineSet
EndChar

StartChar: C
Encoding: 67 67 38
Width: 680
GlyphClass: 2
Flags: MW
HStem: -8.58008 107.521<311.713 396.113 300.103 398.283> 593.34 107.521<327.073 384.717>
VStem: 65.3457 116.161<297.66 389.82 226.852 394.62 226.852 444.084> 515.587 116.16<456.06 474.3 474.3 475.26 456.06 493.999>
LayerCount: 2
Fore
SplineSet
359.106445312 98.9404296875 m 0
 433.120117188 98.9404296875 515.586914062 120.930664062 515.586914062 218.940429688 c 2
 515.586914062 237.1796875 l 1
 630.787109375 237.1796875 l 1
 630.787109375 217.98046875 l 2
 630.787109375 147.908203125 605.810546875 91.10546875 555.819335938 50.7685546875 c 0
 506.1328125 10.67578125 439.37890625 -8.580078125 357.1875 -8.580078125 c 0
 266.239257812 -8.580078125 193.622070312 16.8212890625 141.98046875 69.1474609375 c 0
 90.111328125 121.704101562 65.345703125 198.749023438 65.345703125 297.66015625 c 2
 65.345703125 394.620117188 l 2
 65.345703125 493.548828125 90.2861328125 570.6171875 142.4921875 623.166992188 c 0
 194.463867188 675.48046875 267.541015625 700.860351562 359.106445312 700.860351562 c 0
 441.2734375 700.860351562 507.862304688 681.78515625 557.250976562 641.999023438 c 0
 606.956054688 601.958007812 631.747070312 545.299804688 631.747070312 475.259765625 c 2
 631.747070312 456.059570312 l 1
 515.586914062 456.059570312 l 1
 515.586914062 474.299804688 l 2
 515.586914062 513.698242188 502.4921875 541.698242188 476.54296875 561.787109375 c 0
 450.284179688 582.1171875 411.287109375 593.33984375 358.146484375 593.33984375 c 0
 295.999023438 593.33984375 252.701171875 576.572265625 224.901367188 545.3671875 c 0
 197.030273438 514.083984375 181.506835938 462.9140625 181.506835938 389.8203125 c 2
 181.506835938 296.700195312 l 2
 181.506835938 157.002929688 241.099609375 98.9404296875 359.106445312 98.9404296875 c 0
EndSplineSet
EndChar

StartChar: D
Encoding: 68 68 39
Width: 675
GlyphClass: 2
Flags: MW
HStem: 0.0595703 106.56<192.067 333.188> 584.699 106.561<192.067 335.107 192.067 192.067>
VStem: 75.9082 116.159<106.619 584.699 106.619 691.26 106.619 691.26> 509.828 116.16<300.539 302.459 302.459 385.02 385.02 389.819 253.625 458.555>
LayerCount: 2
Fore
SplineSet
625.98828125 389.819335938 m 2
 625.98828125 302.458984375 l 2
 625.98828125 204.791015625 601.189453125 128.661132812 549.288085938 76.759765625 c 0
 497.608398438 25.080078125 424.708007812 0.0595703125 333.1875 0.0595703125 c 2
 75.908203125 0.0595703125 l 1
 75.908203125 691.259765625 l 1
 335.107421875 691.259765625 l 2
 425.990234375 691.259765625 498.41015625 666.397460938 549.768554688 615.0390625 c 0
 601.37109375 563.436523438 625.98828125 487.462890625 625.98828125 389.819335938 c 2
509.828125 385.01953125 m 2
 509.828125 532.08984375 446.216796875 584.69921875 335.107421875 584.69921875 c 2
 192.067382812 584.69921875 l 1
 192.067382812 106.619140625 l 1
 335.107421875 106.619140625 l 2
 449.321289062 106.619140625 509.828125 160.787109375 509.828125 300.5390625 c 2
 509.828125 385.01953125 l 2
EndSplineSet
EndChar

StartChar: E
Encoding: 69 69 40
Width: 600
GlyphClass: 2
Flags: MW
HStem: 0.0595703 106.561<192.067 567.428 192.067 567.428> 297.66 106.56<192.067 513.668 192.067 513.668> 584.7 106.56<192.067 567.428 192.067 192.067>
VStem: 75.9082 116.159<106.62 106.62 106.62 297.66 404.22 584.7>
LayerCount: 2
Fore
SplineSet
192.067382812 106.620117188 m 1
 567.427734375 106.620117188 l 1
 567.427734375 0.0595703125 l 1
 75.908203125 0.0595703125 l 1
 75.908203125 691.259765625 l 1
 567.427734375 691.259765625 l 1
 567.427734375 584.700195312 l 1
 192.067382812 584.700195312 l 1
 192.067382812 404.219726562 l 1
 513.66796875 404.219726562 l 1
 513.66796875 297.66015625 l 1
 192.067382812 297.66015625 l 1
 192.067382812 106.620117188 l 1
EndSplineSet
EndChar

StartChar: F
Encoding: 70 70 41
Width: 593
GlyphClass: 2
Flags: MW
HStem: 0.0595703 21G<75.9082 192.067 75.9082 75.9082> 294.78 106.56<192.067 514.628 192.067 514.628> 584.7 106.56<192.067 567.428 192.067 192.067>
VStem: 75.9082 116.159<0.0595703 294.78 0.0595703 401.34 401.34 584.7>
LayerCount: 2
Fore
SplineSet
192.067382812 294.780273438 m 1
 192.067382812 0.0595703125 l 1
 75.908203125 0.0595703125 l 1
 75.908203125 691.259765625 l 1
 567.427734375 691.259765625 l 1
 567.427734375 584.700195312 l 1
 192.067382812 584.700195312 l 1
 192.067382812 401.33984375 l 1
 514.627929688 401.33984375 l 1
 514.627929688 294.780273438 l 1
 192.067382812 294.780273438 l 1
EndSplineSet
EndChar

StartChar: G
Encoding: 71 71 42
Width: 680
GlyphClass: 2
Flags: MW
HStem: -8.58008 107.521<312.367 399.697> 271.74 102.72<333.188 516.548 333.188 631.748> 593.34 107.52<327.074 384.35>
VStem: 65.3477 116.16<297.659 389.82 226.852 394.619 226.852 444.075> 516.548 115.2<246.78 252.54 252.54 271.74 271.74 271.74>
LayerCount: 2
Fore
SplineSet
359.107421875 98.9404296875 m 0
 481.8984375 98.9404296875 516.547851562 163.166992188 516.547851562 246.780273438 c 2
 516.547851562 271.740234375 l 1
 333.1875 271.740234375 l 1
 333.1875 374.459960938 l 1
 631.748046875 374.459960938 l 1
 631.748046875 252.540039062 l 2
 631.748046875 169.201171875 607.698242188 103.338867188 557.912109375 58.046875 c 0
 508.546875 13.1376953125 441.247070312 -8.580078125 358.147460938 -8.580078125 c 0
 266.5859375 -8.580078125 193.64453125 16.798828125 141.98046875 69.1474609375 c 0
 90.111328125 121.704101562 65.34765625 198.748046875 65.34765625 297.659179688 c 2
 65.34765625 394.619140625 l 2
 65.34765625 493.530273438 90.111328125 570.575195312 141.98046875 623.131835938 c 0
 193.64453125 675.48046875 266.5859375 700.859375 358.147460938 700.859375 c 0
 439.744140625 700.859375 506.206054688 681.407226562 555.8671875 640.993164062 c 0
 605.704101562 600.434570312 630.788085938 544.508789062 630.788085938 476.21875 c 2
 630.788085938 457.01953125 l 1
 515.587890625 457.01953125 l 1
 515.587890625 475.258789062 l 2
 515.587890625 512.46484375 502.546875 539.978515625 475.970703125 560.899414062 c 0
 449.325195312 581.876953125 410.551757812 593.33984375 358.147460938 593.33984375 c 0
 296 593.33984375 252.702148438 576.572265625 224.90234375 545.3671875 c 0
 197.03125 514.083984375 181.5078125 462.9140625 181.5078125 389.8203125 c 2
 181.5078125 296.700195312 l 2
 181.5078125 157.002929688 241.100585938 98.9404296875 359.107421875 98.9404296875 c 0
EndSplineSet
EndChar

StartChar: H
Encoding: 72 72 43
Width: 685
GlyphClass: 2
Flags: MW
HStem: 0.0595703 21G<75.9082 192.067 75.9082 75.9082 508.868 624.067 508.868 508.868> 299.58 105.6<192.067 508.868 192.067 508.868> 671.26 20G<75.9082 192.067 192.067 192.067 508.868 624.067 624.067 624.067>
VStem: 75.9082 116.159<0.0595703 299.58 0.0595703 405.18 405.18 691.26> 508.868 115.199<0.0595703 299.58 299.58 299.58 405.18 691.26 0.0595703 691.26>
LayerCount: 2
Fore
SplineSet
624.067382812 691.259765625 m 1
 624.067382812 0.0595703125 l 1
 508.868164062 0.0595703125 l 1
 508.868164062 299.580078125 l 1
 192.067382812 299.580078125 l 1
 192.067382812 0.0595703125 l 1
 75.908203125 0.0595703125 l 1
 75.908203125 691.259765625 l 1
 192.067382812 691.259765625 l 1
 192.067382812 405.1796875 l 1
 508.868164062 405.1796875 l 1
 508.868164062 691.259765625 l 1
 624.067382812 691.259765625 l 1
EndSplineSet
EndChar

StartChar: I
Encoding: 73 73 44
Width: 263
GlyphClass: 2
Flags: MW
HStem: 0.0595703 21G<82.6279 198.788 82.6279 82.6279> 671.26 20G<82.6279 198.788 198.788 198.788>
VStem: 82.6279 116.16<0.0595703 691.26 0.0595703 691.26>
LayerCount: 2
Fore
SplineSet
82.6279296875 691.259765625 m 1
 198.788085938 691.259765625 l 1
 198.788085938 0.0595703125 l 1
 82.6279296875 0.0595703125 l 1
 82.6279296875 691.259765625 l 1
EndSplineSet
EndChar

StartChar: J
Encoding: 74 74 45
Width: 356
GlyphClass: 2
Flags: MW
HStem: 0.0595703 106.561<34.6279 108.547 108.547 122.433 34.6279 125.828 34.6279 108.547> 671.26 20G<174.788 290.948 290.948 290.948>
VStem: 174.788 116.16<174.78 691.26>
LayerCount: 2
Fore
SplineSet
290.948242188 163.259765625 m 2
 290.948242188 91.25 266.084960938 0.0595703125 125.828125 0.0595703125 c 2
 34.6279296875 0.0595703125 l 1
 34.6279296875 106.620117188 l 1
 108.546875 106.620117188 l 2
 136.318359375 106.620117188 152.6953125 112.837890625 160.635742188 120.986328125 c 0
 168.642578125 129.204101562 174.788085938 146.28125 174.788085938 174.780273438 c 2
 174.788085938 691.259765625 l 1
 290.948242188 691.259765625 l 1
 290.948242188 163.259765625 l 2
EndSplineSet
EndChar

StartChar: K
Encoding: 75 75 46
Width: 672
GlyphClass: 2
Flags: MW
HStem: 0.0595703 21G<75.9082 192.067 75.9082 75.9082 546.271 685.837 546.271 546.271> 671.26 20G<75.9082 192.067 192.067 192.067 512.151 661.048 661.048 661.048>
VStem: 75.9082 116.159<0.0595703 190.199 343.226 691.26>
LayerCount: 2
Fore
SplineSet
546.270507812 0.0595703125 m 1
 325.486328125 332.170898438 l 1
 192.067382812 190.19921875 l 1
 192.067382812 0.0595703125 l 1
 75.908203125 0.0595703125 l 1
 75.908203125 691.259765625 l 1
 192.067382812 691.259765625 l 1
 192.067382812 343.225585938 l 1
 512.151367188 691.259765625 l 1
 661.047851562 691.259765625 l 1
 403.404296875 415.286132812 l 1
 685.836914062 0.0595703125 l 1
 546.270507812 0.0595703125 l 1
EndSplineSet
EndChar

StartChar: L
Encoding: 76 76 47
Width: 583
GlyphClass: 2
Flags: MW
HStem: 0.0595703 106.561<192.067 563.588 192.067 563.588> 671.26 20G<75.9082 192.067 192.067 192.067>
VStem: 75.9082 116.159<106.62 691.26 106.62 691.26 106.62 691.26>
LayerCount: 2
Fore
SplineSet
75.908203125 691.259765625 m 1
 192.067382812 691.259765625 l 1
 192.067382812 106.620117188 l 1
 563.587890625 106.620117188 l 1
 563.587890625 0.0595703125 l 1
 75.908203125 0.0595703125 l 1
 75.908203125 691.259765625 l 1
EndSplineSet
EndChar

StartChar: M
Encoding: 77 77 48
Width: 823
GlyphClass: 2
Flags: MW
HStem: 0.0595703 21G<75.9082 192.067 75.9082 75.9082 645.188 760.388 645.188 645.188> 671.26 20G<75.9082 186.106 186.106 186.106 651.149 760.388 760.388 760.388>
VStem: 75.9082 116.159<0.0595703 461.141 0.0595703 691.26> 645.188 115.2<0.0595703 461.141 461.141 461.141>
LayerCount: 2
Fore
SplineSet
760.387695312 691.259765625 m 1
 760.387695312 0.0595703125 l 1
 645.1875 0.0595703125 l 1
 645.1875 461.140625 l 1
 457.723632812 131.580078125 l 1
 379.532226562 131.580078125 l 1
 192.067382812 461.140625 l 1
 192.067382812 0.0595703125 l 1
 75.908203125 0.0595703125 l 1
 75.908203125 691.259765625 l 1
 186.106445312 691.259765625 l 1
 418.627929688 276.2421875 l 1
 651.149414062 691.259765625 l 1
 760.387695312 691.259765625 l 1
EndSplineSet
EndChar

StartChar: N
Encoding: 78 78 49
Width: 720
GlyphClass: 2
Flags: MW
HStem: 0.0595703 21G<75.9082 192.067 75.9082 75.9082 549.61 658.628 549.61 549.61> 671.26 20G<75.9082 184.934 184.934 184.934 542.468 658.628 658.628 658.628>
VStem: 75.9082 116.159<0.0595703 483.421 0.0595703 691.26> 542.468 116.16<207.005 691.26 0.0595703 691.26>
LayerCount: 2
Fore
SplineSet
658.627929688 691.259765625 m 1
 658.627929688 0.0595703125 l 1
 549.610351562 0.0595703125 l 1
 192.067382812 483.420898438 l 1
 192.067382812 0.0595703125 l 1
 75.908203125 0.0595703125 l 1
 75.908203125 691.259765625 l 1
 184.93359375 691.259765625 l 1
 542.467773438 207.004882812 l 1
 542.467773438 691.259765625 l 1
 658.627929688 691.259765625 l 1
EndSplineSet
EndChar

StartChar: O
Encoding: 79 79 50
Width: 695
GlyphClass: 2
Flags: MW
HStem: -8.58008 107.521<309.144 399.782> 593.34 107.521<325.489 402.352 311.713 415.912>
VStem: 65.3477 116.16<297.66 389.82 224.358 394.62 224.358 444.076> 530.948 115.199<296.701 297.66 297.66 389.821 389.821 394.62 248.205 460.014>
LayerCount: 2
Fore
SplineSet
65.34765625 297.66015625 m 2
 65.34765625 394.620117188 l 2
 65.34765625 493.53125 90.111328125 570.576171875 141.98046875 623.1328125 c 0
 193.622070312 675.458007812 266.239257812 700.860351562 357.1875 700.860351562 c 0
 447.515625 700.860351562 519.538085938 675.4375 570.54296875 623.063476562 c 0
 621.739257812 570.494140625 646.147460938 493.495117188 646.147460938 394.620117188 c 2
 646.147460938 297.66015625 l 2
 646.147460938 198.749023438 621.384765625 121.704101562 569.515625 69.1474609375 c 0
 517.874023438 16.8212890625 445.255859375 -8.580078125 354.307617188 -8.580078125 c 0
 263.979492188 -8.580078125 191.95703125 16.8427734375 140.952148438 69.216796875 c 0
 89.7568359375 121.786132812 65.34765625 198.78515625 65.34765625 297.66015625 c 2
356.227539062 98.9404296875 m 0
 473.196289062 98.9404296875 530.948242188 158.583007812 530.948242188 296.701171875 c 2
 530.948242188 389.821289062 l 2
 530.948242188 530.20703125 475.595703125 593.33984375 356.227539062 593.33984375 c 0
 294.750976562 593.33984375 251.966796875 576.604492188 224.470703125 545.422851562 c 0
 196.889648438 514.14453125 181.5078125 462.934570312 181.5078125 389.8203125 c 2
 181.5078125 296.700195312 l 2
 181.5078125 152.016601562 244.143554688 98.9404296875 356.227539062 98.9404296875 c 0
EndSplineSet
EndChar

StartChar: P
Encoding: 80 80 51
Width: 638
GlyphClass: 2
Flags: MW
HStem: 0.0595703 21G<75.9072 192.067 75.9072 75.9072> 265.98 106.56<192.067 377.347 192.067 192.067> 584.7 106.56<192.066 373.506 192.066 192.066>
VStem: 75.9072 116.16<0.0595703 265.98 0.0595703 691.26> 503.106 116.159<457.581 497.787>
LayerCount: 2
Fore
SplineSet
377.346679688 691.259765625 m 2
 420.299804688 691.259765625 619.265625 690.237304688 619.265625 478.139648438 c 0
 619.265625 433.875976562 613.20703125 265.98046875 377.346679688 265.98046875 c 2
 192.067382812 265.98046875 l 1
 192.067382812 0.0595703125 l 1
 75.9072265625 0.0595703125 l 1
 75.9072265625 691.259765625 l 1
 377.346679688 691.259765625 l 2
503.106445312 477.1796875 m 0
 503.106445312 518.393554688 492.272460938 544.522460938 473.828125 559.637695312 c 0
 454.787109375 575.240234375 421.84375 584.700195312 373.505859375 584.700195312 c 2
 192.06640625 584.700195312 l 1
 192.06640625 372.540039062 l 1
 379.265625 372.540039062 l 2
 424.9296875 372.540039062 456.151367188 381.895507812 474.633789062 397.474609375 c 0
 492.672851562 412.678710938 503.106445312 437.982421875 503.106445312 477.1796875 c 0
EndSplineSet
EndChar

StartChar: Q
Encoding: 81 81 52
Width: 695
GlyphClass: 2
Flags: MW
HStem: -8.58008 107.521<309.144 370.802> 593.34 107.521<325.489 402.352 311.713 415.912>
VStem: 65.3477 116.16<297.66 389.82 224.358 394.62 224.358 444.076> 530.948 115.199<296.7 297.66 297.66 389.82 389.82 394.62 240.263 460.013>
LayerCount: 2
Fore
SplineSet
65.34765625 297.66015625 m 2
 65.34765625 394.620117188 l 2
 65.34765625 493.53125 90.111328125 570.576171875 141.98046875 623.1328125 c 0
 193.622070312 675.458007812 266.239257812 700.860351562 357.1875 700.860351562 c 0
 447.515625 700.860351562 519.538085938 675.4375 570.54296875 623.063476562 c 0
 621.739257812 570.494140625 646.147460938 493.495117188 646.147460938 394.620117188 c 2
 646.147460938 297.66015625 l 2
 646.147460938 182.865234375 612.190429688 97.23828125 541.995117188 45.46875 c 1
 619.541015625 -99.931640625 l 1
 526.008789062 -149.990234375 l 1
 444.91796875 1.4453125 l 1
 417.505859375 -5.2861328125 387.296875 -8.580078125 354.307617188 -8.580078125 c 0
 263.979492188 -8.580078125 191.95703125 16.8427734375 140.952148438 69.216796875 c 0
 89.7568359375 121.786132812 65.34765625 198.78515625 65.34765625 297.66015625 c 2
356.227539062 98.9404296875 m 0
 473.2578125 98.9404296875 530.948242188 158.65234375 530.948242188 296.700195312 c 2
 530.948242188 389.8203125 l 2
 530.948242188 530.206054688 475.596679688 593.33984375 356.227539062 593.33984375 c 0
 294.750976562 593.33984375 251.966796875 576.604492188 224.470703125 545.422851562 c 0
 196.889648438 514.14453125 181.5078125 462.934570312 181.5078125 389.8203125 c 2
 181.5078125 296.700195312 l 2
 181.5078125 152.016601562 244.143554688 98.9404296875 356.227539062 98.9404296875 c 0
EndSplineSet
EndChar

StartChar: R
Encoding: 82 82 53
Width: 666
GlyphClass: 2
Flags: MW
HStem: 0.0595703 21G<75.9082 192.067 75.9082 75.9082 515.695 648.729 515.695 515.695> 282.299 104.641<192.067 220.246> 584.699 106.56<192.067 375.428 192.067 192.067>
VStem: 75.9082 116.159<0.0595703 282.299 0.0595703 386.939 386.939 584.699> 503.107 116.16<457.586 511.103>
LayerCount: 2
Fore
SplineSet
619.267578125 486.779296875 m 0
 619.267578125 426.3984375 599.208007812 331.82421875 481.600585938 296.201171875 c 1
 648.729492188 0.0595703125 l 1
 515.6953125 0.0595703125 l 1
 361.134765625 282.299804688 l 1
 304.779296875 282.299804688 248.423828125 282.298828125 192.067382812 282.298828125 c 1
 192.067382812 0.0595703125 l 1
 75.908203125 0.0595703125 l 1
 75.908203125 691.258789062 l 1
 379.267578125 691.258789062 l 2
 454.256835938 691.258789062 513.7890625 674.547851562 556.060546875 638.913085938 c 0
 598.537109375 603.10546875 619.267578125 551.2890625 619.267578125 486.779296875 c 0
503.107421875 486.779296875 m 0
 503.107421875 535.426757812 485.594726562 584.69921875 375.427734375 584.69921875 c 2
 192.067382812 584.69921875 l 1
 192.067382812 386.939453125 l 1
 381.1875 386.939453125 l 2
 479.013671875 386.939453125 503.107421875 428.393554688 503.107421875 486.779296875 c 0
EndSplineSet
EndChar

StartChar: S
Encoding: 83 83 54
Width: 613
GlyphClass: 2
Flags: MW
HStem: -5.7002 103.679<284.367 349.179> 597.18 102.721<284.689 361.17 271.372 379.402>
VStem: 51.9053 113.282<484.147 518.728 484.147 528.965> 467.585 115.203<181.04 217.958>
LayerCount: 2
Fore
SplineSet
311.10546875 97.978515625 m 0
 459.28515625 97.978515625 467.584960938 164.260742188 467.584960938 197.818359375 c 0
 467.584960938 238.096679688 453.020507812 282.916015625 346.838867188 294.87890625 c 2
 257.47265625 305.450195312 l 2
 194.754882812 313.250976562 51.9052734375 340.770507812 51.9052734375 497.33984375 c 0
 51.9052734375 560.590820312 75.6806640625 611.782226562 122.903320312 647.545898438 c 0
 169.728515625 683.008789062 232.59765625 699.900390625 310.145507812 699.900390625 c 0
 412.194335938 699.900390625 552.75390625 668.395507812 570.23046875 498.831054688 c 2
 571.868164062 482.940429688 l 1
 458.17578125 482.940429688 l 1
 454.381835938 528.475585938 448.657226562 597.1796875 310.147460938 597.1796875 c 0
 259.23046875 597.1796875 222.533203125 587.940429688 199.275390625 571.881835938 c 0
 176.337890625 556.044921875 165.1875 534.35546875 165.1875 503.099609375 c 0
 165.1875 465.1953125 180.201171875 424.038085938 281.186523438 410.833984375 c 2
 374.452148438 400.2578125 l 2
 439.323242188 391.671875 582.788085938 362.15234375 582.788085938 203.580078125 c 0
 582.788085938 137.696289062 557.64453125 84.6728515625 507.791992188 47.9755859375 c 0
 458.340820312 11.57421875 391.090820312 -5.7001953125 307.267578125 -5.7001953125 c 0
 254.280273438 -5.7001953125 50.9365234375 -2.6220703125 36.5810546875 204.490234375 c 2
 35.5126953125 219.8984375 l 1
 148.594726562 219.8984375 l 1
 151.416015625 188.396484375 154.91015625 149.376953125 192.778320312 124.409179688 c 0
 218.403320312 107.512695312 257.62890625 97.978515625 311.10546875 97.978515625 c 0
EndSplineSet
EndChar

StartChar: T
Encoding: 84 84 55
Width: 554
GlyphClass: 2
Flags: MW
HStem: 0.0595703 21G<227.588 342.788 227.588 227.588> 584.7 106.56<13.5078 227.588 13.5078 556.868 342.788 342.788 342.788 556.868>
VStem: 227.588 115.2<0.0595703 584.7 0.0595703 584.7>
LayerCount: 2
Fore
SplineSet
227.587890625 584.700195312 m 1
 13.5078125 584.700195312 l 1
 13.5078125 691.259765625 l 1
 556.868164062 691.259765625 l 1
 556.868164062 584.700195312 l 1
 342.788085938 584.700195312 l 1
 342.788085938 0.0595703125 l 1
 227.587890625 0.0595703125 l 1
 227.587890625 584.700195312 l 1
EndSplineSet
EndChar

StartChar: U
Encoding: 85 85 56
Width: 692
GlyphClass: 2
Flags: MW
HStem: -5.7002 105.601<310.855 395.841> 671.26 20G<75.9082 192.067 192.067 192.067 514.628 630.788 630.788 630.788>
VStem: 75.9082 116.159<251.58 257.34 257.34 691.26> 514.628 116.16<257.34 691.26>
LayerCount: 2
Fore
SplineSet
353.34765625 99.900390625 m 0
 473.571289062 99.900390625 514.627929688 162.240234375 514.627929688 257.33984375 c 2
 514.627929688 691.259765625 l 1
 630.788085938 691.259765625 l 1
 630.788085938 251.580078125 l 2
 630.788085938 171.8515625 606.383789062 107.666992188 556.516601562 61.9267578125 c 0
 506.78515625 16.3115234375 438.333984375 -5.7001953125 353.34765625 -5.7001953125 c 0
 268.362304688 -5.7001953125 199.911132812 16.3115234375 150.1796875 61.9267578125 c 0
 100.3125 107.666992188 75.908203125 171.8515625 75.908203125 251.580078125 c 2
 75.908203125 691.259765625 l 1
 192.067382812 691.259765625 l 1
 192.067382812 257.33984375 l 2
 192.067382812 162.280273438 233.086914062 99.900390625 353.34765625 99.900390625 c 0
EndSplineSet
EndChar

StartChar: V
Encoding: 86 86 57
Width: 607
GlyphClass: 2
Flags: MW
HStem: 0.0595703 21G<266.583 359.514 266.583 266.583> 671.26 20G<6.13086 128.29 128.29 128.29 494.835 616.961 616.961 616.961>
LayerCount: 2
Fore
SplineSet
6.130859375 691.259765625 m 1
 128.290039062 691.259765625 l 1
 312.926757812 175.55078125 l 1
 494.834960938 691.259765625 l 1
 616.9609375 691.259765625 l 1
 359.513671875 0.0595703125 l 1
 266.583007812 0.0595703125 l 1
 6.130859375 691.259765625 l 1
EndSplineSet
EndChar

StartChar: W
Encoding: 87 87 58
Width: 907
GlyphClass: 2
Flags: MW
HStem: 0.0595703 21G<208.126 318.203 208.126 208.126 605.453 715.59 605.453 605.453> 671.26 20G<7.77832 124.242 124.242 124.242 395.987 526.575 526.575 526.575 797.344 911.931 911.931 911.931>
LayerCount: 2
Fore
SplineSet
605.453125 0.0595703125 m 1
 461.828125 514.791015625 l 1
 318.203125 0.0595703125 l 1
 208.125976562 0.0595703125 l 1
 7.7783203125 691.259765625 l 1
 124.2421875 691.259765625 l 1
 265.442382812 192.172851562 l 1
 395.987304688 691.259765625 l 1
 526.575195312 691.259765625 l 1
 663.291015625 192.336914062 l 1
 797.34375 691.259765625 l 1
 911.930664062 691.259765625 l 1
 715.58984375 0.0595703125 l 1
 605.453125 0.0595703125 l 1
EndSplineSet
EndChar

StartChar: X
Encoding: 88 88 59
Width: 649
GlyphClass: 2
Flags: MW
HStem: 0.0595703 21G<-1.51367 -1.51367 -1.51367 135.147 526.53 526.53 526.53 665.894> 671.26 20G<18.6748 158.114 158.114 158.114 506.295 642.915 642.915 642.915>
LayerCount: 2
Fore
SplineSet
-1.513671875 0.0595703125 m 1
 262.520507812 359.107421875 l 1
 18.6748046875 691.259765625 l 1
 158.114257812 691.259765625 l 1
 333.125976562 450.849609375 l 1
 506.294921875 691.259765625 l 1
 642.915039062 691.259765625 l 1
 400.963867188 361.963867188 l 1
 665.893554688 0.0595703125 l 1
 526.530273438 0.0595703125 l 1
 328.525390625 270.234375 l 1
 135.147460938 0.0595703125 l 1
 -1.513671875 0.0595703125 l 1
EndSplineSet
EndChar

StartChar: Y
Encoding: 89 89 60
Width: 583
GlyphClass: 2
Flags: MW
HStem: 0.0595703 21G<241.988 357.188 241.988 241.988> 671.26 20G<1.91602 133.411 133.411 133.411 465.72 597.229 597.229 597.229>
VStem: 241.988 115.199<0.0595703 277.465 0.0595703 278.417 0.0595703 278.417>
LayerCount: 2
Fore
SplineSet
465.719726562 691.259765625 m 1
 597.228515625 691.259765625 l 1
 357.1875 277.46484375 l 1
 357.1875 0.0595703125 l 1
 241.98828125 0.0595703125 l 1
 241.98828125 278.416992188 l 1
 1.916015625 691.259765625 l 1
 133.411132812 691.259765625 l 1
 300.478515625 385.42578125 l 1
 465.719726562 691.259765625 l 1
EndSplineSet
EndChar

StartChar: Z
Encoding: 90 90 61
Width: 575
GlyphClass: 2
Flags: MW
HStem: 1.02051 106.56<186.088 552.067 186.088 552.067> 585.66 106.56<53.8281 403.444 53.8281 547.268>
LayerCount: 2
Fore
SplineSet
552.067382812 107.580078125 m 1
 552.067382812 1.0205078125 l 1
 41.34765625 1.0205078125 l 1
 41.34765625 97.9384765625 l 1
 403.444335938 585.66015625 l 1
 53.828125 585.66015625 l 1
 53.828125 692.219726562 l 1
 547.267578125 692.219726562 l 1
 547.267578125 595.311523438 l 1
 186.087890625 107.580078125 l 1
 552.067382812 107.580078125 l 1
EndSplineSet
EndChar

StartChar: bracketleft
Encoding: 91 91 62
Width: 334
GlyphClass: 2
Flags: MW
HStem: -80.5801 106.561<187.268 295.748 187.268 295.748> 632.7 106.56<187.268 295.748 187.268 187.268>
VStem: 75.9082 111.359<25.9805 632.7 25.9805 739.26 25.9805 739.26> 75.9082 219.84<-80.5801 25.9805 632.7 739.26>
LayerCount: 2
Fore
SplineSet
75.908203125 739.259765625 m 1xd0
 295.748046875 739.259765625 l 1
 295.748046875 632.700195312 l 1xd0
 187.267578125 632.700195312 l 1
 187.267578125 25.98046875 l 1xe0
 295.748046875 25.98046875 l 1
 295.748046875 -80.580078125 l 1
 75.908203125 -80.580078125 l 1
 75.908203125 739.259765625 l 1xd0
EndSplineSet
Substitution2: "'rtla' Right to Left Alternates lookup 0 subtable" bracketright
EndChar

StartChar: backslash
Encoding: 92 92 63
Width: 436
GlyphClass: 2
Flags: MW
HStem: -9.54004 21G<301.921 402.592 301.921 301.921> 673.18 20G<50.6631 151.335 151.335 151.335>
LayerCount: 2
Fore
SplineSet
50.6630859375 693.1796875 m 1
 151.334960938 693.1796875 l 1
 402.591796875 -9.5400390625 l 1
 301.920898438 -9.5400390625 l 1
 50.6630859375 693.1796875 l 1
EndSplineSet
EndChar

StartChar: bracketright
Encoding: 93 93 64
Width: 334
GlyphClass: 2
Flags: MW
HStem: -80.5801 106.561<56.708 164.228 56.708 276.548 56.708 164.228> 632.7 106.56<56.708 164.228 56.708 276.548>
VStem: 56.708 219.84<-80.5801 25.9805 25.9805 25.9805 632.7 739.26 -80.5801 739.26> 164.228 112.32<25.9805 632.7 632.7 632.7>
LayerCount: 2
Fore
SplineSet
164.227539062 632.700195312 m 1xd0
 56.7080078125 632.700195312 l 1
 56.7080078125 739.259765625 l 1
 276.547851562 739.259765625 l 1
 276.547851562 -80.580078125 l 1
 56.7080078125 -80.580078125 l 1
 56.7080078125 25.98046875 l 1xe0
 164.227539062 25.98046875 l 1
 164.227539062 632.700195312 l 1xd0
EndSplineSet
Substitution2: "'rtla' Right to Left Alternates lookup 0 subtable" bracketleft
EndChar

StartChar: asciicircum
Encoding: 94 94 65
Width: 514
GlyphClass: 2
Flags: MW
HStem: 673.18 20G<220.816 310.199 310.199 310.199>
LayerCount: 2
Fore
SplineSet
220.81640625 693.1796875 m 1
 310.19921875 693.1796875 l 1
 484.28125 269.8203125 l 1
 383.005859375 269.8203125 l 1
 265.078125 560.6484375 l 1
 148.038085938 269.8203125 l 1
 46.734375 269.8203125 l 1
 220.81640625 693.1796875 l 1
EndSplineSet
EndChar

StartChar: underscore
Encoding: 95 95 66
Width: 541
GlyphClass: 2
Flags: MW
HStem: -104.58 85.4404<6.78809 551.107 6.78809 551.107>
LayerCount: 2
Fore
SplineSet
6.7880859375 -19.1396484375 m 1
 551.107421875 -19.1396484375 l 1
 551.107421875 -104.580078125 l 1
 6.7880859375 -104.580078125 l 1
 6.7880859375 -19.1396484375 l 1
EndSplineSet
EndChar

StartChar: grave
Encoding: 96 96 67
Width: 506
GlyphClass: 2
Flags: MW
HStem: 553.98 151.68<76.4365 363.56 76.4365 247.077>
VStem: 76.4365 287.123<553.98 705.66>
LayerCount: 2
Fore
SplineSet
76.4365234375 705.66015625 m 1
 227.28515625 705.66015625 l 1
 363.559570312 553.98046875 l 1
 247.077148438 553.98046875 l 1
 76.4365234375 705.66015625 l 1
EndSplineSet
EndChar

StartChar: a
Encoding: 97 97 68
Width: 553
GlyphClass: 2
Flags: MW
HStem: -5.7002 95.04<213.195 273.971> 223.741 90.2393<249.667 263.106 263.106 387.906> 430.14 96.96<247.7 306.995 240.643 322.171>
VStem: 47.1064 109.44<142.811 171.586 142.811 185.003> 63.4277 108.48<346.62 363.9 346.62 388.869> 387.906 110.4<199.741 223.741 223.741 223.741>
LayerCount: 2
Fore
SplineSet
272.70703125 430.139648438 m 0xf4
 222.692382812 430.139648438 171.908203125 417.053710938 171.908203125 363.900390625 c 2
 171.908203125 346.620117188 l 1
 63.427734375 346.620117188 l 1
 63.427734375 363.900390625 l 2xec
 63.427734375 413.836914062 82.8134765625 455.009765625 120.904296875 484.284179688 c 0
 158.78125 513.393554688 209.537109375 527.099609375 271.748046875 527.099609375 c 0
 342.241210938 527.099609375 398.374023438 511.51953125 438.397460938 478.166992188 c 0
 478.676757812 444.600585938 498.306640625 395.786132812 498.306640625 335.099609375 c 2
 498.306640625 0.0595703125 l 1
 389.827148438 0.0595703125 l 1
 389.827148438 36.2412109375 l 1
 353.318359375 7.8671875 304.03515625 -5.7001953125 243.907226562 -5.7001953125 c 0
 182.483398438 -5.7001953125 133.635742188 7.2275390625 98.9833984375 35.44921875 c 0
 64.10546875 63.8544921875 47.1064453125 105.369140625 47.1064453125 156.540039062 c 0
 47.1064453125 213.465820312 72.23046875 313.98046875 249.666992188 313.98046875 c 2
 387.907226562 313.98046875 l 1
 387.907226562 333.1796875 l 2
 387.907226562 379.3671875 371.634765625 430.139648438 272.70703125 430.139648438 c 0xf4
260.2265625 89.33984375 m 0
 356.891601562 89.33984375 387.90625 130.501953125 387.90625 199.741210938 c 2
 387.90625 223.741210938 l 1
 263.106445312 223.741210938 l 2
 164.541015625 223.741210938 156.546875 185.672851562 156.546875 157.5 c 0xf4
 156.546875 128.12109375 164.995117188 89.33984375 260.2265625 89.33984375 c 0
EndSplineSet
EndChar

StartChar: b
Encoding: 98 98 69
Width: 583
GlyphClass: 2
Flags: MW
HStem: -8.58008 100.799<303.652 343.31 290.187 355.253> 0.0595703 21G<71.1074 180.548 71.1074 71.1074> 428.218 101.763<288.612 355.253 287.191 359.827> 671.26 20G<71.1074 181.508 181.508 181.508>
VStem: 71.1074 110.4<478.475 478.475 478.475 691.26> 432.066 110.401<239.099 283.258 283.258 287.1 197.278 319.217>
LayerCount: 2
Fore
SplineSet
181.5078125 478.474609375 m 1x7c
 206.592773438 501.651367188 251.754882812 529.98046875 322.627929688 529.98046875 c 0
 387.877929688 529.98046875 441.984375 508.752929688 482.381835938 465.938476562 c 0
 523.041992188 422.845703125 542.467773438 362.453125 542.467773438 287.099609375 c 2
 542.467773438 235.259765625 l 2
 542.467773438 159.296875 523.067382812 98.58203125 482.381835938 55.4619140625 c 0
 441.984375 12.6474609375 387.877929688 -8.580078125 322.627929688 -8.580078125 c 0xbc
 284.67578125 -8.580078125 226.940429688 -2.0009765625 180.547851562 39.87890625 c 1
 180.547851562 0.0595703125 l 1
 71.107421875 0.0595703125 l 1
 71.107421875 691.259765625 l 1
 181.5078125 691.259765625 l 1
 181.5078125 478.474609375 l 1x7c
311.106445312 92.21875 m 0
 375.512695312 92.21875 432.06640625 124.768554688 432.06640625 239.098632812 c 2
 432.06640625 283.2578125 l 2
 432.06640625 355.17578125 410.46875 428.217773438 309.185546875 428.217773438 c 0
 268.0390625 428.217773438 237.755859375 415.885742188 215.57421875 392.01953125 c 0
 193.240234375 367.989257812 181.505859375 335.342773438 181.505859375 291.8984375 c 2
 181.505859375 227.578125 l 2
 181.505859375 184.86328125 193.325195312 152.567382812 215.9921875 128.484375 c 0
 238.470703125 104.6015625 269.266601562 92.21875 311.106445312 92.21875 c 0
EndSplineSet
EndChar

StartChar: c
Encoding: 99 99 70
Width: 558
GlyphClass: 2
Flags: MW
HStem: -8.58008 100.8<263.096 307.006 263.096 330.171> 428.22 101.761<262.746 329.213 259.212 344.136>
VStem: 56.709 110.398<236.22 238.14 238.14 283.26 178.283 285.18 178.283 323.852> 408.067 108.48<182.46 200.7 153.602 200.7 317.82 337.02>
LayerCount: 2
Fore
SplineSet
296.708007812 92.2197265625 m 0
 317.303710938 92.2197265625 408.067382812 93.1875 408.067382812 182.459960938 c 2
 408.067382812 200.700195312 l 1
 516.547851562 200.700195312 l 1
 516.547851562 182.459960938 l 2
 516.547851562 124.744140625 496.916015625 77.134765625 457.389648438 42.505859375 c 0
 417.856445312 7.8701171875 363.633789062 -8.580078125 296.708007812 -8.580078125 c 0
 223.029296875 -8.580078125 163.44921875 12.0244140625 120.489257812 54.638671875 c 0
 77.326171875 97.453125 56.708984375 158.875976562 56.708984375 236.219726562 c 2
 56.708984375 285.1796875 l 2
 56.708984375 362.524414062 77.3271484375 423.947265625 120.490234375 466.76171875 c 0
 163.421875 509.34765625 222.67578125 529.98046875 295.748046875 529.98046875 c 0
 362.678710938 529.98046875 417.032226562 513.525390625 456.862304688 478.935546875 c 0
 496.803710938 444.25 516.547851562 395.950195312 516.547851562 337.01953125 c 2
 516.547851562 317.8203125 l 1
 408.067382812 317.8203125 l 1
 408.067382812 337.01953125 l 2
 408.067382812 374.446289062 391.563476562 428.219726562 296.708007812 428.219726562 c 0
 228.783203125 428.219726562 167.107421875 401.57421875 167.107421875 283.259765625 c 2
 167.107421875 238.139648438 l 2
 167.107421875 118.426757812 229.483398438 92.2197265625 296.708007812 92.2197265625 c 0
EndSplineSet
EndChar

StartChar: d
Encoding: 100 100 71
Width: 583
GlyphClass: 2
Flags: MW
HStem: -8.58008 100.8<241.724 310.62> 0.0595703 21G<417.668 527.107 417.668 417.668> 428.22 101.761<251.645 290.732 240.682 309.973> 671.26 20G<417.668 527.107 527.107 527.107>
VStem: 56.709 110.399<234.3 238.14 238.14 282.3 212.48 287.1 212.48 324.752> 417.668 109.439<0.0595703 40.3262 40.3262 40.3262 478.536 691.26 0.0595703 691.26>
LayerCount: 2
Fore
SplineSet
417.66796875 40.326171875 m 1x7c
 391.39453125 16.5380859375 346.611328125 -8.580078125 274.627929688 -8.580078125 c 0xbc
 208.819335938 -8.580078125 154.790039062 12.431640625 115.265625 55.076171875 c 0
 75.560546875 97.916015625 56.708984375 158.413085938 56.708984375 234.299804688 c 2
 56.708984375 287.099609375 l 2
 56.708984375 362.405273438 75.7724609375 422.741210938 115.75 465.846679688 c 0
 155.470703125 508.676757812 208.65625 529.98046875 272.708007812 529.98046875 c 0
 308.756835938 529.98046875 368.774414062 522.310546875 417.66796875 478.536132812 c 1
 417.66796875 691.259765625 l 1
 527.107421875 691.259765625 l 1
 527.107421875 0.0595703125 l 1
 417.66796875 0.0595703125 l 1
 417.66796875 40.326171875 l 1x7c
167.108398438 238.139648438 m 2
 167.108398438 186.821289062 177.40234375 92.2197265625 289.989257812 92.2197265625 c 0
 331.8828125 92.2197265625 362.297851562 104.48046875 384.076171875 127.93359375 c 0
 406.057617188 151.606445312 417.668945312 184.090820312 417.668945312 227.580078125 c 2
 417.668945312 291.900390625 l 2
 417.668945312 336.040039062 405.891601562 368.797851562 383.658203125 392.439453125 c 0
 361.540039062 415.958007812 330.916992188 428.219726562 289.028320312 428.219726562 c 0
 214.260742188 428.219726562 167.108398438 386.793945312 167.108398438 282.299804688 c 2
 167.108398438 238.139648438 l 2
EndSplineSet
EndChar

StartChar: e
Encoding: 101 101 72
Width: 561
GlyphClass: 2
Flags: MW
HStem: -8.58008 99.8398<263.941 319.312 263.941 367.557> 225.66 90.2402<167.285 408.957 168.307 408.957 168.307 519.428> 429.18 100.801<253.353 323.962 253.353 344.124>
VStem: 56.708 110.577<225.66 280.38 225.66 319.32> 407.107 109.44<170.161 187.26 168.715 187.26>
LayerCount: 2
Fore
SplineSet
167.28515625 225.66015625 m 1
 170.840820312 122.220703125 226.375 91.259765625 301.506835938 91.259765625 c 0
 337.116210938 91.259765625 362.688476562 99.5634765625 380.053710938 114.256835938 c 0
 397.90234375 129.359375 406.522460938 147.244140625 407.107421875 170.161132812 c 2
 407.107421875 187.259765625 l 1
 516.547851562 187.259765625 l 1
 516.547851562 168.71484375 l 2
 514.515625 71.22265625 435.525390625 -8.580078125 299.587890625 -8.580078125 c 0
 225.243164062 -8.580078125 165.026367188 12.3662109375 121.448242188 55.5986328125 c 0
 77.6162109375 99.083984375 56.7080078125 161.790039062 56.7080078125 241.020507812 c 2
 56.7080078125 280.379882812 l 2
 56.7080078125 358.260742188 76.5859375 420.420898438 118.241210938 464.505859375 c 0
 159.828125 508.518554688 217.677734375 529.98046875 289.028320312 529.98046875 c 0
 358.895507812 529.98046875 415.850585938 510.31640625 457.477539062 469.729492188 c 0
 499.361328125 428.892578125 519.427734375 370.620117188 519.427734375 297.66015625 c 2
 519.427734375 225.66015625 l 1
 167.28515625 225.66015625 l 1
408.95703125 315.900390625 m 1
 408.06640625 352.482421875 399.220703125 429.1796875 289.026367188 429.1796875 c 0
 196.297851562 429.1796875 173.962890625 367.608398438 168.306640625 315.900390625 c 1
 408.95703125 315.900390625 l 1
EndSplineSet
EndChar

StartChar: f
Encoding: 102 102 73
Width: 374
GlyphClass: 2
Flags: MW
HStem: 0.0595703 21G<119.107 229.508 119.107 119.107> 430.14 90.2402<49.9883 119.107 49.9883 119.107 229.508 352.388> 601.98 89.2793<279.428 292.868 292.868 352.388>
VStem: 119.107 110.4<0.0595703 430.14 0.0595703 430.14 520.38 540.54 540.54 543.42>
LayerCount: 2
Fore
SplineSet
292.868164062 601.98046875 m 2
 245.032226562 601.98046875 229.5078125 582.826171875 229.5078125 543.419921875 c 2
 229.5078125 520.379882812 l 1
 352.387695312 520.379882812 l 1
 352.387695312 430.139648438 l 1
 229.5078125 430.139648438 l 1
 229.5078125 0.0595703125 l 1
 119.107421875 0.0595703125 l 1
 119.107421875 430.139648438 l 1
 49.98828125 430.139648438 l 1
 49.98828125 520.379882812 l 1
 119.107421875 520.379882812 l 1
 119.107421875 540.540039062 l 2
 119.107421875 587.372070312 132.563476562 625.616210938 161.112304688 652.333984375 c 0
 189.591796875 678.987304688 229.8046875 691.259765625 279.427734375 691.259765625 c 2
 352.387695312 691.259765625 l 1
 352.387695312 601.98046875 l 1
 292.868164062 601.98046875 l 2
EndSplineSet
EndChar

StartChar: g
Encoding: 103 103 74
Width: 583
GlyphClass: 2
Flags: MW
HStem: -153.54 97.918<270.49 340.421 270.49 370.044> 14.459 101.761<269.055 305.388 269.055 314.386> 429.18 100.8<243.308 290.561 240.4 309.971> 500.379 20G<417.667 527.106 527.106 527.106>
VStem: 56.707 110.399<251.579 256.38 256.38 284.22 231.832 289.02 231.832 326.352> 417.667 109.439<50.9395 56.6992 56.6992 63.6729 63.6729 63.6729 249.66 294.78 294.78 316.16 479.404 520.379>
LayerCount: 2
Fore
SplineSet
527.106445312 56.69921875 m 2xdc
 527.106445312 -66.96875 452.020507812 -153.540039062 288.067382812 -153.540039062 c 0
 223.637695312 -153.540039062 171.624023438 -141.666015625 132.810546875 -116.139648438 c 0
 93.5576171875 -90.3251953125 71.470703125 -51.255859375 67.318359375 -2.126953125 c 2
 65.998046875 13.4990234375 l 1
 172.666992188 13.4990234375 l 1
 178.129882812 -8.9609375 182.478515625 -26.83984375 207.6015625 -40.5791015625 c 0
 224.80859375 -49.9892578125 251.953125 -55.6220703125 289.02734375 -55.6220703125 c 0
 391.815429688 -55.6220703125 417.666992188 -10.263671875 417.666992188 50.939453125 c 2
 417.666992188 63.6728515625 l 1
 397.470703125 45.0673828125 354.145507812 14.458984375 274.626953125 14.458984375 c 0
 209.474609375 14.458984375 155.690429688 35.1240234375 115.869140625 77.0224609375 c 0
 75.837890625 119.142578125 56.70703125 178.118164062 56.70703125 251.579101562 c 2
 56.70703125 289.01953125 l 2
 56.70703125 363.684570312 75.6103515625 423.538085938 115.264648438 466.323242188 c 0
 154.724609375 508.8984375 208.092773438 529.979492188 272.70703125 529.979492188 c 0xec
 308.415039062 529.979492188 369.078125 522.614257812 417.666992188 479.404296875 c 1
 417.666992188 520.37890625 l 1
 527.106445312 520.37890625 l 1
 527.106445312 56.69921875 l 2xdc
289.02734375 116.219726562 m 0
 321.749023438 116.219726562 417.666992188 121.274414062 417.666992188 249.66015625 c 2
 417.666992188 294.780273438 l 2
 417.666992188 337.540039062 405.970703125 369.671875 383.657226562 393.399414062 c 0
 361.538085938 416.91796875 330.915039062 429.1796875 289.02734375 429.1796875 c 0
 197.588867188 429.1796875 167.106445312 367.055664062 167.106445312 284.219726562 c 2
 167.106445312 256.379882812 l 2
 167.106445312 207.283203125 178.658203125 172.743164062 199.2734375 150.478515625 c 0
 220.110351562 127.975585938 249.08203125 116.219726562 289.02734375 116.219726562 c 0
EndSplineSet
EndChar

StartChar: h
Encoding: 104 104 75
Width: 576
GlyphClass: 2
Flags: MW
HStem: 0.0595703 21G<71.1074 181.508 71.1074 71.1074 409.989 409.989 409.989 520.389> 424.38 101.76<287.435 344.492> 671.26 20G<71.1074 181.508 181.508 181.508>
VStem: 71.1074 110.4<0.0595703 302.46 477.031 691.26> 409.989 110.399<0.0595703 313.02 313.02 323.58 0.0595703 343.562>
LayerCount: 2
Fore
SplineSet
409.989257812 313.01953125 m 2
 409.989257812 374.103515625 386.515625 424.379882812 302.46875 424.379882812 c 0
 264.409179688 424.379882812 235.766601562 413.357421875 214.180664062 392.052734375 c 0
 192.743164062 370.89453125 181.5078125 341.877929688 181.5078125 302.459960938 c 2
 181.5078125 0.0595703125 l 1
 71.107421875 0.0595703125 l 1
 71.107421875 691.259765625 l 1
 181.5078125 691.259765625 l 1
 181.5078125 477.03125 l 1
 207.467773438 500.211914062 252.240234375 526.139648438 322.62890625 526.139648438 c 0
 383.598632812 526.139648438 433.092773438 508.484375 468.368164062 471.796875 c 0
 503.516601562 435.2421875 520.388671875 385.043945312 520.388671875 323.580078125 c 2
 520.388671875 0.0595703125 l 1
 409.989257812 0.0595703125 l 1
 409.989257812 313.01953125 l 2
EndSplineSet
EndChar

StartChar: i
Encoding: 105 105 76
Width: 247
GlyphClass: 2
Flags: MW
HStem: 0.0595703 21G<77.8281 188.228 77.8281 77.8281> 500.38 20G<77.8281 188.228 188.228 188.228> 573.18 117.12<77.8281 188.228 77.8281 188.228>
VStem: 77.8281 110.399<0.0595703 520.38 0.0595703 520.38 573.18 690.3>
LayerCount: 2
Fore
SplineSet
77.828125 690.299804688 m 1
 188.227539062 690.299804688 l 1
 188.227539062 573.1796875 l 1
 77.828125 573.1796875 l 1
 77.828125 690.299804688 l 1
77.828125 520.379882812 m 1
 188.227539062 520.379882812 l 1
 188.227539062 0.0595703125 l 1
 77.828125 0.0595703125 l 1
 77.828125 520.379882812 l 1
EndSplineSet
EndChar

StartChar: j
Encoding: 106 106 77
Width: 245
GlyphClass: 2
Flags: MW
HStem: -146.82 101.76<-45.0518 12.5479 12.5479 22.1475 -45.0518 12.5479> 500.381 20G<76.8682 187.268 187.268 187.268> 573.18 118.08<74.9482 186.308 74.9482 186.308>
VStem: 76.8682 110.399<20.2207 520.381>
LayerCount: 2
Fore
SplineSet
74.9482421875 691.259765625 m 1
 186.307617188 691.259765625 l 1
 186.307617188 573.1796875 l 1
 74.9482421875 573.1796875 l 1
 74.9482421875 691.259765625 l 1
187.267578125 14.4609375 m 2
 187.267578125 -57.7783203125 159.423828125 -146.8203125 22.1474609375 -146.8203125 c 2
 -45.0517578125 -146.8203125 l 1
 -45.0517578125 -45.060546875 l 1
 12.5478515625 -45.060546875 l 2
 38.947265625 -45.060546875 54.7900390625 -39.095703125 62.84765625 -31.0390625 c 0
 70.830078125 -23.0556640625 76.8681640625 -6.8916015625 76.8681640625 20.220703125 c 2
 76.8681640625 520.380859375 l 1
 187.267578125 520.380859375 l 1
 187.267578125 14.4609375 l 2
EndSplineSet
EndChar

StartChar: k
Encoding: 107 107 78
Width: 562
GlyphClass: 2
Flags: MW
HStem: 0.0595703 21G<71.1074 181.508 71.1074 71.1074 436.102 568.404 436.102 436.102> 500.38 20G<405.882 549.514 549.514 549.514> 671.26 20G<71.1074 181.508 181.508 181.508>
VStem: 71.1074 110.4<0.0595703 153.459 292.487 691.26>
LayerCount: 2
Fore
SplineSet
436.1015625 0.0595703125 m 1
 267.885742188 239.836914062 l 1
 181.5078125 153.458984375 l 1
 181.5078125 0.0595703125 l 1
 71.107421875 0.0595703125 l 1
 71.107421875 691.259765625 l 1
 181.5078125 691.259765625 l 1
 181.5078125 292.487304688 l 1
 405.881835938 520.379882812 l 1
 549.513671875 520.379882812 l 1
 344.299804688 316.208007812 l 1
 568.404296875 0.0595703125 l 1
 436.1015625 0.0595703125 l 1
EndSplineSet
EndChar

StartChar: l
Encoding: 108 108 79
Width: 314
GlyphClass: 2
Flags: MW
HStem: 0.0595703 101.761<177.556 303.428 246.788 303.428 246.788 303.428> 671.26 20G<71.1074 181.508 181.508 181.508>
VStem: 71.1074 110.4<162.3 167.1 167.1 691.26>
LayerCount: 2
Fore
SplineSet
236.227539062 0.0595703125 m 2
 118.884765625 0.0595703125 71.107421875 60.3349609375 71.107421875 162.299804688 c 2
 71.107421875 691.259765625 l 1
 181.5078125 691.259765625 l 1
 181.5078125 167.099609375 l 2
 181.5078125 139.934570312 187.438476562 123.658203125 195.184570312 115.702148438 c 0
 202.715820312 107.966796875 218.930664062 101.8203125 246.788085938 101.8203125 c 2
 303.427734375 101.8203125 l 1
 303.427734375 0.0595703125 l 1
 236.227539062 0.0595703125 l 2
EndSplineSet
EndChar

StartChar: m
Encoding: 109 109 80
Width: 905
GlyphClass: 2
Flags: MW
HStem: 0.0595703 21G<71.1074 181.508 71.1074 71.1074 403.269 403.269 403.269 514.629 735.428 735.428 735.428 845.828> 424.38 101.76<283.439 340.261 280.108 349.691 611.655 669.292>
VStem: 71.1074 110.4<0.0595703 302.46 0.0595703 520.38> 403.269 111.36<0.0595703 311.1 0.0595703 313.98 0.0595703 330.971> 735.428 110.4<0.0595703 313.02 313.02 323.58 0.0595703 345.767>
LayerCount: 2
Fore
SplineSet
403.268554688 313.98046875 m 2
 403.268554688 347.9609375 396.9140625 424.379882812 302.46875 424.379882812 c 0
 264.409179688 424.379882812 235.766601562 413.357421875 214.180664062 392.052734375 c 0
 192.743164062 370.89453125 181.5078125 341.877929688 181.5078125 302.459960938 c 2
 181.5078125 0.0595703125 l 1
 71.107421875 0.0595703125 l 1
 71.107421875 520.379882812 l 1
 180.547851562 520.379882812 l 1
 180.547851562 476.95703125 l 1
 193.426757812 488.405273438 238.548828125 526.139648438 321.66796875 526.139648438 c 0
 358.854492188 526.139648438 427.317382812 517.010742188 474.345703125 456.790039062 c 1
 515.581054688 502.609375 569.42578125 526.139648438 645.1875 526.139648438 c 0
 707.329101562 526.139648438 757.5703125 508.743164062 793.228515625 472.379882812 c 0
 828.803710938 436.099609375 845.828125 385.670898438 845.828125 323.580078125 c 2
 845.828125 0.0595703125 l 1
 735.427734375 0.0595703125 l 1
 735.427734375 313.01953125 l 2
 735.427734375 378.513671875 708.755859375 424.379882812 629.828125 424.379882812 c 0
 593.481445312 424.379882812 514.62890625 415.958007812 514.62890625 311.099609375 c 2
 514.62890625 0.0595703125 l 1
 403.268554688 0.0595703125 l 1
 403.268554688 313.98046875 l 2
EndSplineSet
EndChar

StartChar: n
Encoding: 110 110 81
Width: 576
GlyphClass: 2
Flags: MW
HStem: 0.0595703 21G<71.1074 181.508 71.1074 71.1074 409.989 409.989 409.989 520.389> 424.38 101.76<283.439 344.492>
VStem: 71.1074 110.4<0.0595703 302.46 0.0595703 520.38> 409.989 110.399<0.0595703 313.02 313.02 323.58 0.0595703 343.562>
LayerCount: 2
Fore
SplineSet
409.989257812 313.01953125 m 2
 409.989257812 374.103515625 386.515625 424.379882812 302.46875 424.379882812 c 0
 264.409179688 424.379882812 235.766601562 413.357421875 214.180664062 392.052734375 c 0
 192.743164062 370.89453125 181.5078125 341.877929688 181.5078125 302.459960938 c 2
 181.5078125 0.0595703125 l 1
 71.107421875 0.0595703125 l 1
 71.107421875 520.379882812 l 1
 180.548828125 520.379882812 l 1
 180.548828125 476.95703125 l 1
 196.598632812 491.223632812 241.172851562 526.139648438 322.62890625 526.139648438 c 0
 383.598632812 526.139648438 433.092773438 508.484375 468.368164062 471.796875 c 0
 503.516601562 435.2421875 520.388671875 385.043945312 520.388671875 323.580078125 c 2
 520.388671875 0.0595703125 l 1
 409.989257812 0.0595703125 l 1
 409.989257812 313.01953125 l 2
EndSplineSet
EndChar

StartChar: o
Encoding: 111 111 82
Width: 576
GlyphClass: 2
Flags: MW
HStem: -8.58008 100.799<262.739 328.771 262.739 332.941> 428.219 101.761<262.409 329.083>
VStem: 56.708 110.399<236.219 238.139 238.139 283.259 177.96 285.179 177.96 323.863> 424.388 110.4<238.139 283.259 283.259 285.18 197.548 342.757>
LayerCount: 2
Fore
SplineSet
56.7080078125 236.21875 m 2
 56.7080078125 285.178710938 l 2
 56.7080078125 362.547851562 77.5087890625 423.99609375 121.010742188 466.801757812 c 0
 164.24609375 509.345703125 223.631835938 529.979492188 296.708007812 529.979492188 c 0
 369.200195312 529.979492188 428.154296875 509.133789062 471.047851562 466.239257812 c 0
 514.138671875 423.1484375 534.788085938 361.920898438 534.788085938 285.1796875 c 2
 534.788085938 236.219726562 l 2
 534.788085938 158.875976562 514.168945312 97.453125 471.006835938 54.638671875 c 0
 428.103515625 12.0810546875 369.173828125 -8.580078125 296.708007812 -8.580078125 c 0
 223.631835938 -8.580078125 164.24609375 12.0537109375 121.010742188 54.59765625 c 0
 77.5087890625 97.40234375 56.7080078125 158.850585938 56.7080078125 236.21875 c 2
295.748046875 92.21875 m 0
 361.793945312 92.21875 424.387695312 117.807617188 424.387695312 238.138671875 c 2
 424.387695312 283.258789062 l 2
 424.387695312 402.255859375 362.41796875 428.21875 295.748046875 428.21875 c 0
 229.0703125 428.21875 167.107421875 402.249023438 167.107421875 283.258789062 c 2
 167.107421875 238.138671875 l 2
 167.107421875 117.782226562 229.729492188 92.21875 295.748046875 92.21875 c 0
EndSplineSet
EndChar

StartChar: p
Encoding: 112 112 83
Width: 583
GlyphClass: 2
Flags: MW
HStem: -155.46 21G<71.1074 181.508 71.1074 71.1074> -8.58008 100.799<293.66 343.31 290.187 355.253> 428.218 100.802<288.612 355.237 287.385 359.292> 500.38 20G<71.1074 180.548 180.548 180.548>
VStem: 71.1074 110.4<-155.46 39.5518 -155.46 520.38> 432.066 110.401<239.099 282.298 282.298 287.1 197.278 318.951>
LayerCount: 2
Fore
SplineSet
180.547851562 477.788085938 m 1xdc
 206.768554688 501.7109375 252.141601562 529.01953125 322.627929688 529.01953125 c 0xec
 387.846679688 529.01953125 441.932617188 507.982421875 482.341796875 465.500976562 c 0
 523.044921875 422.708984375 542.467773438 362.447265625 542.467773438 287.099609375 c 2
 542.467773438 235.259765625 l 2
 542.467773438 159.296875 523.067382812 98.58203125 482.381835938 55.4619140625 c 0
 441.984375 12.6474609375 387.877929688 -8.580078125 322.627929688 -8.580078125 c 0
 264.69140625 -8.580078125 216.946289062 7.3193359375 181.5078125 39.5517578125 c 1
 181.5078125 -155.459960938 l 1
 71.107421875 -155.459960938 l 1
 71.107421875 520.379882812 l 1
 180.547851562 520.379882812 l 1
 180.547851562 477.788085938 l 1xdc
311.106445312 92.21875 m 0
 375.512695312 92.21875 432.06640625 124.768554688 432.06640625 239.098632812 c 2
 432.06640625 282.297851562 l 2
 432.06640625 355.603515625 409.397460938 428.217773438 309.185546875 428.217773438 c 0
 268.0390625 428.217773438 237.755859375 415.885742188 215.57421875 392.01953125 c 0
 193.240234375 367.989257812 181.505859375 335.342773438 181.505859375 291.8984375 c 2
 181.505859375 227.578125 l 2
 181.505859375 184.86328125 193.325195312 152.567382812 215.9921875 128.484375 c 0
 238.470703125 104.6015625 269.266601562 92.21875 311.106445312 92.21875 c 0
EndSplineSet
EndChar

StartChar: q
Encoding: 113 113 84
Width: 583
GlyphClass: 2
Flags: MW
HStem: -155.46 21G<417.668 527.107 417.668 417.668> -8.58008 100.8<241.723 307.423> 428.22 100.8<251.643 292.402 241.358 309.971> 500.38 20G<417.668 527.107 527.107 527.107>
VStem: 56.707 110.399<234.3 238.14 238.14 282.3 212.48 287.1 212.48 324.75> 417.668 109.439<-155.46 40.4092 40.4092 40.4092 478.524 520.38 -155.46 520.38>
LayerCount: 2
Fore
SplineSet
273.666992188 529.01953125 m 0xec
 311.13671875 529.01953125 370.068359375 521.05078125 417.66796875 478.524414062 c 1
 417.66796875 520.379882812 l 1
 527.107421875 520.379882812 l 1xdc
 527.107421875 -155.459960938 l 1
 417.66796875 -155.459960938 l 1
 417.66796875 40.4091796875 l 1
 387.3515625 13.087890625 340.21875 -8.580078125 274.626953125 -8.580078125 c 0
 208.818359375 -8.580078125 154.7890625 12.431640625 115.264648438 55.076171875 c 0
 75.5595703125 97.916015625 56.70703125 158.413085938 56.70703125 234.299804688 c 2
 56.70703125 287.099609375 l 2
 56.70703125 362.399414062 75.7666015625 422.604492188 115.788085938 465.41015625 c 0
 155.553710938 507.942382812 209.049804688 529.01953125 273.666992188 529.01953125 c 0xec
167.106445312 238.139648438 m 2
 167.106445312 186.821289062 177.400390625 92.2197265625 289.987304688 92.2197265625 c 0
 331.880859375 92.2197265625 362.295898438 104.48046875 384.07421875 127.93359375 c 0
 406.055664062 151.606445312 417.666992188 184.090820312 417.666992188 227.580078125 c 2
 417.666992188 291.900390625 l 2
 417.666992188 336.040039062 405.889648438 368.797851562 383.657226562 392.439453125 c 0
 361.538085938 415.958007812 330.915039062 428.219726562 289.02734375 428.219726562 c 0xec
 214.258789062 428.219726562 167.106445312 386.793945312 167.106445312 282.299804688 c 2
 167.106445312 238.139648438 l 2
EndSplineSet
EndChar

StartChar: r
Encoding: 114 114 85
Width: 388
GlyphClass: 2
Flags: MW
HStem: 0.0595703 21G<71.1074 181.508 71.1074 71.1074> 425.34 101.76<288.597 321.098>
VStem: 71.1074 110.4<0.0595703 297.66 0.0595703 520.38>
LayerCount: 2
Fore
SplineSet
180.546875 476.66015625 m 1
 204.0625 498.95703125 248.436523438 527.099609375 322.626953125 527.099609375 c 0
 337.122070312 527.099609375 344.888671875 527.099609375 376.387695312 522.126953125 c 1
 376.387695312 412.771484375 l 1
 346.366210938 421.666992188 333.967773438 425.33984375 308.227539062 425.33984375 c 0
 268.966796875 425.33984375 239.03125 413.740234375 216.104492188 391.096679688 c 0
 193.318359375 368.590820312 181.5078125 338.276367188 181.5078125 297.66015625 c 2
 181.5078125 0.0595703125 l 1
 71.107421875 0.0595703125 l 1
 71.107421875 520.379882812 l 1
 180.546875 520.379882812 l 1
 180.546875 476.66015625 l 1
EndSplineSet
EndChar

StartChar: s
Encoding: 115 115 86
Width: 522
GlyphClass: 2
Flags: MW
HStem: -5.7002 96.96<235.272 292.433 219.948 302.76> 432.06 95.04<250.037 289.213>
VStem: 47.1094 106.561<161.34 162.3 162.3 178.62 148.764 178.62> 54.7891 106.56<364.119 382.061 364.119 413.983> 382.148 106.561<348.54 365.82 365.82 366.78 348.54 376.698> 389.83 106.558<145.272 164.334>
LayerCount: 2
Fore
SplineSet
54.7890625 366.780273438 m 0xd4
 54.7890625 461.186523438 130.727539062 527.099609375 268.869140625 527.099609375 c 0
 334.760742188 527.099609375 388.1796875 513.66796875 427.984375 485.038085938 c 0
 467.9453125 456.293945312 488.708984375 415.858398438 488.708984375 366.780273438 c 2
 488.708984375 348.540039062 l 1
 382.1484375 348.540039062 l 1
 382.1484375 365.8203125 l 2
 382.1484375 387.576171875 373.981445312 402.27734375 355.828125 413.58984375 c 0
 337.09375 425.264648438 308.59765625 432.059570312 269.829101562 432.059570312 c 0
 230.244140625 432.059570312 202.15234375 425.58203125 185.28515625 415.040039062 c 0
 168.587890625 404.603515625 161.348632812 391.581054688 161.348632812 372.540039062 c 0xd8
 161.348632812 355.698242188 166.723632812 345.354492188 177.409179688 337.688476562 c 0
 188.478515625 329.747070312 211.686523438 323.153320312 246.416992188 318.700195312 c 2
 321.510742188 309.073242188 l 2
 400.111328125 299.919921875 496.387695312 271.526367188 496.387695312 160.379882812 c 0
 496.387695312 108.234375 474.899414062 65.880859375 433.091796875 36.720703125 c 0
 391.740234375 7.87890625 336.65234375 -5.7001953125 268.868164062 -5.7001953125 c 0
 201.67578125 -5.7001953125 147.506835938 8.2177734375 107.6328125 37.94921875 c 0
 67.59375 67.8017578125 47.109375 109.991210938 47.109375 161.33984375 c 2
 47.109375 178.620117188 l 1
 153.669921875 178.620117188 l 1
 153.669921875 162.299804688 l 2xe4
 153.669921875 135.227539062 167.185546875 91.259765625 272.709960938 91.259765625 c 0
 312.15625 91.259765625 341.814453125 97.8837890625 362.0234375 109.510742188 c 0
 381.559570312 120.750976562 389.830078125 134.963867188 389.830078125 155.580078125 c 0
 389.830078125 173.088867188 387.8125 201.854492188 296.172851562 211.333984375 c 2
 225.892578125 219.999023438 l 2
 149.9921875 228.928710938 54.7890625 255.895507812 54.7890625 366.780273438 c 0xd4
EndSplineSet
EndChar

StartChar: t
Encoding: 116 116 87
Width: 392
GlyphClass: 2
Flags: MW
HStem: 0.0595703 99.8408<260.855 353.348 297.668 353.348 297.668 353.348> 430.14 90.2402<36.5479 122.948 36.5479 122.948 233.348 363.908>
VStem: 122.948 110.399<155.58 160.38 160.38 430.14 520.38 622.187 622.187 622.187>
LayerCount: 2
Fore
SplineSet
284.227539062 0.0595703125 m 2
 237.482421875 0.0595703125 122.948242188 8.6796875 122.948242188 155.580078125 c 2
 122.948242188 430.139648438 l 1
 36.5478515625 430.139648438 l 1
 36.5478515625 520.379882812 l 1
 122.948242188 520.379882812 l 1
 122.948242188 622.186523438 l 1
 233.34765625 667.64453125 l 1
 233.34765625 520.379882812 l 1
 363.908203125 520.379882812 l 1
 363.908203125 430.139648438 l 1
 233.34765625 430.139648438 l 1
 233.34765625 160.379882812 l 2
 233.34765625 135.356445312 239.213867188 120.692382812 247.086914062 113.234375 c 0
 255.092773438 105.649414062 271.159179688 99.900390625 297.66796875 99.900390625 c 2
 353.34765625 99.900390625 l 1
 353.34765625 0.0595703125 l 1
 284.227539062 0.0595703125 l 2
EndSplineSet
EndChar

StartChar: u
Encoding: 117 117 88
Width: 576
GlyphClass: 2
Flags: MW
HStem: -6.66016 101.759<263.916 329.247 263.916 330.204> 500.379 20G<71.1074 181.508 181.508 181.508 409.988 520.388 520.388 520.388>
VStem: 71.1074 110.4<209.339 217.979 217.979 520.379> 409.988 110.399<217.979 520.379>
LayerCount: 2
Fore
SplineSet
295.748046875 95.0986328125 m 0
 362.745117188 95.0986328125 409.98828125 120.897460938 409.98828125 217.979492188 c 2
 409.98828125 520.37890625 l 1
 520.387695312 520.37890625 l 1
 520.387695312 209.338867188 l 2
 520.387695312 142.049804688 501.361328125 87.9130859375 461.741210938 49.6962890625 c 0
 422.094726562 11.453125 365.620117188 -6.66015625 294.788085938 -6.66015625 c 0
 224.568359375 -6.66015625 168.543945312 11.478515625 129.227539062 49.7412109375 c 0
 89.947265625 87.9697265625 71.107421875 142.078125 71.107421875 209.338867188 c 2
 71.107421875 520.37890625 l 1
 181.5078125 520.37890625 l 1
 181.5078125 217.979492188 l 2
 181.5078125 120.615234375 232.083984375 95.0986328125 295.748046875 95.0986328125 c 0
EndSplineSet
EndChar

StartChar: v
Encoding: 118 118 89
Width: 518
GlyphClass: 2
Flags: MW
HStem: 0.0595703 21G<217.786 317.069 217.786 217.786> 500.38 20G<12.5039 130.992 130.992 130.992 403.84 522.352 522.352 522.352>
LayerCount: 2
Fore
SplineSet
12.50390625 520.379882812 m 1
 130.9921875 520.379882812 l 1
 267.86328125 157.1796875 l 1
 403.83984375 520.379882812 l 1
 522.3515625 520.379882812 l 1
 317.069335938 0.0595703125 l 1
 217.786132812 0.0595703125 l 1
 12.50390625 520.379882812 l 1
EndSplineSet
EndChar

StartChar: w
Encoding: 119 119 90
Width: 816
GlyphClass: 2
Flags: MW
HStem: 0.0595703 21G<192.348 292.515 192.348 192.348 535.141 636.249 535.141 535.141> 500.38 20G<13.4883 131.524 131.524 131.524 370.959 457.633 457.633 457.633 698.052 816.125 816.125 816.125>
LayerCount: 2
Fore
SplineSet
13.48828125 520.379882812 m 1
 131.524414062 520.379882812 l 1
 246.381835938 163.436523438 l 1
 370.958984375 520.379882812 l 1
 457.6328125 520.379882812 l 1
 583.145507812 163.288085938 l 1
 698.051757812 520.379882812 l 1
 816.125 520.379882812 l 1
 636.249023438 0.0595703125 l 1
 535.140625 0.0595703125 l 1
 413.828125 345.403320312 l 1
 292.514648438 0.0595703125 l 1
 192.34765625 0.0595703125 l 1
 13.48828125 520.379882812 l 1
EndSplineSet
EndChar

StartChar: x
Encoding: 120 120 91
Width: 494
GlyphClass: 2
Flags: MW
HStem: 0.0595703 21G<5.87402 128.533 5.87402 5.87402 382.384 505.058 382.384 382.384> 500.38 20G<14.5615 137.124 137.124 137.124 370.818 493.608 493.608 493.608>
LayerCount: 2
Fore
SplineSet
382.383789062 0.0595703125 m 1
 254.551757812 180.475585938 l 1
 128.533203125 0.0595703125 l 1
 5.8740234375 0.0595703125 l 1
 193.650390625 265.9921875 l 1
 14.5615234375 520.379882812 l 1
 137.124023438 520.379882812 l 1
 254.421875 354.357421875 l 1
 370.818359375 520.379882812 l 1
 493.608398438 520.379882812 l 1
 314.375 268.841796875 l 1
 505.057617188 0.0595703125 l 1
 382.383789062 0.0595703125 l 1
EndSplineSet
EndChar

StartChar: y
Encoding: 121 121 92
Width: 518
GlyphClass: 2
Flags: MW
HStem: -146.82 102.721<80.708 129.668 80.708 129.668> 500.38 20G<12.3115 130.875 130.875 130.875 405.739 522.312 522.312 522.312>
LayerCount: 2
Fore
SplineSet
129.66796875 -146.8203125 m 2
 80.7080078125 -146.8203125 l 1
 80.7080078125 -44.099609375 l 1
 129.66796875 -44.099609375 l 2
 157.19921875 -44.099609375 176.212890625 -39.796875 186.677734375 -33.61328125 c 0
 203.698242188 -23.5556640625 210.028320312 -5.6201171875 216.9921875 14.1142578125 c 1
 12.3115234375 520.379882812 l 1
 130.875 520.379882812 l 1
 271.440429688 159.563476562 l 1
 405.739257812 520.379882812 l 1
 522.3125 520.379882812 l 1
 302.454101562 -39.7119140625 l 2
 274.336914062 -112.013671875 221.366210938 -146.8203125 129.66796875 -146.8203125 c 2
EndSplineSet
EndChar

StartChar: z
Encoding: 122 122 93
Width: 506
GlyphClass: 2
Flags: MW
HStem: 0.0595703 100.801<195.744 465.668 195.744 465.668> 418.62 101.76<56.708 465.668 56.708 324.842>
LayerCount: 2
Fore
SplineSet
56.7080078125 418.620117188 m 1
 56.7080078125 520.379882812 l 1
 465.66796875 520.379882812 l 1
 465.66796875 427.84765625 l 1
 195.744140625 100.860351562 l 1
 465.66796875 100.860351562 l 1
 465.66796875 0.0595703125 l 1
 56.7080078125 0.0595703125 l 1
 56.7080078125 91.60546875 l 1
 324.841796875 418.620117188 l 1
 56.7080078125 418.620117188 l 1
EndSplineSet
EndChar

StartChar: braceleft
Encoding: 123 123 94
Width: 387
GlyphClass: 2
Flags: MW
HStem: -80.5801 98.8799<241.928 347.588 285.188 347.588 285.188 347.588> 280.664 102.149<56.709 56.709> 640.379 98.8799<277.838 285.188 285.188 347.589>
VStem: 141.188 111.36<45.1016 52.8604 52.8604 215.1>
LayerCount: 2
Fore
SplineSet
263.107421875 -80.580078125 m 2
 220.748046875 -80.580078125 141.1875 -68.486328125 141.1875 44.2197265625 c 2
 141.1875 217.01953125 l 2
 141.1875 243.482421875 135.16015625 258.78125 127.44921875 266.084960938 c 0
 113.254882812 279.533203125 81.46875 280.168945312 56.708984375 280.6640625 c 1
 56.708984375 382.813476562 l 1
 81.46875 383.309570312 113.254882812 383.9453125 127.44921875 397.392578125 c 0
 135.240234375 404.7734375 141.188476562 419.75390625 141.188476562 445.499023438 c 2
 141.188476562 614.458984375 l 2
 141.188476562 670.83984375 162.015625 739.258789062 263.108398438 739.258789062 c 2
 347.588867188 739.258789062 l 1
 347.588867188 640.37890625 l 1
 285.188476562 640.37890625 l 2
 270.48828125 640.37890625 262.97265625 636.833984375 259.584960938 633.298828125 c 0
 256.106445312 629.668945312 252.548828125 621.3359375 252.548828125 605.819335938 c 2
 252.548828125 448.37890625 l 2
 252.548828125 383.166015625 239.454101562 352.110351562 209.197265625 331.298828125 c 1
 239.833984375 310.427734375 252.547851562 279.63671875 252.547851562 215.099609375 c 2
 252.547851562 52.8603515625 l 2
 252.547851562 37.3427734375 256.10546875 29.009765625 259.583984375 25.3798828125 c 0
 262.971679688 21.8447265625 270.487304688 18.2998046875 285.1875 18.2998046875 c 2
 347.587890625 18.2998046875 l 1
 347.587890625 -80.580078125 l 1
 263.107421875 -80.580078125 l 2
EndSplineSet
Substitution2: "'rtla' Right to Left Alternates lookup 0 subtable" braceright
EndChar

StartChar: bar
Encoding: 124 124 95
Width: 302
GlyphClass: 2
Flags: MW
VStem: 106.628 107.52<-79.6201 739.26 -79.6201 739.26>
LayerCount: 2
Fore
SplineSet
106.627929688 739.259765625 m 1
 214.147460938 739.259765625 l 1
 214.147460938 -79.6201171875 l 1
 106.627929688 -79.6201171875 l 1
 106.627929688 739.259765625 l 1
EndSplineSet
EndChar

StartChar: braceright
Encoding: 125 125 96
Width: 387
GlyphClass: 2
Flags: MW
HStem: -80.5801 98.8799<56.708 119.108 119.108 126.458 56.708 140.228 56.708 119.108> 280.66 102.16<347.588 347.588> 640.38 98.8799<56.708 119.107 56.708 140.228>
VStem: 151.749 110.398<52.8604 215.1 215.1 217.021>
LayerCount: 2
Fore
SplineSet
262.147460938 44.2197265625 m 2
 262.147460938 8.3310546875 255.526367188 -80.580078125 140.227539062 -80.580078125 c 2
 56.7080078125 -80.580078125 l 1
 56.7080078125 18.2998046875 l 1
 119.108398438 18.2998046875 l 2
 133.80859375 18.2998046875 141.325195312 21.8447265625 144.712890625 25.3798828125 c 0
 148.19140625 29.009765625 151.749023438 37.3427734375 151.749023438 52.8603515625 c 2
 151.749023438 215.099609375 l 2
 151.749023438 279.624023438 164.456054688 310.422851562 195.099609375 331.298828125 c 1
 164.875 352.087890625 151.748046875 383.102539062 151.748046875 448.379882812 c 2
 151.748046875 605.8203125 l 2
 151.748046875 621.336914062 148.190429688 629.669921875 144.711914062 633.299804688 c 0
 141.32421875 636.834960938 133.807617188 640.379882812 119.107421875 640.379882812 c 2
 56.7080078125 640.379882812 l 1
 56.7080078125 739.259765625 l 1
 140.227539062 739.259765625 l 2
 198.549804688 739.259765625 262.147460938 715.984375 262.147460938 614.459960938 c 2
 262.147460938 445.5 l 2
 262.147460938 419.754882812 268.095703125 404.774414062 275.88671875 397.393554688 c 0
 290.080078125 383.948242188 322.942382812 383.303710938 347.587890625 382.8203125 c 1
 347.587890625 280.66015625 l 1
 322.942382812 280.17578125 290.080078125 279.53125 275.88671875 266.0859375 c 0
 268.176757812 258.782226562 262.147460938 243.483398438 262.147460938 217.020507812 c 2
 262.147460938 44.2197265625 l 2
EndSplineSet
Substitution2: "'rtla' Right to Left Alternates lookup 0 subtable" braceleft
EndChar

StartChar: asciitilde
Encoding: 126 126 97
Width: 514
GlyphClass: 2
Flags: MW
HStem: 198.781 100.8<335.012 356.47> 257.34 99.8408<179.552 194.812>
LayerCount: 2
Fore
SplineSet
187.268554688 357.180664062 m 0x40
 213.138671875 357.180664062 236.88671875 352.559570312 283.934570312 322.509765625 c 0
 322.474609375 300.948242188 329.155273438 299.581054688 340.869140625 299.581054688 c 0
 372.1171875 299.581054688 384.829101562 322.248046875 406.560546875 362.088867188 c 1
 485.970703125 312.799804688 l 1
 473.926757812 286.525390625 458.0078125 251.795898438 422.345703125 225.572265625 c 0
 398.295898438 207.888671875 371.112304688 198.78125 341.828125 198.78125 c 0x80
 313.545898438 198.78125 290.479492188 204.922851562 244.731445312 233.7265625 c 0
 213.227539062 254.728515625 200.435546875 257.33984375 189.1875 257.33984375 c 0
 169.916992188 257.33984375 154.952148438 251.701171875 131.758789062 209.1796875 c 2
 124.6015625 196.057617188 l 1
 43.978515625 243.884765625 l 1
 56.18359375 270.514648438 72.056640625 305.14453125 107.26171875 330.891601562 c 0
 131.029296875 348.2734375 158.049804688 357.180664062 187.268554688 357.180664062 c 0x40
EndSplineSet
EndChar

StartChar: exclamdown
Encoding: 161 161 99
Width: 252
GlyphClass: 2
Flags: MW
HStem: 389.82 130.56<73.0283 199.748 73.0283 199.748>
VStem: 73.0283 126.72<389.82 520.38 389.82 520.38> 90.8613 91.083<322.62 322.62>
LayerCount: 2
Fore
SplineSet
73.0283203125 520.379882812 m 1xc0
 199.748046875 520.379882812 l 1
 199.748046875 389.8203125 l 1
 73.0283203125 389.8203125 l 1
 73.0283203125 520.379882812 l 1xc0
181.944335938 322.620117188 m 1xa0
 199.331054688 -146.8203125 l 1
 72.4521484375 -146.8203125 l 1
 90.861328125 322.620117188 l 1
 181.944335938 322.620117188 l 1xa0
EndSplineSet
EndChar

StartChar: cent
Encoding: 162 162 100
Width: 558
GlyphClass: 2
Flags: MW
HStem: -6.06445 103.291<251.587 251.588> 423.219 104.248<251.587 251.588>
VStem: 56.708 110.398<236.221 238.14 238.14 283.26 185.818 285.181 185.818 320.901> 251.587 87.3604<97.2266 423.219 423.219 423.219> 408.07 108.478<317.82 337.02>
LayerCount: 2
Fore
SplineSet
338.947265625 96.841796875 m 1
 368.91796875 103.756835938 408.067382812 123.982421875 408.067382812 182.4609375 c 2
 408.067382812 200.701171875 l 1
 516.547851562 200.701171875 l 1
 516.547851562 182.4609375 l 2
 516.547851562 128.875 499.78515625 83.8974609375 465.768554688 49.880859375 c 0
 434.33203125 18.4443359375 391.52734375 0.046875 338.948242188 -6.2568359375 c 1
 338.948242188 -95.939453125 l 1
 251.587890625 -95.939453125 l 1
 251.587890625 -6.064453125 l 1
 183.497070312 3.1611328125 56.7080078125 45.89453125 56.7080078125 236.220703125 c 2
 56.7080078125 285.180664062 l 2
 56.7080078125 356.62109375 74.466796875 414.525390625 111.638671875 456.909179688 c 0
 146.109375 496.211914062 193.393554688 519.581054688 251.587890625 527.466796875 c 1
 251.587890625 615.420898438 l 1
 338.948242188 615.420898438 l 1
 338.948242188 527.655273438 l 1
 391.55859375 521.32421875 434.390625 502.7421875 465.8203125 470.987304688 c 0
 499.826171875 436.630859375 516.547851562 391.200195312 516.547851562 337.01953125 c 2
 516.547851562 317.8203125 l 1
 408.0703125 317.8203125 l 1
 408.0703125 337.01953125 l 2
 408.0703125 351.805664062 407.423828125 407.799804688 338.947265625 423.599609375 c 1
 338.947265625 96.841796875 l 1
251.586914062 423.21875 m 1
 214.927734375 413.922851562 167.106445312 386.857421875 167.106445312 283.259765625 c 2
 167.106445312 238.139648438 l 2
 167.106445312 133.497070312 215.220703125 106.477539062 251.586914062 97.2265625 c 1
 251.586914062 423.21875 l 1
EndSplineSet
EndChar

StartChar: sterling
Encoding: 163 163 101
Width: 507
GlyphClass: 2
Flags: MW
HStem: 0.0605469 107.52<204.285 487.748 204.285 487.748> 275.581 105.6<36.5479 108.548 36.5479 108.548 224.708 387.908> 595.261 105.601<280.963 326.153>
VStem: 108.548 116.16<183.421 193.021 193.021 275.581 172.483 275.581 381.181 496.381 496.381 507.901> 372.548 112.32<510.781 525.181 510.781 548.364>
LayerCount: 2
Fore
SplineSet
224.708007812 193.020507812 m 2
 224.708007812 151.9453125 215.653320312 126.365234375 204.28515625 107.580078125 c 1
 487.748046875 107.580078125 l 1
 487.748046875 0.060546875 l 1
 58.6279296875 0.060546875 l 1
 58.6279296875 97.5732421875 l 1
 85.3798828125 109.994140625 108.547851562 120.750976562 108.547851562 183.420898438 c 2
 108.547851562 275.581054688 l 1
 36.5478515625 275.581054688 l 1
 36.5478515625 381.180664062 l 1
 108.547851562 381.180664062 l 1
 108.547851562 496.380859375 l 2
 108.547851562 560.0703125 124.16796875 611.109375 157.477539062 647.25390625 c 0
 190.934570312 683.55859375 239.314453125 700.861328125 299.587890625 700.861328125 c 0
 356.969726562 700.861328125 403.293945312 686.279296875 436.197265625 655.1640625 c 0
 469.154296875 623.998046875 484.868164062 579.717773438 484.868164062 525.180664062 c 2
 484.868164062 510.78125 l 1
 372.547851562 510.78125 l 1
 372.547851562 525.180664062 l 2
 372.547851562 571.546875 353.677734375 595.260742188 298.627929688 595.260742188 c 0
 263.298828125 595.260742188 224.708007812 583.513671875 224.708007812 507.901367188 c 2
 224.708007812 381.180664062 l 1
 387.908203125 381.180664062 l 1
 387.908203125 275.581054688 l 1
 224.708007812 275.581054688 l 1
 224.708007812 193.020507812 l 2
EndSplineSet
EndChar

StartChar: currency
Encoding: 164 164 102
Width: 608
GlyphClass: 2
Flags: MW
HStem: 119.101 98.8809<295.861 326.714 295.861 330.202> 431.101 98.8799<295.861 326.714>
VStem: 105.668 101.761<308.883 340.199 308.883 343.815> 414.788 102.72<308.856 340.226>
LayerCount: 2
Fore
SplineSet
311.107421875 119.100585938 m 0
 272.918945312 119.100585938 237.817382812 128.381835938 206.517578125 146.908203125 c 1
 138.141601562 79.5234375 l 1
 65.23828125 153.751953125 l 1
 132.641601562 221.155273438 l 1
 114.709960938 252.772460938 105.66796875 287.438476562 105.66796875 324.541015625 c 0
 105.66796875 363.08984375 114.849609375 397.947265625 133.342773438 428.3046875 c 1
 65.2197265625 497.4140625 l 1
 138.233398438 570.427734375 l 1
 206.69140625 502.961914062 l 1
 238.41796875 520.942382812 273.432617188 529.98046875 311.107421875 529.98046875 c 0
 349.18359375 529.98046875 383.973632812 521.020507812 414.764648438 503.044921875 c 1
 484.0546875 570.35546875 l 1
 557.068359375 497.340820312 l 1
 488.833007812 429.10546875 l 1
 507.887695312 397.38671875 517.5078125 362.30078125 517.5078125 324.541015625 c 0
 517.5078125 286.922851562 508.22265625 252.169921875 489.748046875 220.98046875 c 1
 557.9375 152.791015625 l 1
 485.033203125 78.5615234375 l 1
 415.697265625 146.90625 l 1
 384.397460938 128.380859375 349.295898438 119.100585938 311.107421875 119.100585938 c 0
414.788085938 324.541015625 m 0
 414.788085938 355.91015625 405.09375 380.71484375 385.671875 400.981445312 c 0
 366.393554688 421.096679688 342.321289062 431.100585938 311.107421875 431.100585938 c 0
 280.614257812 431.100585938 256.630859375 421.147460938 236.953125 400.90625 c 0
 217.235351562 380.625 207.428710938 355.856445312 207.428710938 324.541015625 c 0
 207.428710938 293.225585938 217.235351562 268.45703125 236.953125 248.17578125 c 0
 256.630859375 227.934570312 280.614257812 217.981445312 311.107421875 217.981445312 c 0
 342.321289062 217.981445312 366.393554688 227.984375 385.671875 248.100585938 c 0
 405.09375 268.3671875 414.788085938 293.171875 414.788085938 324.541015625 c 0
EndSplineSet
EndChar

StartChar: yen
Encoding: 165 165 103
Width: 536
GlyphClass: 2
Flags: MW
HStem: 0.0595703 21G<218.948 335.107 218.948 218.948> 137.34 92.1602<62.4678 218.948 62.4678 218.948 335.107 492.548> 260.22 93.1201<62.4678 188.99 62.4678 218.948 62.4678 188.99 365.005 492.548> 671.26 20G<5.62988 134.665 134.665 134.665 418.38 547.405 547.405 547.405>
VStem: 218.948 116.159<0.0595703 137.34 0.0595703 137.34 229.5 260.22>
LayerCount: 2
Fore
SplineSet
335.107421875 137.33984375 m 1
 335.107421875 0.0595703125 l 1
 218.948242188 0.0595703125 l 1
 218.948242188 137.33984375 l 1
 62.4677734375 137.33984375 l 1
 62.4677734375 229.5 l 1
 218.948242188 229.5 l 1
 218.948242188 260.219726562 l 1
 62.4677734375 260.219726562 l 1
 62.4677734375 353.33984375 l 1
 188.990234375 353.33984375 l 1
 5.6298828125 691.259765625 l 1
 134.665039062 691.259765625 l 1
 277.42578125 410.255859375 l 1
 418.379882812 691.259765625 l 1
 547.405273438 691.259765625 l 1
 365.004882812 353.33984375 l 1
 492.547851562 353.33984375 l 1
 492.547851562 260.219726562 l 1
 335.107421875 260.219726562 l 1
 335.107421875 229.5 l 1
 492.547851562 229.5 l 1
 492.547851562 137.33984375 l 1
 335.107421875 137.33984375 l 1
EndSplineSet
EndChar

StartChar: brokenbar
Encoding: 166 166 104
Width: 302
GlyphClass: 2
Flags: MW
VStem: 106.628 107.52<-65.2197 302.46 -65.2197 302.46 358.14 724.86>
LayerCount: 2
Fore
SplineSet
106.627929688 724.860351562 m 1
 214.147460938 724.860351562 l 1
 214.147460938 358.139648438 l 1
 106.627929688 358.139648438 l 1
 106.627929688 724.860351562 l 1
106.627929688 302.459960938 m 1
 214.147460938 302.459960938 l 1
 214.147460938 -65.2197265625 l 1
 106.627929688 -65.2197265625 l 1
 106.627929688 302.459960938 l 1
EndSplineSet
EndChar

StartChar: section
Encoding: 167 167 105
Width: 563
GlyphClass: 2
Flags: MW
HStem: -161.22 100.798<256.587 328.104 247.947 348.498> 613.501 100.8<266.598 322.438 264.214 328.978>
VStem: 75.9082 111.358<259.658 289.905> 90.3066 107.521<13.498 27.8984 -3.54834 27.8984> 99.9092 111.358<530.212 574.293 530.212 577.236> 373.508 111.36<-7.6665 15.7417> 391.747 111.36<258.756 294.955>
LayerCount: 2
Fore
SplineSet
484.868164062 1.98046875 m 0xc4
 484.868164062 -98.4912109375 409.887695312 -161.219726562 287.107421875 -161.219726562 c 0
 226.06640625 -161.219726562 177.075195312 -146.795898438 142.194335938 -115.831054688 c 0
 107.244140625 -84.8037109375 90.306640625 -40.6728515625 90.306640625 13.498046875 c 2
 90.306640625 27.8984375 l 1
 197.827148438 27.8984375 l 1
 197.827148438 13.498046875 l 2xd4
 197.827148438 -20.5947265625 208.787109375 -60.421875 287.106445312 -60.421875 c 0
 369.100585938 -60.421875 373.5078125 -18.2724609375 373.5078125 2.939453125 c 0
 373.5078125 28.5439453125 364.794921875 44.310546875 347.31640625 54.94921875 c 0
 322.291015625 70.1826171875 287.791992188 79.0966796875 241.633789062 89.7041015625 c 0
 185.309570312 102.6484375 75.908203125 139.666992188 75.908203125 275.580078125 c 0xe4
 75.908203125 304.23046875 80.0927734375 387.163085938 163.055664062 431.182617188 c 1
 123.75 455.575195312 99.9091796875 494.491210938 99.9091796875 553.020507812 c 0
 99.9091796875 601.451171875 117.7578125 641.795898438 153.12109375 671.145507812 c 0
 188.395507812 700.424804688 235.559570312 714.30078125 292.868164062 714.30078125 c 0
 352.008789062 714.30078125 399.463867188 700.180664062 433.080078125 669.783203125 c 0
 466.620117188 639.454101562 482.948242188 597 482.948242188 545.340820312 c 2
 482.948242188 530.94140625 l 1
 375.427734375 530.94140625 l 1
 375.427734375 545.340820312 l 2
 375.427734375 576.00390625 366.046875 613.500976562 291.908203125 613.500976562 c 0
 241.288085938 613.500976562 211.267578125 595.56640625 211.267578125 553.020507812 c 0
 211.267578125 507.404296875 239.677734375 488.853515625 339.189453125 468.200195312 c 0
 371.864257812 460.51171875 415.833984375 445.16015625 454.595703125 410.657226562 c 0
 487.647460938 381.237304688 503.107421875 337.345703125 503.107421875 282.298828125 c 0xca
 503.107421875 235.213867188 489.806640625 165.326171875 418.859375 127.446289062 c 1
 462.223632812 100.381835938 484.868164062 60.4140625 484.868164062 1.98046875 c 0xc4
289.987304688 189.177734375 m 0
 344.216796875 189.177734375 391.747070312 208.993164062 391.747070312 278.45703125 c 0
 391.747070312 311.453125 382.44140625 368.697265625 289.987304688 368.697265625 c 0
 200.890625 368.697265625 187.266601562 317.415039062 187.266601562 278.45703125 c 0xe2
 187.266601562 240.858398438 199.567382812 189.177734375 289.987304688 189.177734375 c 0
EndSplineSet
EndChar

StartChar: dieresis
Encoding: 168 168 106
Width: 506
GlyphClass: 2
Flags: MW
HStem: 557.82 120<102.788 213.188 102.788 213.188 102.788 309.188 309.188 418.628>
VStem: 102.788 110.399<557.82 677.82 557.82 677.82> 309.188 109.44<557.82 677.82 557.82 677.82>
LayerCount: 2
Fore
SplineSet
102.788085938 677.8203125 m 1
 213.1875 677.8203125 l 1
 213.1875 557.8203125 l 1
 102.788085938 557.8203125 l 1
 102.788085938 677.8203125 l 1
309.1875 677.8203125 m 1
 418.627929688 677.8203125 l 1
 418.627929688 557.8203125 l 1
 309.1875 557.8203125 l 1
 309.1875 677.8203125 l 1
EndSplineSet
EndChar

StartChar: copyright
Encoding: 169 169 107
Width: 800
GlyphClass: 2
Flags: MW
HStem: -8.58008 85.4404<332.491 441.451> 142.141 83.5205<390.163 429.216 390.163 464.485> 459.901 84.4795<384.292 424.646> 605.821 86.3984<328.418 488.912>
VStem: 65.3477 90.2402<258.81 420.669 258.81 447.372> 231.429 93.1201<323.581 325.501 325.501 361.021 283.901 362.941 283.901 391.127> 485.829 91.1992<281.341 299.581 241.019 299.581> 659.589 90.2393<307.546 418.927>
LayerCount: 2
Fore
SplineSet
408.067382812 -8.580078125 m 0
 205.649414062 -8.580078125 65.34765625 130.692382812 65.34765625 341.8203125 c 0
 65.34765625 552.922851562 205.625 692.219726562 408.067382812 692.219726562 c 0
 612.2265625 692.219726562 749.828125 550.35546875 749.828125 341.8203125 c 0
 749.828125 273.271484375 735.783203125 212.24609375 707.318359375 159.333007812 c 0
 678.8984375 106.504882812 638.397460938 64.9794921875 586.521484375 35.5283203125 c 0
 534.546875 6.0205078125 474.833984375 -8.580078125 408.067382812 -8.580078125 c 0
408.067382812 76.8603515625 m 0
 567.30859375 76.8603515625 659.588867188 185.763671875 659.588867188 341.821289062 c 0
 659.588867188 496.032226562 569.755859375 605.821289062 408.067382812 605.821289062 c 0
 248.768554688 605.821289062 155.587890625 499.516601562 155.587890625 341.821289062 c 0
 155.587890625 175.797851562 256.915039062 76.8603515625 408.067382812 76.8603515625 c 0
577.028320312 281.340820312 m 2
 577.028320312 200.696289062 518.020507812 142.140625 410.94921875 142.140625 c 0
 357.671875 142.140625 313.4296875 157.359375 280.516601562 188.857421875 c 0
 247.1796875 220.760742188 231.428710938 266.62109375 231.428710938 323.581054688 c 2
 231.428710938 362.94140625 l 2
 231.428710938 419.3125 247.221679688 464.963867188 280.458007812 497.127929688 c 0
 313.360351562 528.96875 357.635742188 544.380859375 410.94921875 544.380859375 c 0
 460.520507812 544.380859375 501.419921875 532.629882812 531.93359375 507.500976562 c 0
 562.565429688 482.275390625 577.989257812 447.170898438 577.989257812 405.180664062 c 2
 577.989257812 386.94140625 l 1
 485.829101562 386.94140625 l 1
 485.829101562 404.220703125 l 2
 485.829101562 423.096679688 479.807617188 435.4375 467.89453125 444.67578125 c 0
 455.557617188 454.244140625 437.381835938 459.901367188 411.909179688 459.901367188 c 0
 341.453125 459.901367188 324.548828125 413.541015625 324.548828125 361.020507812 c 2
 324.548828125 325.500976562 l 2
 324.548828125 242.30078125 367.45703125 225.661132812 412.869140625 225.661132812 c 0
 445.5625 225.661132812 485.829101562 235.056640625 485.829101562 281.340820312 c 2
 485.829101562 299.581054688 l 1
 577.028320312 299.581054688 l 1
 577.028320312 281.340820312 l 2
EndSplineSet
EndChar

StartChar: ordfeminine
Encoding: 170 170 108
Width: 391
GlyphClass: 2
Flags: MW
HStem: 409.021 84.4805<180.894 189.391> 543.421 75.8398<182.468 192.068 192.068 252.545> 665.34 81.6006<189.287 216.624 145.651 223.558>
VStem: 48.0674 95.04<513.476 523.218 513.476 532.72> 255.428 94.0801<412.861 429.544 429.544 429.544>
LayerCount: 2
Fore
SplineSet
201.66796875 746.940429688 m 0
 231.579101562 746.940429688 349.5078125 746.16015625 349.5078125 621.1796875 c 2
 349.5078125 412.861328125 l 1
 255.427734375 412.861328125 l 1
 255.427734375 429.543945312 l 1
 232.459960938 415.749023438 204.953125 409.020507812 173.828125 409.020507812 c 0
 135.912109375 409.020507812 104.669921875 417.61328125 81.9501953125 436.92578125 c 0
 59.2451171875 456.224609375 48.0673828125 483.459960938 48.0673828125 515.581054688 c 0
 48.0673828125 549.858398438 61.4970703125 619.260742188 182.467773438 619.260742188 c 2
 252.547851562 619.260742188 l 1
 252.547851562 625.020507812 l 2
 252.547851562 643.2734375 248.327148438 665.33984375 198.788085938 665.33984375 c 0
 179.78515625 665.33984375 166.755859375 662.00390625 159.30078125 657.399414062 c 0
 152.083007812 652.94140625 149.829101562 648.661132812 149.829101562 641.33984375 c 2
 149.829101562 625.01953125 l 1
 57.6689453125 625.01953125 l 1
 57.6689453125 641.33984375 l 2
 57.6689453125 690.475585938 89.6337890625 746.940429688 201.66796875 746.940429688 c 0
192.068359375 543.420898438 m 2
 171.571289062 543.420898438 158.1328125 540.03125 151.684570312 536.000976562 c 0
 145.846679688 532.352539062 143.107421875 527.974609375 143.107421875 518.4609375 c 0
 143.107421875 508.491210938 146.116210938 503.766601562 154.009765625 499.657226562 c 0
 160.869140625 496.0859375 172.600585938 493.500976562 189.1875 493.500976562 c 0
 242.828125 493.500976562 252.296875 515.369140625 252.544921875 543.420898438 c 1
 192.068359375 543.420898438 l 2
28.869140625 686.4609375 m 1024
EndSplineSet
EndChar

StartChar: guillemotleft
Encoding: 171 171 109
Width: 557
GlyphClass: 2
Flags: W
LayerCount: 2
Fore
SplineSet
281.34765625 496.545898438 m 1
 281.34765625 370.752929688 l 1
 162.254882812 267.900390625 l 1
 281.34765625 165.046875 l 1
 281.34765625 39.25390625 l 1
 21.4716796875 267.900390625 l 1
 281.34765625 496.545898438 l 1
501.1875 496.545898438 m 1
 501.1875 370.752929688 l 1
 382.094726562 267.900390625 l 1
 501.1875 165.046875 l 1
 501.1875 39.25390625 l 1
 241.311523438 267.900390625 l 1
 501.1875 496.545898438 l 1
EndSplineSet
EndChar

StartChar: logicalnot
Encoding: 172 172 110
Width: 514
GlyphClass: 2
Flags: MW
HStem: 250.62 102.72<57.668 361.988 57.668 473.348>
VStem: 361.988 111.359<123.9 250.62 250.62 250.62>
LayerCount: 2
Fore
SplineSet
361.98828125 250.620117188 m 1
 57.66796875 250.620117188 l 1
 57.66796875 353.33984375 l 1
 473.34765625 353.33984375 l 1
 473.34765625 123.900390625 l 1
 361.98828125 123.900390625 l 1
 361.98828125 250.620117188 l 1
EndSplineSet
EndChar

StartChar: uni00AD
Encoding: 173 173 111
Width: 430
GlyphClass: 2
Flags: MW
HStem: 293.82 106.56<56.708 390.788 56.708 390.788>
LayerCount: 2
Fore
SplineSet
56.7080078125 400.379882812 m 1
 390.788085938 400.379882812 l 1
 390.788085938 293.8203125 l 1
 56.7080078125 293.8203125 l 1
 56.7080078125 400.379882812 l 1
EndSplineSet
EndChar

StartChar: registered
Encoding: 174 174 112
Width: 524
GlyphClass: 2
Flags: MW
HStem: 294.78 61.4395<250.029 289.625 250.029 325.104> 548.221 63.3594<255.428 278.468 255.428 255.428> 629.82 61.4395<250.029 289.273>
VStem: 75.9082 64.3184<472.555 514.098 472.555 551.377> 187.268 68.1602<377.34 459.9 377.34 522.301 522.301 548.221> 295.748 67.2002<532.568 538.627> 401.348 63.3604<472.597 514.035>
LayerCount: 2
Fore
SplineSet
269.828125 294.780273438 m 0
 158.025390625 294.780273438 75.908203125 378.3515625 75.908203125 493.5 c 0
 75.908203125 609.25390625 160.563476562 691.259765625 269.828125 691.259765625 c 0
 384.12109375 691.259765625 464.708007812 603.916015625 464.708007812 493.5 c 0
 464.708007812 376.282226562 380.37890625 294.780273438 269.828125 294.780273438 c 0
401.34765625 493.5 m 0
 401.34765625 534.5703125 388.869140625 566.645507812 364.169921875 591.91796875 c 0
 339.418945312 617.245117188 308.717773438 629.8203125 269.828125 629.8203125 c 0
 230.229492188 629.8203125 199.828125 617.215820312 176.142578125 592.103515625 c 0
 152.337890625 566.866210938 140.2265625 534.6953125 140.2265625 493.5 c 0
 140.2265625 451.610351562 152.37890625 419.130859375 176.142578125 393.936523438 c 0
 199.828125 368.82421875 230.229492188 356.219726562 269.828125 356.219726562 c 0
 309.421875 356.219726562 340.2265625 368.8359375 364.590820312 394.060546875 c 0
 388.948242188 419.278320312 401.34765625 451.693359375 401.34765625 493.5 c 0
362.948242188 535.741210938 m 0
 362.948242188 508.763671875 352.166015625 486.723632812 331.729492188 472.946289062 c 1
 375.85546875 377.33984375 l 1
 353.34765625 377.33984375 l 1
 312.067382812 377.33984375 l 1
 302.881835938 377.33984375 l 1
 264.482421875 459.900390625 l 1
 255.427734375 459.900390625 l 1
 255.427734375 377.33984375 l 1
 187.267578125 377.33984375 l 1
 187.267578125 611.580078125 l 1
 280.387695312 611.580078125 l 2
 304.390625 611.580078125 325.076171875 605.727539062 340.366210938 592.08984375 c 0
 355.865234375 578.266601562 362.948242188 558.446289062 362.948242188 535.741210938 c 0
295.748046875 535.741210938 m 0
 295.748046875 541.513671875 295.748046875 548.220703125 278.467773438 548.220703125 c 2
 255.427734375 548.220703125 l 1
 255.427734375 522.30078125 l 1
 278.467773438 522.30078125 l 2
 295.6484375 522.30078125 295.748046875 529.39453125 295.748046875 535.741210938 c 0
EndSplineSet
EndChar

StartChar: macron
Encoding: 175 175 113
Width: 506
GlyphClass: 2
Flags: MW
HStem: 566.46 102.72<100.868 422.468 100.868 422.468>
VStem: 100.868 321.6<566.46 669.18 566.46 669.18>
LayerCount: 2
Fore
SplineSet
100.868164062 669.1796875 m 1
 422.467773438 669.1796875 l 1
 422.467773438 566.459960938 l 1
 100.868164062 566.459960938 l 1
 100.868164062 669.1796875 l 1
EndSplineSet
EndChar

StartChar: degree
Encoding: 176 176 114
Width: 410
GlyphClass: 2
Flags: MW
HStem: 402.3 83.5205<205.261 224.575 205.261 257.937> 619.26 81.6006<205.261 224.575>
VStem: 65.3467 85.4414<542.135 562.357 542.135 572.936> 278.468 85.4404<542.135 562.357>
LayerCount: 2
Fore
SplineSet
363.908203125 552.059570312 m 0
 363.908203125 469.140625 300.765625 402.299804688 215.108398438 402.299804688 c 0
 172.734375 402.299804688 136.266601562 416.747070312 107.904296875 445.463867188 c 0
 79.6328125 474.087890625 65.3466796875 510.305664062 65.3466796875 552.059570312 c 0
 65.3466796875 593.8125 79.638671875 629.912109375 107.966796875 658.240234375 c 0
 136.34375 686.618164062 172.78125 700.860351562 215.107421875 700.860351562 c 0
 256.2890625 700.860351562 292.169921875 686.526367188 320.744140625 658.303710938 c 0
 349.411132812 629.991210938 363.908203125 593.861328125 363.908203125 552.059570312 c 0
278.467773438 552.059570312 m 0
 278.467773438 572.655273438 272.375 588.155273438 260.391601562 600.66015625 c 0
 248.387695312 613.185546875 234.04296875 619.259765625 215.107421875 619.259765625 c 0
 195.415039062 619.259765625 180.78125 613.095703125 168.864257812 600.66015625 c 0
 156.880859375 588.155273438 150.788085938 572.655273438 150.788085938 552.059570312 c 0
 150.788085938 532.2109375 156.801757812 517.006835938 168.864257812 504.419921875 c 0
 180.78125 491.984375 195.415039062 485.8203125 215.107421875 485.8203125 c 0
 234.04296875 485.8203125 248.387695312 491.89453125 260.390625 504.419921875 c 0
 272.453125 517.006835938 278.467773438 532.2109375 278.467773438 552.059570312 c 0
EndSplineSet
EndChar

StartChar: plusminus
Encoding: 177 177 115
Width: 514
GlyphClass: 2
Flags: MW
HStem: -10.5 106.56<57.668 473.348 57.668 473.348> 268.86 106.56<57.668 212.228 57.668 212.228 318.788 473.348>
VStem: 212.228 106.561<114.3 268.86 114.3 268.86 375.42 529.98>
LayerCount: 2
Fore
SplineSet
318.788085938 268.860351562 m 1
 318.788085938 114.299804688 l 1
 212.227539062 114.299804688 l 1
 212.227539062 268.860351562 l 1
 57.66796875 268.860351562 l 1
 57.66796875 375.419921875 l 1
 212.227539062 375.419921875 l 1
 212.227539062 529.98046875 l 1
 318.788085938 529.98046875 l 1
 318.788085938 375.419921875 l 1
 473.34765625 375.419921875 l 1
 473.34765625 268.860351562 l 1
 318.788085938 268.860351562 l 1
57.66796875 96.0595703125 m 1
 473.34765625 96.0595703125 l 1
 473.34765625 -10.5 l 1
 57.66796875 -10.5 l 1
 57.66796875 96.0595703125 l 1
EndSplineSet
EndChar

StartChar: uni00B2
Encoding: 178 178 116
Width: 385
GlyphClass: 2
Flags: MW
HStem: 412.86 93.1201<207.089 350.468 207.089 350.468> 697.02 21G<51.9082 152.708 51.9082 51.9082> 758.461 90.2393<178.03 217.317>
VStem: 51.9082 100.8<697.02 718.14 697.02 720.06 697.02 757.972> 244.868 103.679<713.341 714.3 714.3 719.101 719.101 721.98 691.383 730.744>
LayerCount: 2
Fore
SplineSet
51.908203125 720.059570312 m 2
 51.908203125 795.883789062 104.235351562 848.700195312 201.66796875 848.700195312 c 0
 245.526367188 848.700195312 281.779296875 838.032226562 308.5078125 814.96484375 c 0
 335.24609375 791.888671875 348.546875 759.92578125 348.546875 721.98046875 c 2
 348.546875 714.299804688 l 2
 348.546875 668.465820312 328.400390625 635.227539062 286.813476562 590.920898438 c 2
 207.088867188 505.98046875 l 1
 350.467773438 505.98046875 l 1
 350.467773438 412.860351562 l 1
 55.748046875 412.860351562 l 1
 55.748046875 490.639648438 l 1
 212.60546875 654.403320312 l 2
 240.787109375 682.584960938 244.868164062 698.459960938 244.868164062 713.340820312 c 2
 244.868164062 719.100585938 l 2
 244.868164062 742.38671875 234.88671875 758.4609375 199.748046875 758.4609375 c 0
 156.311523438 758.4609375 152.708007812 733.737304688 152.708007812 718.139648438 c 2
 152.708007812 697.01953125 l 1
 51.908203125 697.01953125 l 1
 51.908203125 720.059570312 l 2
EndSplineSet
EndChar

StartChar: uni00B3
Encoding: 179 179 117
Width: 383
GlyphClass: 2
Flags: MW
HStem: 407.1 89.2783<175.685 220.408 171.72 246.345> 588.538 91.2002<153.667 191.106 153.667 191.106> 758.458 90.2402<185.973 216.729>
VStem: 50.9473 95.04<529.979 531.898 531.898 552.059 526.107 552.059> 247.747 100.801<536.698 536.699 536.699 544.378 544.378 545.339 498.591 555.887>
LayerCount: 2
Fore
SplineSet
348.547851562 536.69921875 m 2
 348.547851562 460.482421875 294.862304688 407.099609375 197.828125 407.099609375 c 0
 153.541992188 407.099609375 117.303710938 416.951171875 90.7900390625 438.677734375 c 0
 64.0634765625 460.579101562 50.947265625 492.107421875 50.947265625 529.978515625 c 2
 50.947265625 552.05859375 l 1
 145.987304688 552.05859375 l 1
 145.987304688 531.8984375 l 2
 145.987304688 520.315429688 146.573242188 496.377929688 196.8671875 496.377929688 c 0
 243.94921875 496.377929688 247.747070312 519.498046875 247.747070312 536.698242188 c 2
 247.747070312 544.377929688 l 2
 247.747070312 567.395507812 240.763671875 588.538085938 191.106445312 588.538085938 c 2
 153.666992188 588.538085938 l 1
 153.666992188 679.73828125 l 1
 191.106445312 679.73828125 l 2
 239.454101562 679.73828125 241.02734375 703.034179688 241.02734375 716.217773438 c 2
 241.02734375 722.938476562 l 2
 241.02734375 737.321289062 238.509765625 758.458007812 194.947265625 758.458007812 c 0
 176.999023438 758.458007812 165.256835938 754.583984375 158.248046875 749.061523438 c 0
 151.450195312 743.705078125 147.907226562 736.776367188 147.907226562 724.858398438 c 2
 147.907226562 703.73828125 l 1
 52.8671875 703.73828125 l 1
 52.8671875 724.858398438 l 2
 52.8671875 762.733398438 65.9736328125 794.362304688 92.6171875 816.564453125 c 0
 119.032226562 838.577148438 154.689453125 848.698242188 197.827148438 848.698242188 c 0
 240.875 848.698242188 276.306640625 838.96875 302.44921875 817.614257812 c 0
 328.629882812 796.224609375 341.828125 766.215820312 341.828125 730.619140625 c 2
 341.828125 722.939453125 l 2
 341.828125 687.849609375 328.034179688 659.555664062 302.124023438 640.268554688 c 1
 328.515625 622.94140625 348.547851562 593.819335938 348.547851562 545.338867188 c 2
 348.547851562 536.69921875 l 2
EndSplineSet
EndChar

StartChar: acute
Encoding: 180 180 118
Width: 506
GlyphClass: 2
Flags: MW
HStem: 553.98 151.68<142.655 415.38 142.655 415.38>
VStem: 142.655 272.725<553.98 705.66>
LayerCount: 2
Fore
SplineSet
271.8203125 705.66015625 m 1
 415.379882812 705.66015625 l 1
 255.405273438 553.98046875 l 1
 142.655273438 553.98046875 l 1
 271.8203125 705.66015625 l 1
EndSplineSet
EndChar

StartChar: uni00B5
Encoding: 181 181 119
Width: 575
GlyphClass: 2
Flags: MW
HStem: -5.7002 100.799<273.696 306.356> 500.38 20G<71.1074 181.508 181.508 181.508 408.067 519.428 519.428 519.428>
VStem: 71.1074 110.4<-146.82 17.2168 186.625 205.499 205.499 520.38> 408.067 111.36<221.82 520.38 0.0595703 520.38>
LayerCount: 2
Fore
SplineSet
181.5078125 520.379882812 m 1
 181.5078125 205.499023438 l 2
 181.5078125 167.751953125 191.669921875 141.236328125 210.255859375 123.189453125 c 0
 229.072265625 104.91796875 255.484375 95.0986328125 291.908203125 95.0986328125 c 0
 329.948242188 95.0986328125 357.51171875 106.231445312 377.389648438 127.489257812 c 0
 397.264648438 148.745117188 408.067382812 179.42578125 408.067382812 221.8203125 c 2
 408.067382812 520.379882812 l 1
 519.427734375 520.379882812 l 1
 519.427734375 0.0595703125 l 1
 409.98828125 0.0595703125 l 1
 409.98828125 40.18359375 l 1
 376.104492188 9.6337890625 332.32421875 -5.7001953125 280.387695312 -5.7001953125 c 0
 241.342773438 -5.7001953125 208.02734375 1.6240234375 181.5078125 17.216796875 c 1
 181.5078125 -146.8203125 l 1
 71.107421875 -146.8203125 l 1
 71.107421875 520.379882812 l 1
 181.5078125 520.379882812 l 1
EndSplineSet
EndChar

StartChar: paragraph
Encoding: 182 182 120
Width: 681
GlyphClass: 2
Flags: MW
HStem: 589.5 101.76<424.388 424.388 424.388 480.067>
VStem: 75.9072 348.48<440.696 508.125> 318.788 105.6<-146.82 258.451 258.451 258.451> 480.067 105.601<-146.82 589.5 589.5 589.5>
LayerCount: 2
Fore
SplineSet
424.387695312 589.5 m 1xb0
 424.387695312 -146.8203125 l 1
 318.788085938 -146.8203125 l 1
 318.788085938 258.451171875 l 1xb0
 245.115234375 260.262695312 186.140625 278.348632812 143.413085938 314.502929688 c 0
 98.1923828125 352.767578125 75.9072265625 407.091796875 75.9072265625 474.299804688 c 0xd0
 75.9072265625 541.94921875 97.2001953125 596.504882812 140.80078125 634.873046875 c 0
 184.1796875 673.046875 243.858398438 691.259765625 317.828125 691.259765625 c 2
 585.66796875 691.259765625 l 1
 585.66796875 -146.8203125 l 1
 480.067382812 -146.8203125 l 1
 480.067382812 589.5 l 1
 424.387695312 589.5 l 1xb0
EndSplineSet
EndChar

StartChar: periodcentered
Encoding: 183 183 121
Width: 213
GlyphClass: 2
Flags: MW
HStem: 210.3 131.521<52.8682 179.588 52.8682 179.588>
VStem: 52.8682 126.72<210.3 341.82 210.3 341.82>
LayerCount: 2
Fore
SplineSet
52.8681640625 341.8203125 m 1
 179.587890625 341.8203125 l 1
 179.587890625 210.299804688 l 1
 52.8681640625 210.299804688 l 1
 52.8681640625 341.8203125 l 1
EndSplineSet
EndChar

StartChar: cedilla
Encoding: 184 184 122
Width: 506
GlyphClass: 2
Flags: MW
HStem: -145.86 186.24<249.551 268.675 153.024 350.438>
VStem: 153.024 197.414<-145.86 40.3799>
LayerCount: 2
Fore
SplineSet
350.438476562 40.3798828125 m 1
 268.674804688 -145.860351562 l 1
 153.024414062 -145.860351562 l 1
 249.55078125 40.3798828125 l 1
 350.438476562 40.3798828125 l 1
EndSplineSet
EndChar

StartChar: uni00B9
Encoding: 185 185 123
Width: 278
GlyphClass: 2
Flags: MW
VStem: 125.828 103.68<412.86 724.832 724.832 724.832>
LayerCount: 2
Fore
SplineSet
44.2275390625 673.952148438 m 1
 44.2275390625 785.731445312 l 1
 136.172851562 841.98046875 l 1
 229.5078125 841.98046875 l 1
 229.5078125 412.860351562 l 1
 125.828125 412.860351562 l 1
 125.828125 724.83203125 l 1
 44.2275390625 673.952148438 l 1
EndSplineSet
EndChar

StartChar: ordmasculine
Encoding: 186 186 124
Width: 391
GlyphClass: 2
Flags: MW
HStem: 409.02 90.2402<186.383 222.716 186.383 227.896> 656.7 90.2412<187.938 221.159>
VStem: 50.9482 96.96<561.661 595.26 539.121 595.261 539.121 618.66> 261.188 97.9199<561.66 561.661 561.661 595.26 595.26 595.261 537.97 618.723>
LayerCount: 2
Fore
SplineSet
50.9482421875 561.661132812 m 2
 50.9482421875 595.260742188 l 2
 50.9482421875 642.05859375 64.205078125 680.37109375 92.3330078125 707.403320312 c 0
 120.244140625 734.2265625 158.439453125 746.94140625 204.547851562 746.94140625 c 0
 250.663085938 746.94140625 288.97265625 734.223632812 317.174804688 707.467773438 c 0
 345.649414062 680.453125 359.107421875 642.1015625 359.107421875 595.260742188 c 2
 359.107421875 561.661132812 l 2
 359.107421875 514.278320312 345.8984375 475.635742188 317.72265625 448.557617188 c 0
 289.766601562 421.690429688 251.244140625 409.01953125 204.547851562 409.01953125 c 0
 157.858398438 409.01953125 119.44921875 421.686523438 91.78515625 448.624023438 c 0
 63.958984375 475.71875 50.9482421875 514.319335938 50.9482421875 561.661132812 c 2
204.547851562 499.259765625 m 0
 240.884765625 499.259765625 261.1875 516.590820312 261.1875 561.66015625 c 2
 261.1875 595.259765625 l 2
 261.1875 642.186523438 237.76953125 656.700195312 204.547851562 656.700195312 c 0
 171.327148438 656.700195312 147.908203125 642.1875 147.908203125 595.259765625 c 2
 147.908203125 561.66015625 l 2
 147.908203125 516.58203125 168.21875 499.259765625 204.547851562 499.259765625 c 0
25.98828125 686.459960938 m 1024
EndSplineSet
EndChar

StartChar: guillemotright
Encoding: 187 187 125
Width: 557
GlyphClass: 2
Flags: W
LayerCount: 2
Fore
SplineSet
71.107421875 370.752929688 m 1
 71.107421875 496.456054688 l 1
 331.99609375 267.900390625 l 1
 71.107421875 39.34375 l 1
 71.107421875 165.046875 l 1
 190.200195312 267.900390625 l 1
 71.107421875 370.752929688 l 1
290.948242188 370.752929688 m 1
 290.948242188 496.456054688 l 1
 551.836914062 267.900390625 l 1
 290.948242188 39.34375 l 1
 290.948242188 165.046875 l 1
 410.041015625 267.900390625 l 1
 290.948242188 370.752929688 l 1
EndSplineSet
EndChar

StartChar: onequarter
Encoding: 188 188 126
Width: 802
GlyphClass: 3
Flags: MW
HStem: 0.0595703 21G<125.491 125.491 125.491 228.419 631.748 631.748 631.748 735.428> 67.2598 93.1201<559.86 631.748 559.86 631.748 735.428 774.788> 522.431 21G<33.668 33.668> 673.18 20G<506.106 610.035 610.035 610.035>
VStem: 116.228 103.681<262.14 573.311 573.311 573.311> 631.748 103.68<0.0595703 67.2598 0.0595703 67.2598 160.38 251.58>
LayerCount: 2
Fore
SplineSet
125.491210938 0.0595703125 m 1
 506.106445312 693.1796875 l 1
 610.03515625 693.1796875 l 1
 228.418945312 0.0595703125 l 1
 125.491210938 0.0595703125 l 1
33.66796875 522.430664062 m 1
 33.66796875 635.060546875 l 1
 126.61328125 691.259765625 l 1
 219.908203125 691.259765625 l 1
 219.908203125 262.139648438 l 1
 116.227539062 262.139648438 l 1
 116.227539062 573.310546875 l 1
 33.66796875 522.430664062 l 1
735.427734375 160.379882812 m 1
 774.788085938 160.379882812 l 1
 774.788085938 67.259765625 l 1
 735.427734375 67.259765625 l 1
 735.427734375 0.0595703125 l 1
 631.748046875 0.0595703125 l 1
 631.748046875 67.259765625 l 1
 446.467773438 67.259765625 l 1
 446.467773438 149.360351562 l 1
 585.377929688 429.1796875 l 1
 692.340820312 429.1796875 l 1
 559.860351562 160.379882812 l 1
 631.748046875 160.379882812 l 1
 631.748046875 251.580078125 l 1
 735.427734375 251.580078125 l 1
 735.427734375 160.379882812 l 1
EndSplineSet
Ligature2: "'frac' Diagonal Fractions lookup 2 subtable" one slash four
EndChar

StartChar: onehalf
Encoding: 189 189 127
Width: 813
GlyphClass: 3
Flags: MW
HStem: 0.0595703 93.1201<631.409 774.788 631.409 774.788> 345.66 90.2402<602.35 641.637> 522.431 21G<33.668 33.668> 673.18 20G<501.307 605.235 605.235 605.235>
VStem: 116.228 103.681<262.14 573.311 573.311 573.311> 476.228 100.801<284.22 305.34 284.22 307.26 284.22 345.172> 669.188 103.68<300.54 301.5 301.5 306.3 306.3 309.18 278.586 317.943>
LayerCount: 2
Fore
SplineSet
501.306640625 693.1796875 m 1
 605.235351562 693.1796875 l 1
 223.618164062 0.0595703125 l 1
 120.69140625 0.0595703125 l 1
 501.306640625 693.1796875 l 1
33.66796875 522.430664062 m 1
 33.66796875 635.060546875 l 1
 126.61328125 691.259765625 l 1
 219.908203125 691.259765625 l 1
 219.908203125 262.139648438 l 1
 116.227539062 262.139648438 l 1
 116.227539062 573.310546875 l 1
 33.66796875 522.430664062 l 1
476.227539062 307.259765625 m 2
 476.227539062 383.083984375 528.5546875 435.900390625 625.98828125 435.900390625 c 0
 669.846679688 435.900390625 706.099609375 425.231445312 732.827148438 402.165039062 c 0
 759.56640625 379.088867188 772.8671875 347.125976562 772.8671875 309.1796875 c 2
 772.8671875 301.5 l 2
 772.8671875 255.671875 752.73046875 222.438476562 711.134765625 178.12109375 c 2
 631.409179688 93.1796875 l 1
 774.788085938 93.1796875 l 1
 774.788085938 0.0595703125 l 1
 480.067382812 0.0595703125 l 1
 480.067382812 77.83984375 l 1
 636.924804688 241.602539062 l 2
 665.106445312 269.784179688 669.1875 285.659179688 669.1875 300.540039062 c 2
 669.1875 306.299804688 l 2
 669.1875 329.5859375 659.20703125 345.66015625 624.067382812 345.66015625 c 0
 580.631835938 345.66015625 577.028320312 320.936523438 577.028320312 305.33984375 c 2
 577.028320312 284.219726562 l 1
 476.227539062 284.219726562 l 1
 476.227539062 307.259765625 l 2
EndSplineSet
Ligature2: "'frac' Diagonal Fractions lookup 2 subtable" one slash two
EndChar

StartChar: threequarters
Encoding: 190 190 128
Width: 902
GlyphClass: 3
Flags: MW
HStem: 0.0595703 21G<224.371 224.371 224.371 327.299 730.628 730.628 730.628 834.308> 67.2598 93.1201<658.74 730.628 658.74 730.628 834.308 873.668> 255.42 90.2402<175.369 219.791> 437.82 90.2393<152.709 190.148 190.148 191.108 152.709 190.148> 607.74 90.2393<175.299 216.458>
VStem: 49.9893 95.0391<379.26 380.22 380.22 400.38 375.901 400.38> 247.749 99.8389<385.02 393.659 365.4 393.66 365.4 402.772> 730.628 103.68<0.0595703 67.2598 0.0595703 67.2598 160.38 251.58>
LayerCount: 2
Fore
SplineSet
302.146484375 489.565429688 m 1
 328.583984375 471.983398438 347.587890625 442.39453125 347.587890625 393.659179688 c 2
 347.587890625 385.01953125 l 2
 347.587890625 345.78125 333.779296875 312.935546875 305.974609375 289.521484375 c 0
 278.401367188 266.301757812 241.751953125 255.419921875 197.829101562 255.419921875 c 0
 152.909179688 255.419921875 116.294921875 265.422851562 89.7392578125 287.553710938 c 0
 63.095703125 309.755859375 49.9892578125 341.384765625 49.9892578125 379.259765625 c 2
 49.9892578125 400.379882812 l 1
 145.028320312 400.379882812 l 1
 145.028320312 380.219726562 l 2
 145.028320312 371.58203125 145.028320312 345.66015625 195.909179688 345.66015625 c 0
 245.029296875 345.66015625 247.749023438 369.604492188 247.749023438 385.01953125 c 2
 247.749023438 393.66015625 l 2
 247.749023438 411.883789062 243.74609375 437.8203125 191.108398438 437.8203125 c 2
 152.708984375 437.8203125 l 1
 152.708984375 528.059570312 l 1
 190.1484375 528.059570312 l 2
 239.203125 528.059570312 241.028320312 551.762695312 241.028320312 565.5 c 2
 241.028320312 572.219726562 l 2
 241.028320312 585.991210938 238.926757812 607.740234375 193.989257812 607.740234375 c 0
 149.352539062 607.740234375 147.908203125 584.548828125 147.908203125 573.178710938 c 2
 147.908203125 553.01953125 l 1
 51.908203125 553.01953125 l 1
 51.908203125 574.138671875 l 2
 51.908203125 612.014648438 65.0146484375 643.642578125 91.658203125 665.845703125 c 0
 118.073242188 687.858398438 153.73046875 697.979492188 196.868164062 697.979492188 c 0
 239.924804688 697.979492188 275.470703125 688.241210938 301.891601562 666.958007812 c 0
 328.481445312 645.538085938 341.828125 615.149414062 341.828125 578.939453125 c 2
 341.828125 572.21875 l 2
 341.828125 537.139648438 328.04296875 508.852539062 302.146484375 489.565429688 c 1
224.37109375 0.0595703125 m 1
 604.986328125 693.1796875 l 1
 708.915039062 693.1796875 l 1
 327.298828125 0.0595703125 l 1
 224.37109375 0.0595703125 l 1
834.307617188 160.379882812 m 1
 873.66796875 160.379882812 l 1
 873.66796875 67.259765625 l 1
 834.307617188 67.259765625 l 1
 834.307617188 0.0595703125 l 1
 730.627929688 0.0595703125 l 1
 730.627929688 67.259765625 l 1
 545.34765625 67.259765625 l 1
 545.34765625 149.360351562 l 1
 684.2578125 429.1796875 l 1
 791.220703125 429.1796875 l 1
 658.740234375 160.379882812 l 1
 730.627929688 160.379882812 l 1
 730.627929688 251.580078125 l 1
 834.307617188 251.580078125 l 1
 834.307617188 160.379882812 l 1
EndSplineSet
Ligature2: "'frac' Diagonal Fractions lookup 2 subtable" three slash four
EndChar

StartChar: questiondown
Encoding: 191 191 129
Width: 491
GlyphClass: 2
Flags: MW
HStem: -156.42 105.6<226.497 290.493> 391.74 128.64<197.828 323.588 197.828 323.588>
VStem: 47.1084 115.199<14.7148 39.5981 14.7148 53.2534> 197.828 125.76<391.74 520.38 391.74 520.38> 356.228 112.644<36.54 50.9404 50.9404 50.9404>
LayerCount: 2
Fore
SplineSet
197.828125 520.379882812 m 1
 323.587890625 520.379882812 l 1
 323.587890625 391.740234375 l 1
 197.828125 391.740234375 l 1
 197.828125 520.379882812 l 1
260.227539062 -50.8203125 m 0
 338.391601562 -50.8203125 356.227539062 -10.5703125 356.227539062 36.5400390625 c 2
 356.227539062 50.9404296875 l 1
 468.87109375 50.9404296875 l 1
 467.995117188 11.498046875 466.48828125 -56.330078125 411.5390625 -106.569335938 c 0
 374.487304688 -140.4453125 322.678710938 -156.419921875 258.307617188 -156.419921875 c 0
 194.685546875 -156.419921875 142.896484375 -141.493164062 104.668945312 -109.928710938 c 0
 66.26953125 -78.22265625 47.1083984375 -33.80859375 47.1083984375 20.2197265625 c 0
 47.1083984375 86.287109375 72.03125 131.62109375 110.845703125 168.643554688 c 2
 173.490234375 228.396484375 l 2
 197.389648438 251.208984375 204.548828125 266.96484375 204.548828125 303.419921875 c 2
 204.548828125 345.66015625 l 1
 317.829101562 345.66015625 l 1
 317.829101562 299.580078125 l 2
 317.829101562 234.92578125 303.6875 202.951171875 260.422851562 162.306640625 c 2
 260.422851562 162.306640625 209.34765625 114.879882812 206.763671875 112.481445312 c 0
 171.40625 78.357421875 162.307617188 55.13671875 162.307617188 24.0595703125 c 0
 162.307617188 5.3701171875 164.453125 -50.8203125 260.227539062 -50.8203125 c 0
EndSplineSet
EndChar

StartChar: Agrave
Encoding: 192 192 130
Width: 667
GlyphClass: 2
Flags: MW
HStem: 0.0595703 21G<5.33105 5.33105 5.33105 127.923 552.911 552.911 552.911 676.434> 149.82 102.72<228.699 451.116 228.699 492.431 187.443 451.116> 671.26 20G<293.832 386.931 386.931 386.931>
LayerCount: 2
Fore
SplineSet
5.3310546875 0.0595703125 m 1
 293.83203125 691.259765625 l 1
 386.930664062 691.259765625 l 1
 676.43359375 0.0595703125 l 1
 552.911132812 0.0595703125 l 1
 492.430664062 149.8203125 l 1
 187.443359375 149.8203125 l 1
 127.922851562 0.0595703125 l 1
 5.3310546875 0.0595703125 l 1
228.69921875 252.540039062 m 1
 451.116210938 252.540039062 l 1
 339.908203125 530.560546875 l 1
 228.69921875 252.540039062 l 1
157.096679688 871.740234375 m 1
 304.237304688 871.740234375 l 1
 435.772460938 720.059570312 l 1
 321.811523438 720.059570312 l 1
 157.096679688 871.740234375 l 1
EndSplineSet
EndChar

StartChar: Aacute
Encoding: 193 193 131
Width: 667
GlyphClass: 2
Flags: MW
HStem: 0.0595703 21G<5.33105 5.33105 5.33105 127.923 552.911 552.911 552.911 676.434> 149.82 102.72<228.699 451.116 228.699 492.431 187.443 451.116> 671.26 20G<293.832 386.931 386.931 386.931>
LayerCount: 2
Fore
SplineSet
5.3310546875 0.0595703125 m 1
 293.83203125 691.259765625 l 1
 386.930664062 691.259765625 l 1
 676.43359375 0.0595703125 l 1
 552.911132812 0.0595703125 l 1
 492.430664062 149.8203125 l 1
 187.443359375 149.8203125 l 1
 127.922851562 0.0595703125 l 1
 5.3310546875 0.0595703125 l 1
228.69921875 252.540039062 m 1
 451.116210938 252.540039062 l 1
 339.908203125 530.560546875 l 1
 228.69921875 252.540039062 l 1
358.336914062 871.740234375 m 1
 504.479492188 871.740234375 l 1
 339.763671875 720.059570312 l 1
 225.6171875 720.059570312 l 1
 358.336914062 871.740234375 l 1
EndSplineSet
EndChar

StartChar: Acircumflex
Encoding: 194 194 132
Width: 667
GlyphClass: 2
Flags: MW
HStem: 0.0595703 21G<5.33105 5.33105 5.33105 127.923 552.911 552.911 552.911 676.434> 149.82 102.72<228.699 451.116 228.699 492.431 187.443 451.116> 671.26 20G<293.832 386.931 386.931 386.931>
LayerCount: 2
Fore
SplineSet
5.3310546875 0.0595703125 m 1
 293.83203125 691.259765625 l 1
 386.930664062 691.259765625 l 1
 676.43359375 0.0595703125 l 1
 552.911132812 0.0595703125 l 1
 492.430664062 149.8203125 l 1
 187.443359375 149.8203125 l 1
 127.922851562 0.0595703125 l 1
 5.3310546875 0.0595703125 l 1
228.69921875 252.540039062 m 1
 451.116210938 252.540039062 l 1
 339.908203125 530.560546875 l 1
 228.69921875 252.540039062 l 1
302.764648438 884.219726562 m 1
 378.010742188 884.219726562 l 1
 529.611328125 715.259765625 l 1
 414.243164062 715.259765625 l 1
 340.8046875 794.891601562 l 1
 266.481445312 715.259765625 l 1
 151.1640625 715.259765625 l 1
 302.764648438 884.219726562 l 1
EndSplineSet
EndChar

StartChar: Atilde
Encoding: 195 195 133
Width: 667
GlyphClass: 2
Flags: MW
HStem: 0.0595703 21G<5.33105 5.33105 5.33105 127.923 552.911 552.911 552.911 676.434> 149.82 102.72<228.699 451.116 228.699 492.431 187.443 451.116> 671.26 20G<293.832 386.931 386.931 386.931> 699.993 21G<185.348 185.348> 718.14 96<400.271 416.533 400.271 427.905> 754.62 96<264.872 280.834>
LayerCount: 2
Fore
SplineSet
5.3310546875 0.0595703125 m 1xe0
 293.83203125 691.259765625 l 1
 386.930664062 691.259765625 l 1
 676.43359375 0.0595703125 l 1
 552.911132812 0.0595703125 l 1
 492.430664062 149.8203125 l 1
 187.443359375 149.8203125 l 1
 127.922851562 0.0595703125 l 1
 5.3310546875 0.0595703125 l 1xe0
228.69921875 252.540039062 m 1
 451.116210938 252.540039062 l 1
 339.908203125 530.560546875 l 1
 228.69921875 252.540039062 l 1
278.465820312 850.620117188 m 0xf4
 300.52734375 850.620117188 318.315429688 847.259765625 352.911132812 829.977539062 c 0
 383.404296875 815.545898438 393.4375 814.139648438 407.104492188 814.139648438 c 0
 425.961914062 814.139648438 440.581054688 817.5859375 471.096679688 846.647460938 c 2
 495.423828125 869.815429688 l 1
 495.423828125 761.2578125 l 1
 482.31640625 747.775390625 453.504882812 718.139648438 402.3046875 718.139648438 c 0xe8
 379.140625 718.139648438 361.5625 721.48046875 327.025390625 738.719726562 c 0
 294.484375 753.349609375 288 754.620117188 273.66796875 754.620117188 c 0
 256.076171875 754.620117188 241.979492188 751.473632812 209.428710938 721.8828125 c 2
 185.34765625 699.993164062 l 1
 185.34765625 806.877929688 l 1
 208.82421875 829.181640625 234.197265625 850.620117188 278.465820312 850.620117188 c 0xf4
EndSplineSet
EndChar

StartChar: Adieresis
Encoding: 196 196 134
Width: 667
GlyphClass: 2
Flags: MW
HStem: 0.0595703 21G<5.33105 5.33105 5.33105 127.923 552.911 552.911 552.911 676.434> 149.82 102.72<228.699 451.116 228.699 492.431 187.443 451.116> 671.26 20G<293.832 386.931 386.931 386.931> 728.7 120<182.468 292.868 182.468 292.868 182.468 388.868 388.868 498.308>
VStem: 182.468 110.4<728.7 848.7 728.7 848.7> 388.868 109.439<728.7 848.7 728.7 848.7>
LayerCount: 2
Fore
SplineSet
5.3310546875 0.0595703125 m 1
 293.83203125 691.259765625 l 1
 386.930664062 691.259765625 l 1
 676.43359375 0.0595703125 l 1
 552.911132812 0.0595703125 l 1
 492.430664062 149.8203125 l 1
 187.443359375 149.8203125 l 1
 127.922851562 0.0595703125 l 1
 5.3310546875 0.0595703125 l 1
228.69921875 252.540039062 m 1
 451.116210938 252.540039062 l 1
 339.908203125 530.560546875 l 1
 228.69921875 252.540039062 l 1
182.467773438 848.700195312 m 1
 292.868164062 848.700195312 l 1
 292.868164062 728.700195312 l 1
 182.467773438 728.700195312 l 1
 182.467773438 848.700195312 l 1
388.868164062 848.700195312 m 1
 498.307617188 848.700195312 l 1
 498.307617188 728.700195312 l 1
 388.868164062 728.700195312 l 1
 388.868164062 848.700195312 l 1
EndSplineSet
EndChar

StartChar: Aring
Encoding: 197 197 135
Width: 667
GlyphClass: 2
Flags: MW
HStem: 0.0595703 21G<5.34766 127.923 5.34766 5.34766 552.911 676.417 552.911 552.911> 149.82 102.72<228.699 451.116 228.699 492.431 187.443 451.116> 793.98 70.0791<330.421 351.312>
VStem: 236.228 71.04<753.01 769.153 753.01 788.582> 374.468 71.04<753.01 769.155>
LayerCount: 2
Fore
SplineSet
445.5078125 758.459960938 m 0
 445.5078125 739.40234375 440.3515625 695.904296875 396.686523438 669.274414062 c 1
 676.416992188 0.0595703125 l 1
 552.911132812 0.0595703125 l 1
 492.430664062 149.8203125 l 1
 187.443359375 149.8203125 l 1
 127.922851562 0.0595703125 l 1
 5.34765625 0.0595703125 l 1
 284.108398438 669.280273438 l 1
 275.49609375 674.559570312 236.227539062 699.734375 236.227539062 758.459960938 c 0
 236.227539062 818.704101562 279.682617188 864.059570312 340.868164062 864.059570312 c 0
 399.546875 864.059570312 445.5078125 819.979492188 445.5078125 758.459960938 c 0
340.868164062 793.98046875 m 0
 319.974609375 793.98046875 307.267578125 779.846679688 307.267578125 758.459960938 c 0
 307.267578125 747.559570312 310.424804688 739.629882812 316.8359375 732.760742188 c 0
 323.018554688 726.135742188 330.224609375 722.940429688 340.868164062 722.940429688 c 0
 351.510742188 722.940429688 358.716796875 726.135742188 364.900390625 732.760742188 c 0
 371.310546875 739.629882812 374.467773438 747.559570312 374.467773438 758.459960938 c 0
 374.467773438 779.850585938 361.756835938 793.98046875 340.868164062 793.98046875 c 0
228.69921875 252.540039062 m 1
 451.116210938 252.540039062 l 1
 339.908203125 530.560546875 l 1
 228.69921875 252.540039062 l 1
EndSplineSet
EndChar

StartChar: AE
Encoding: 198 198 136
Width: 991
GlyphClass: 2
Flags: MW
HStem: 0.0595703 106.561<584.708 954.308 584.708 954.308> 154.62 102.72<288.738 468.548 288.738 468.548 226.08 468.548> 297.66 106.56<584.708 901.508 584.708 901.508> 584.7 106.56<584.708 954.308 584.708 584.708>
VStem: 468.548 116.16<106.62 154.62 154.62 154.62 257.34 297.66 404.22 552.573 552.573 552.573>
LayerCount: 2
Fore
SplineSet
1.166015625 0.0595703125 m 1
 426.905273438 691.259765625 l 1
 954.307617188 691.259765625 l 1
 954.307617188 584.700195312 l 1
 584.708007812 584.700195312 l 1
 584.708007812 404.219726562 l 1
 901.5078125 404.219726562 l 1
 901.5078125 297.66015625 l 1
 584.708007812 297.66015625 l 1
 584.708007812 106.620117188 l 1
 954.307617188 106.620117188 l 1
 954.307617188 0.0595703125 l 1
 468.547851562 0.0595703125 l 1
 468.547851562 154.620117188 l 1
 226.080078125 154.620117188 l 1
 132 0.0595703125 l 1
 1.166015625 0.0595703125 l 1
468.547851562 257.33984375 m 1
 468.547851562 552.573242188 l 1
 288.73828125 257.33984375 l 1
 468.547851562 257.33984375 l 1
EndSplineSet
EndChar

StartChar: Ccedilla
Encoding: 199 199 137
Width: 680
GlyphClass: 2
Flags: MW
HStem: 593.34 107.521<327.073 384.717>
VStem: 65.3467 116.16<297.66 389.82 226.852 394.62 226.852 444.084> 515.592 116.156<456.06 474.3 474.3 475.26 456.06 493.999>
LayerCount: 2
Fore
SplineSet
359.106445312 98.9404296875 m 0
 433.120117188 98.9404296875 515.586914062 120.930664062 515.586914062 218.940429688 c 2
 515.586914062 237.1796875 l 1
 630.787109375 237.1796875 l 1
 630.787109375 217.98046875 l 2
 630.787109375 157.364257812 611.96484375 106.397460938 573.904296875 67.298828125 c 0
 537.565429688 29.96875 487.993164062 6.6552734375 426.6875 -3.3798828125 c 1
 363.686523438 -145.860351562 l 1
 248.080078125 -145.860351562 l 1
 319.859375 -7.150390625 l 1
 243.7890625 -0.3310546875 182.487304688 26.322265625 137.8984375 73.716796875 c 0
 88.7744140625 125.93359375 65.3466796875 201.368164062 65.3466796875 297.66015625 c 2
 65.3466796875 394.620117188 l 2
 65.3466796875 493.548828125 90.287109375 570.6171875 142.493164062 623.166992188 c 0
 194.46484375 675.48046875 267.541992188 700.860351562 359.107421875 700.860351562 c 0
 441.274414062 700.860351562 507.86328125 681.78515625 557.250976562 641.999023438 c 0
 606.95703125 601.958007812 631.748046875 545.299804688 631.748046875 475.259765625 c 2
 631.748046875 456.059570312 l 1
 515.591796875 456.059570312 l 1
 515.591796875 474.299804688 l 2
 515.591796875 513.698242188 502.4921875 541.698242188 476.54296875 561.787109375 c 0
 450.284179688 582.1171875 411.287109375 593.33984375 358.146484375 593.33984375 c 0
 295.999023438 593.33984375 252.701171875 576.572265625 224.901367188 545.3671875 c 0
 197.030273438 514.083984375 181.506835938 462.9140625 181.506835938 389.8203125 c 2
 181.506835938 296.700195312 l 2
 181.506835938 157.002929688 241.099609375 98.9404296875 359.106445312 98.9404296875 c 0
EndSplineSet
EndChar

StartChar: Egrave
Encoding: 200 200 138
Width: 600
GlyphClass: 2
Flags: MW
HStem: 0.0595703 106.561<192.067 567.428 192.067 567.428> 297.66 106.56<192.067 513.668 192.067 513.668> 584.7 106.56<192.067 567.428 192.067 192.067>
VStem: 75.9082 116.159<106.62 106.62 106.62 297.66 404.22 584.7>
LayerCount: 2
Fore
SplineSet
192.067382812 106.620117188 m 1
 567.427734375 106.620117188 l 1
 567.427734375 0.0595703125 l 1
 75.908203125 0.0595703125 l 1
 75.908203125 691.259765625 l 1
 567.427734375 691.259765625 l 1
 567.427734375 584.700195312 l 1
 192.067382812 584.700195312 l 1
 192.067382812 404.219726562 l 1
 513.66796875 404.219726562 l 1
 513.66796875 297.66015625 l 1
 192.067382812 297.66015625 l 1
 192.067382812 106.620117188 l 1
135.016601562 871.740234375 m 1
 282.157226562 871.740234375 l 1
 413.692382812 720.059570312 l 1
 299.731445312 720.059570312 l 1
 135.016601562 871.740234375 l 1
EndSplineSet
EndChar

StartChar: Eacute
Encoding: 201 201 139
Width: 600
GlyphClass: 2
Flags: MW
HStem: 0.0595703 106.561<192.067 567.428 192.067 567.428> 297.66 106.56<192.067 513.668 192.067 513.668> 584.7 106.56<192.067 567.428 192.067 192.067>
VStem: 75.9082 116.159<106.62 106.62 106.62 297.66 404.22 584.7>
LayerCount: 2
Fore
SplineSet
192.067382812 106.620117188 m 1
 567.427734375 106.620117188 l 1
 567.427734375 0.0595703125 l 1
 75.908203125 0.0595703125 l 1
 75.908203125 691.259765625 l 1
 567.427734375 691.259765625 l 1
 567.427734375 584.700195312 l 1
 192.067382812 584.700195312 l 1
 192.067382812 404.219726562 l 1
 513.66796875 404.219726562 l 1
 513.66796875 297.66015625 l 1
 192.067382812 297.66015625 l 1
 192.067382812 106.620117188 l 1
343.936523438 871.740234375 m 1
 490.079101562 871.740234375 l 1
 325.364257812 720.059570312 l 1
 211.216796875 720.059570312 l 1
 343.936523438 871.740234375 l 1
EndSplineSet
EndChar

StartChar: Ecircumflex
Encoding: 202 202 140
Width: 600
GlyphClass: 2
Flags: MW
HStem: 0.0595703 106.561<192.067 567.428 192.067 567.428> 297.66 106.56<192.067 513.668 192.067 513.668> 584.7 106.56<192.067 567.428 192.067 192.067>
VStem: 75.9082 116.159<106.62 106.62 106.62 297.66 404.22 584.7>
LayerCount: 2
Fore
SplineSet
192.067382812 106.620117188 m 1
 567.427734375 106.620117188 l 1
 567.427734375 0.0595703125 l 1
 75.908203125 0.0595703125 l 1
 75.908203125 691.259765625 l 1
 567.427734375 691.259765625 l 1
 567.427734375 584.700195312 l 1
 192.067382812 584.700195312 l 1
 192.067382812 404.219726562 l 1
 513.66796875 404.219726562 l 1
 513.66796875 297.66015625 l 1
 192.067382812 297.66015625 l 1
 192.067382812 106.620117188 l 1
280.685546875 884.219726562 m 1
 355.930664062 884.219726562 l 1
 507.53125 715.259765625 l 1
 392.163085938 715.259765625 l 1
 318.724609375 794.891601562 l 1
 244.401367188 715.259765625 l 1
 129.083984375 715.259765625 l 1
 280.685546875 884.219726562 l 1
EndSplineSet
EndChar

StartChar: Edieresis
Encoding: 203 203 141
Width: 600
GlyphClass: 2
Flags: MW
HStem: 0.0595703 106.561<192.067 567.428 192.067 567.428> 297.66 106.56<192.067 513.668 192.067 513.668> 584.7 106.56<192.067 567.428 192.067 192.067> 728.7 120<160.388 270.788 160.388 270.788 160.388 366.788 366.788 476.228>
VStem: 75.9082 116.159<106.62 106.62 106.62 297.66 404.22 584.7> 160.388 110.4<728.7 848.7 728.7 848.7> 366.788 109.439<728.7 848.7 728.7 848.7>
LayerCount: 2
Fore
SplineSet
192.067382812 106.620117188 m 1xfa
 567.427734375 106.620117188 l 1
 567.427734375 0.0595703125 l 1
 75.908203125 0.0595703125 l 1
 75.908203125 691.259765625 l 1
 567.427734375 691.259765625 l 1
 567.427734375 584.700195312 l 1
 192.067382812 584.700195312 l 1
 192.067382812 404.219726562 l 1
 513.66796875 404.219726562 l 1
 513.66796875 297.66015625 l 1
 192.067382812 297.66015625 l 1
 192.067382812 106.620117188 l 1xfa
160.387695312 848.700195312 m 1xf6
 270.788085938 848.700195312 l 1
 270.788085938 728.700195312 l 1
 160.387695312 728.700195312 l 1
 160.387695312 848.700195312 l 1xf6
366.788085938 848.700195312 m 1
 476.227539062 848.700195312 l 1
 476.227539062 728.700195312 l 1
 366.788085938 728.700195312 l 1
 366.788085938 848.700195312 l 1
EndSplineSet
EndChar

StartChar: Igrave
Encoding: 204 204 142
Width: 263
GlyphClass: 2
Flags: MW
HStem: 0.0595703 21G<82.6279 198.788 82.6279 82.6279> 671.26 20G<82.6279 198.788 198.788 198.788>
VStem: 82.6279 116.16<0.0595703 691.26 0.0595703 691.26>
LayerCount: 2
Fore
SplineSet
82.6279296875 691.259765625 m 1
 198.788085938 691.259765625 l 1
 198.788085938 0.0595703125 l 1
 82.6279296875 0.0595703125 l 1
 82.6279296875 691.259765625 l 1
-42.5830078125 871.740234375 m 1
 104.557617188 871.740234375 l 1
 236.092773438 720.059570312 l 1
 122.131835938 720.059570312 l 1
 -42.5830078125 871.740234375 l 1
EndSplineSet
EndChar

StartChar: Iacute
Encoding: 205 205 143
Width: 263
GlyphClass: 2
Flags: MW
HStem: 0.0595703 21G<82.6279 198.788 82.6279 82.6279> 671.26 20G<82.6279 198.788 198.788 198.788>
VStem: 82.6279 116.16<0.0595703 691.26 0.0595703 691.26>
LayerCount: 2
Fore
SplineSet
82.6279296875 691.259765625 m 1
 198.788085938 691.259765625 l 1
 198.788085938 0.0595703125 l 1
 82.6279296875 0.0595703125 l 1
 82.6279296875 691.259765625 l 1
312.479492188 871.740234375 m 1
 147.763671875 720.059570312 l 1
 33.6171875 720.059570312 l 1
 166.336914062 871.740234375 l 1
 312.479492188 871.740234375 l 1
EndSplineSet
EndChar

StartChar: Icircumflex
Encoding: 206 206 144
Width: 263
GlyphClass: 2
Flags: MW
HStem: 0.0595703 21G<82.6279 198.788 82.6279 82.6279> 671.26 20G<82.6279 198.788 198.788 198.788>
VStem: 82.6279 116.16<0.0595703 691.26 0.0595703 691.26>
LayerCount: 2
Fore
SplineSet
82.6279296875 691.259765625 m 1
 198.788085938 691.259765625 l 1
 198.788085938 0.0595703125 l 1
 82.6279296875 0.0595703125 l 1
 82.6279296875 691.259765625 l 1
103.084960938 884.219726562 m 1
 178.330078125 884.219726562 l 1
 329.931640625 715.259765625 l 1
 214.5625 715.259765625 l 1
 141.125 794.891601562 l 1
 66.8017578125 715.259765625 l 1
 -48.515625 715.259765625 l 1
 103.084960938 884.219726562 l 1
EndSplineSet
EndChar

StartChar: Idieresis
Encoding: 207 207 145
Width: 263
GlyphClass: 2
Flags: MW
HStem: 0.0595703 21G<82.6279 198.788 82.6279 82.6279> 671.26 20G<82.6279 198.788 198.788 198.788> 728.7 120<-17.2119 93.1875 -17.2119 93.1875 -17.2119 189.188 189.188 298.628>
VStem: -17.2119 110.399<728.7 848.7 728.7 848.7> 82.6279 116.16<0.0595703 691.26 0.0595703 691.26> 189.188 109.44<728.7 848.7 728.7 848.7>
LayerCount: 2
Fore
SplineSet
82.6279296875 691.259765625 m 1xe8
 198.788085938 691.259765625 l 1
 198.788085938 0.0595703125 l 1
 82.6279296875 0.0595703125 l 1
 82.6279296875 691.259765625 l 1xe8
-17.2119140625 848.700195312 m 1xf0
 93.1875 848.700195312 l 1
 93.1875 728.700195312 l 1
 -17.2119140625 728.700195312 l 1
 -17.2119140625 848.700195312 l 1xf0
189.1875 848.700195312 m 1xe4
 298.627929688 848.700195312 l 1
 298.627929688 728.700195312 l 1
 189.1875 728.700195312 l 1
 189.1875 848.700195312 l 1xe4
EndSplineSet
EndChar

StartChar: Eth
Encoding: 208 208 146
Width: 724
GlyphClass: 2
Flags: MW
HStem: 0.0595703 106.56<241.028 382.147> 297.659 106.56<241.028 404.228 241.028 404.228> 584.699 106.561<241.028 384.067 241.028 241.028>
VStem: 124.868 116.16<106.619 297.659 106.619 297.66 106.619 297.66 404.22 584.699> 558.788 116.16<300.539 302.459 302.459 385.02 385.02 389.819 253.625 458.555>
LayerCount: 2
Fore
SplineSet
674.948242188 389.819335938 m 2
 674.948242188 302.458984375 l 2
 674.948242188 204.791015625 650.149414062 128.661132812 598.248046875 76.759765625 c 0
 546.567382812 25.080078125 473.66796875 0.0595703125 382.147460938 0.0595703125 c 2
 124.868164062 0.0595703125 l 1
 124.868164062 297.66015625 l 1
 39.427734375 297.66015625 l 1
 39.427734375 404.219726562 l 1
 124.868164062 404.219726562 l 1
 124.868164062 691.259765625 l 1
 384.067382812 691.259765625 l 2
 474.950195312 691.259765625 547.370117188 666.3984375 598.728515625 615.040039062 c 0
 650.331054688 563.4375 674.948242188 487.462890625 674.948242188 389.819335938 c 2
384.067382812 106.619140625 m 2
 498.28125 106.619140625 558.788085938 160.787109375 558.788085938 300.5390625 c 2
 558.788085938 385.01953125 l 2
 558.788085938 532.08984375 495.176757812 584.69921875 384.067382812 584.69921875 c 2
 241.028320312 584.69921875 l 1
 241.028320312 404.21875 l 1
 404.227539062 404.21875 l 1
 404.227539062 297.659179688 l 1
 241.028320312 297.659179688 l 1
 241.028320312 106.619140625 l 1
 384.067382812 106.619140625 l 2
EndSplineSet
EndChar

StartChar: Ntilde
Encoding: 209 209 147
Width: 720
GlyphClass: 2
Flags: MW
HStem: 0.0595703 21G<75.9082 192.067 75.9082 75.9082 549.61 658.628 549.61 549.61> 671.26 20G<75.9082 184.934 184.934 184.934 542.468 658.628 658.628 658.628> 699.993 21G<209.348 209.348> 718.14 96<424.271 440.533 424.271 451.905> 754.62 96<288.872 304.834>
VStem: 75.9082 116.159<0.0595703 483.421 0.0595703 691.26> 542.468 116.16<207.005 691.26 0.0595703 691.26>
LayerCount: 2
Fore
SplineSet
658.627929688 691.259765625 m 1xc6
 658.627929688 0.0595703125 l 1
 549.610351562 0.0595703125 l 1
 192.067382812 483.420898438 l 1
 192.067382812 0.0595703125 l 1
 75.908203125 0.0595703125 l 1
 75.908203125 691.259765625 l 1
 184.93359375 691.259765625 l 1
 542.467773438 207.004882812 l 1
 542.467773438 691.259765625 l 1
 658.627929688 691.259765625 l 1xc6
302.463867188 850.620117188 m 0xee
 324.526367188 850.620117188 342.31640625 847.259765625 376.911132812 829.977539062 c 0
 407.404296875 815.545898438 417.4375 814.139648438 431.104492188 814.139648438 c 0
 449.961914062 814.139648438 464.581054688 817.5859375 495.096679688 846.647460938 c 2
 519.423828125 869.815429688 l 1
 519.423828125 761.2578125 l 1
 506.31640625 747.775390625 477.504882812 718.139648438 426.3046875 718.139648438 c 0xd6
 403.140625 718.139648438 385.5625 721.48046875 351.025390625 738.719726562 c 0
 318.484375 753.349609375 312 754.620117188 297.66796875 754.620117188 c 0
 280.076171875 754.620117188 265.979492188 751.473632812 233.428710938 721.8828125 c 2
 209.34765625 699.993164062 l 1
 209.34765625 806.877929688 l 1
 232.822265625 829.180664062 258.193359375 850.620117188 302.463867188 850.620117188 c 0xee
EndSplineSet
EndChar

StartChar: Ograve
Encoding: 210 210 148
Width: 695
GlyphClass: 2
Flags: MW
HStem: -8.58008 107.521<309.144 399.782> 593.34 107.521<325.489 402.352 311.713 415.912>
VStem: 65.3477 116.16<297.66 389.82 224.358 394.62 224.358 444.076> 530.948 115.199<296.701 297.66 297.66 389.821 389.821 394.62 248.205 460.014>
LayerCount: 2
Fore
SplineSet
65.34765625 297.66015625 m 2
 65.34765625 394.620117188 l 2
 65.34765625 493.53125 90.111328125 570.576171875 141.98046875 623.1328125 c 0
 193.622070312 675.458007812 266.239257812 700.860351562 357.1875 700.860351562 c 0
 447.515625 700.860351562 519.538085938 675.4375 570.54296875 623.063476562 c 0
 621.739257812 570.494140625 646.147460938 493.495117188 646.147460938 394.620117188 c 2
 646.147460938 297.66015625 l 2
 646.147460938 198.749023438 621.384765625 121.704101562 569.515625 69.1474609375 c 0
 517.874023438 16.8212890625 445.255859375 -8.580078125 354.307617188 -8.580078125 c 0
 263.979492188 -8.580078125 191.95703125 16.8427734375 140.952148438 69.216796875 c 0
 89.7568359375 121.786132812 65.34765625 198.78515625 65.34765625 297.66015625 c 2
356.227539062 98.9404296875 m 0
 473.196289062 98.9404296875 530.948242188 158.583007812 530.948242188 296.701171875 c 2
 530.948242188 389.821289062 l 2
 530.948242188 530.20703125 475.595703125 593.33984375 356.227539062 593.33984375 c 0
 294.750976562 593.33984375 251.966796875 576.604492188 224.470703125 545.422851562 c 0
 196.889648438 514.14453125 181.5078125 462.934570312 181.5078125 389.8203125 c 2
 181.5078125 296.700195312 l 2
 181.5078125 152.016601562 244.143554688 98.9404296875 356.227539062 98.9404296875 c 0
319.59765625 871.741210938 m 1
 451.1328125 720.060546875 l 1
 337.171875 720.060546875 l 1
 172.45703125 871.741210938 l 1
 319.59765625 871.741210938 l 1
EndSplineSet
EndChar

StartChar: Oacute
Encoding: 211 211 149
Width: 695
GlyphClass: 2
Flags: MW
HStem: -8.58008 107.521<309.144 399.782> 593.34 107.521<325.489 402.352 311.713 415.912>
VStem: 65.3477 116.16<297.66 389.82 224.358 394.62 224.358 444.076> 530.948 115.199<296.701 297.66 297.66 389.821 389.821 394.62 248.205 460.014>
LayerCount: 2
Fore
SplineSet
65.34765625 297.66015625 m 2
 65.34765625 394.620117188 l 2
 65.34765625 493.53125 90.111328125 570.576171875 141.98046875 623.1328125 c 0
 193.622070312 675.458007812 266.239257812 700.860351562 357.1875 700.860351562 c 0
 447.515625 700.860351562 519.538085938 675.4375 570.54296875 623.063476562 c 0
 621.739257812 570.494140625 646.147460938 493.495117188 646.147460938 394.620117188 c 2
 646.147460938 297.66015625 l 2
 646.147460938 198.749023438 621.384765625 121.704101562 569.515625 69.1474609375 c 0
 517.874023438 16.8212890625 445.255859375 -8.580078125 354.307617188 -8.580078125 c 0
 263.979492188 -8.580078125 191.95703125 16.8427734375 140.952148438 69.216796875 c 0
 89.7568359375 121.786132812 65.34765625 198.78515625 65.34765625 297.66015625 c 2
356.227539062 98.9404296875 m 0
 473.196289062 98.9404296875 530.948242188 158.583007812 530.948242188 296.701171875 c 2
 530.948242188 389.821289062 l 2
 530.948242188 530.20703125 475.595703125 593.33984375 356.227539062 593.33984375 c 0
 294.750976562 593.33984375 251.966796875 576.604492188 224.470703125 545.422851562 c 0
 196.889648438 514.14453125 181.5078125 462.934570312 181.5078125 389.8203125 c 2
 181.5078125 296.700195312 l 2
 181.5078125 152.016601562 244.143554688 98.9404296875 356.227539062 98.9404296875 c 0
371.77734375 871.741210938 m 1
 517.918945312 871.741210938 l 1
 353.204101562 720.060546875 l 1
 239.056640625 720.060546875 l 1
 371.77734375 871.741210938 l 1
EndSplineSet
EndChar

StartChar: Ocircumflex
Encoding: 212 212 150
Width: 695
GlyphClass: 2
Flags: MW
HStem: -8.58008 107.521<309.144 399.782> 593.34 107.521<325.489 402.352 311.713 415.912>
VStem: 65.3477 116.16<297.66 389.82 224.358 394.62 224.358 444.076> 530.948 115.199<296.701 297.66 297.66 389.821 389.821 394.62 248.205 460.014>
LayerCount: 2
Fore
SplineSet
65.34765625 297.66015625 m 2
 65.34765625 394.620117188 l 2
 65.34765625 493.53125 90.111328125 570.576171875 141.98046875 623.1328125 c 0
 193.622070312 675.458007812 266.239257812 700.860351562 357.1875 700.860351562 c 0
 447.515625 700.860351562 519.538085938 675.4375 570.54296875 623.063476562 c 0
 621.739257812 570.494140625 646.147460938 493.495117188 646.147460938 394.620117188 c 2
 646.147460938 297.66015625 l 2
 646.147460938 198.749023438 621.384765625 121.704101562 569.515625 69.1474609375 c 0
 517.874023438 16.8212890625 445.255859375 -8.580078125 354.307617188 -8.580078125 c 0
 263.979492188 -8.580078125 191.95703125 16.8427734375 140.952148438 69.216796875 c 0
 89.7568359375 121.786132812 65.34765625 198.78515625 65.34765625 297.66015625 c 2
356.227539062 98.9404296875 m 0
 473.196289062 98.9404296875 530.948242188 158.583007812 530.948242188 296.701171875 c 2
 530.948242188 389.821289062 l 2
 530.948242188 530.20703125 475.595703125 593.33984375 356.227539062 593.33984375 c 0
 294.750976562 593.33984375 251.966796875 576.604492188 224.470703125 545.422851562 c 0
 196.889648438 514.14453125 181.5078125 462.934570312 181.5078125 389.8203125 c 2
 181.5078125 296.700195312 l 2
 181.5078125 152.016601562 244.143554688 98.9404296875 356.227539062 98.9404296875 c 0
393.370117188 884.220703125 m 1
 544.971679688 715.260742188 l 1
 429.602539062 715.260742188 l 1
 356.165039062 794.892578125 l 1
 281.841796875 715.260742188 l 1
 166.524414062 715.260742188 l 1
 318.125 884.220703125 l 1
 393.370117188 884.220703125 l 1
EndSplineSet
EndChar

StartChar: Otilde
Encoding: 213 213 151
Width: 695
GlyphClass: 2
Flags: MW
HStem: -8.58008 107.521<309.144 399.782> 593.34 107.521<325.489 402.352 311.713 415.912> 699.994 21G<200.708 200.708> 718.141 96<415.631 431.893 415.631 443.265> 754.621 96<280.232 296.194>
VStem: 65.3477 116.16<297.66 389.82 224.358 394.62 224.358 444.076> 530.948 115.199<296.701 297.66 297.66 389.821 389.821 394.62 248.205 460.014>
LayerCount: 2
Fore
SplineSet
65.34765625 297.66015625 m 2xc6
 65.34765625 394.620117188 l 2
 65.34765625 493.53125 90.111328125 570.576171875 141.98046875 623.1328125 c 0
 193.622070312 675.458007812 266.239257812 700.860351562 357.1875 700.860351562 c 0
 447.515625 700.860351562 519.538085938 675.4375 570.54296875 623.063476562 c 0
 621.739257812 570.494140625 646.147460938 493.495117188 646.147460938 394.620117188 c 2
 646.147460938 297.66015625 l 2
 646.147460938 198.749023438 621.384765625 121.704101562 569.515625 69.1474609375 c 0
 517.874023438 16.8212890625 445.255859375 -8.580078125 354.307617188 -8.580078125 c 0
 263.979492188 -8.580078125 191.95703125 16.8427734375 140.952148438 69.216796875 c 0
 89.7568359375 121.786132812 65.34765625 198.78515625 65.34765625 297.66015625 c 2xc6
356.227539062 98.9404296875 m 0
 473.196289062 98.9404296875 530.948242188 158.583007812 530.948242188 296.701171875 c 2
 530.948242188 389.821289062 l 2
 530.948242188 530.20703125 475.595703125 593.33984375 356.227539062 593.33984375 c 0
 294.750976562 593.33984375 251.966796875 576.604492188 224.470703125 545.422851562 c 0
 196.889648438 514.14453125 181.5078125 462.934570312 181.5078125 389.8203125 c 2
 181.5078125 296.700195312 l 2
 181.5078125 152.016601562 244.143554688 98.9404296875 356.227539062 98.9404296875 c 0
293.82421875 850.62109375 m 0xae
 315.88671875 850.62109375 333.676757812 847.260742188 368.271484375 829.978515625 c 0
 398.763671875 815.546875 408.797851562 814.140625 422.463867188 814.140625 c 0
 441.322265625 814.140625 455.94140625 817.586914062 486.45703125 846.6484375 c 2
 510.784179688 869.81640625 l 1
 510.784179688 761.258789062 l 1
 497.676757812 747.776367188 468.864257812 718.140625 417.665039062 718.140625 c 0x96
 394.5 718.140625 376.922851562 721.481445312 342.384765625 738.720703125 c 0
 309.844726562 753.350585938 303.360351562 754.62109375 289.028320312 754.62109375 c 0
 271.436523438 754.62109375 257.338867188 751.474609375 224.788085938 721.883789062 c 2
 200.708007812 699.994140625 l 1
 200.708007812 806.87890625 l 1
 224.182617188 829.181640625 249.553710938 850.62109375 293.82421875 850.62109375 c 0xae
EndSplineSet
EndChar

StartChar: Odieresis
Encoding: 214 214 152
Width: 695
GlyphClass: 2
Flags: MW
HStem: -8.58008 107.521<309.144 399.782> 593.34 107.521<325.489 402.352 311.713 415.912> 728.701 120<197.828 308.228 197.828 308.228 197.828 404.228 404.228 513.668>
VStem: 65.3477 116.16<297.66 389.82 224.358 394.62 224.358 444.076> 197.828 110.399<728.701 848.701 728.701 848.701> 404.228 109.44<728.701 848.701 728.701 848.701> 530.948 115.199<296.701 297.66 297.66 389.821 389.821 394.62 248.205 460.014>
LayerCount: 2
Fore
SplineSet
65.34765625 297.66015625 m 2
 65.34765625 394.620117188 l 2
 65.34765625 493.53125 90.111328125 570.576171875 141.98046875 623.1328125 c 0
 193.622070312 675.458007812 266.239257812 700.860351562 357.1875 700.860351562 c 0
 447.515625 700.860351562 519.538085938 675.4375 570.54296875 623.063476562 c 0
 621.739257812 570.494140625 646.147460938 493.495117188 646.147460938 394.620117188 c 2
 646.147460938 297.66015625 l 2
 646.147460938 198.749023438 621.384765625 121.704101562 569.515625 69.1474609375 c 0
 517.874023438 16.8212890625 445.255859375 -8.580078125 354.307617188 -8.580078125 c 0
 263.979492188 -8.580078125 191.95703125 16.8427734375 140.952148438 69.216796875 c 0
 89.7568359375 121.786132812 65.34765625 198.78515625 65.34765625 297.66015625 c 2
356.227539062 98.9404296875 m 0
 473.196289062 98.9404296875 530.948242188 158.583007812 530.948242188 296.701171875 c 2
 530.948242188 389.821289062 l 2
 530.948242188 530.20703125 475.595703125 593.33984375 356.227539062 593.33984375 c 0
 294.750976562 593.33984375 251.966796875 576.604492188 224.470703125 545.422851562 c 0
 196.889648438 514.14453125 181.5078125 462.934570312 181.5078125 389.8203125 c 2
 181.5078125 296.700195312 l 2
 181.5078125 152.016601562 244.143554688 98.9404296875 356.227539062 98.9404296875 c 0
197.828125 848.701171875 m 1
 308.227539062 848.701171875 l 1
 308.227539062 728.701171875 l 1
 197.828125 728.701171875 l 1
 197.828125 848.701171875 l 1
404.227539062 848.701171875 m 1
 513.66796875 848.701171875 l 1
 513.66796875 728.701171875 l 1
 404.227539062 728.701171875 l 1
 404.227539062 848.701171875 l 1
EndSplineSet
EndChar

StartChar: multiply
Encoding: 215 215 153
Width: 514
GlyphClass: 2
Flags: W
LayerCount: 2
Fore
SplineSet
265.98828125 207.219726562 m 1
 150.788085938 92.01953125 l 1
 78.62890625 164.177734375 l 1
 193.829101562 280.337890625 l 1
 78.5869140625 395.580078125 l 1
 150.788085938 467.780273438 l 1
 265.98828125 352.581054688 l 1
 381.1875 467.780273438 l 1
 453.388671875 395.580078125 l 1
 338.146484375 280.337890625 l 1
 453.346679688 164.177734375 l 1
 381.1875 92.01953125 l 1
 265.98828125 207.219726562 l 1
EndSplineSet
EndChar

StartChar: Oslash
Encoding: 216 216 154
Width: 695
GlyphClass: 2
Flags: MW
HStem: -8.58008 107.521<335.418 399.781> 593.34 107.521<325.489 376.46>
VStem: 65.3477 116.159<297.66 389.82 274.276 394.62 274.276 444.076> 530.947 115.2<296.7 297.66 297.66 389.82 389.82 394.62 248.205 413.602>
LayerCount: 2
Fore
SplineSet
354.306640625 -8.580078125 m 0
 293.362304688 -8.580078125 240.586914062 3.021484375 196.603515625 26.8779296875 c 1
 166.213867188 -19.1396484375 l 1
 62.765625 -19.1396484375 l 1
 129 82.419921875 l 1
 85.9921875 135.201171875 65.34765625 207.547851562 65.34765625 297.66015625 c 2
 65.34765625 394.620117188 l 2
 65.34765625 493.53125 90.111328125 570.576171875 141.98046875 623.1328125 c 0
 193.622070312 675.458007812 266.239257812 700.860351562 357.1875 700.860351562 c 0
 418.5625 700.860351562 471.3203125 689.326171875 514.829101562 665.51953125 c 1
 545.202148438 712.379882812 l 1
 647.76953125 712.379882812 l 1
 581.612304688 610.9375 l 1
 625.2578125 558.612304688 646.147460938 485.866210938 646.147460938 394.620117188 c 2
 646.147460938 297.66015625 l 2
 646.147460938 198.749023438 621.383789062 121.704101562 569.514648438 69.1474609375 c 0
 517.873046875 16.8212890625 445.255859375 -8.580078125 354.306640625 -8.580078125 c 0
356.2265625 593.33984375 m 0
 294.750976562 593.33984375 251.965820312 576.604492188 224.469726562 545.422851562 c 0
 196.888671875 514.14453125 181.506835938 462.934570312 181.506835938 389.8203125 c 2
 181.506835938 296.700195312 l 2
 181.506835938 251.8515625 187.51171875 215.477539062 198.70703125 187.37109375 c 1
 453.215820312 572.669921875 l 1
 428.7890625 586.114257812 396.693359375 593.33984375 356.2265625 593.33984375 c 0
356.2265625 98.9404296875 m 0
 473.256835938 98.9404296875 530.947265625 158.65234375 530.947265625 296.700195312 c 2
 530.947265625 389.8203125 l 2
 530.947265625 437.3828125 524.354492188 475.7734375 512.048828125 505.24609375 c 1
 257.329101562 119.627929688 l 1
 281.872070312 106.205078125 314.609375 98.9404296875 356.2265625 98.9404296875 c 0
EndSplineSet
EndChar

StartChar: Ugrave
Encoding: 217 217 155
Width: 692
GlyphClass: 2
Flags: MW
HStem: -5.7002 105.601<310.855 395.841> 671.26 20G<75.9082 192.067 192.067 192.067 514.628 630.788 630.788 630.788>
VStem: 75.9082 116.159<251.58 257.34 257.34 691.26> 514.628 116.16<257.34 691.26>
LayerCount: 2
Fore
SplineSet
353.34765625 99.900390625 m 0
 473.571289062 99.900390625 514.627929688 162.240234375 514.627929688 257.33984375 c 2
 514.627929688 691.259765625 l 1
 630.788085938 691.259765625 l 1
 630.788085938 251.580078125 l 2
 630.788085938 171.8515625 606.383789062 107.666992188 556.516601562 61.9267578125 c 0
 506.78515625 16.3115234375 438.333984375 -5.7001953125 353.34765625 -5.7001953125 c 0
 268.362304688 -5.7001953125 199.911132812 16.3115234375 150.1796875 61.9267578125 c 0
 100.3125 107.666992188 75.908203125 171.8515625 75.908203125 251.580078125 c 2
 75.908203125 691.259765625 l 1
 192.067382812 691.259765625 l 1
 192.067382812 257.33984375 l 2
 192.067382812 162.280273438 233.086914062 99.900390625 353.34765625 99.900390625 c 0
169.576171875 871.740234375 m 1
 316.717773438 871.740234375 l 1
 448.251953125 720.059570312 l 1
 334.291992188 720.059570312 l 1
 169.576171875 871.740234375 l 1
EndSplineSet
EndChar

StartChar: Uacute
Encoding: 218 218 156
Width: 692
GlyphClass: 2
Flags: MW
HStem: -5.7002 105.601<310.855 395.841> 671.26 20G<75.9082 192.067 192.067 192.067 514.628 630.788 630.788 630.788>
VStem: 75.9082 116.159<251.58 257.34 257.34 691.26> 514.628 116.16<257.34 691.26>
LayerCount: 2
Fore
SplineSet
353.34765625 99.900390625 m 0
 473.571289062 99.900390625 514.627929688 162.240234375 514.627929688 257.33984375 c 2
 514.627929688 691.259765625 l 1
 630.788085938 691.259765625 l 1
 630.788085938 251.580078125 l 2
 630.788085938 171.8515625 606.383789062 107.666992188 556.516601562 61.9267578125 c 0
 506.78515625 16.3115234375 438.333984375 -5.7001953125 353.34765625 -5.7001953125 c 0
 268.362304688 -5.7001953125 199.911132812 16.3115234375 150.1796875 61.9267578125 c 0
 100.3125 107.666992188 75.908203125 171.8515625 75.908203125 251.580078125 c 2
 75.908203125 691.259765625 l 1
 192.067382812 691.259765625 l 1
 192.067382812 257.33984375 l 2
 192.067382812 162.280273438 233.086914062 99.900390625 353.34765625 99.900390625 c 0
378.497070312 871.740234375 m 1
 524.638671875 871.740234375 l 1
 359.923828125 720.059570312 l 1
 245.77734375 720.059570312 l 1
 378.497070312 871.740234375 l 1
EndSplineSet
EndChar

StartChar: Ucircumflex
Encoding: 219 219 157
Width: 692
GlyphClass: 2
Flags: MW
HStem: -5.7002 105.601<310.855 395.841> 671.26 20G<75.9082 192.067 192.067 192.067 514.628 630.788 630.788 630.788>
VStem: 75.9082 116.159<251.58 257.34 257.34 691.26> 514.628 116.16<257.34 691.26>
LayerCount: 2
Fore
SplineSet
353.34765625 99.900390625 m 0
 473.571289062 99.900390625 514.627929688 162.240234375 514.627929688 257.33984375 c 2
 514.627929688 691.259765625 l 1
 630.788085938 691.259765625 l 1
 630.788085938 251.580078125 l 2
 630.788085938 171.8515625 606.383789062 107.666992188 556.516601562 61.9267578125 c 0
 506.78515625 16.3115234375 438.333984375 -5.7001953125 353.34765625 -5.7001953125 c 0
 268.362304688 -5.7001953125 199.911132812 16.3115234375 150.1796875 61.9267578125 c 0
 100.3125 107.666992188 75.908203125 171.8515625 75.908203125 251.580078125 c 2
 75.908203125 691.259765625 l 1
 192.067382812 691.259765625 l 1
 192.067382812 257.33984375 l 2
 192.067382812 162.280273438 233.086914062 99.900390625 353.34765625 99.900390625 c 0
315.245117188 884.219726562 m 1
 390.490234375 884.219726562 l 1
 542.091796875 715.259765625 l 1
 426.72265625 715.259765625 l 1
 353.284179688 794.891601562 l 1
 278.961914062 715.259765625 l 1
 163.643554688 715.259765625 l 1
 315.245117188 884.219726562 l 1
EndSplineSet
EndChar

StartChar: Udieresis
Encoding: 220 220 158
Width: 692
GlyphClass: 2
Flags: MW
HStem: -5.7002 105.601<310.855 395.841> 671.26 20G<75.9082 192.067 192.067 192.067 514.628 630.788 630.788 630.788> 728.7 120<194.948 305.348 194.948 305.348 194.948 401.348 401.348 510.788>
VStem: 75.9082 116.159<251.58 257.34 257.34 691.26> 194.948 110.399<728.7 848.7 728.7 848.7> 401.348 109.44<728.7 848.7 728.7 848.7> 514.628 116.16<257.34 691.26>
LayerCount: 2
Fore
SplineSet
353.34765625 99.900390625 m 0
 473.571289062 99.900390625 514.627929688 162.240234375 514.627929688 257.33984375 c 2
 514.627929688 691.259765625 l 1
 630.788085938 691.259765625 l 1
 630.788085938 251.580078125 l 2
 630.788085938 171.8515625 606.383789062 107.666992188 556.516601562 61.9267578125 c 0
 506.78515625 16.3115234375 438.333984375 -5.7001953125 353.34765625 -5.7001953125 c 0
 268.362304688 -5.7001953125 199.911132812 16.3115234375 150.1796875 61.9267578125 c 0
 100.3125 107.666992188 75.908203125 171.8515625 75.908203125 251.580078125 c 2
 75.908203125 691.259765625 l 1
 192.067382812 691.259765625 l 1
 192.067382812 257.33984375 l 2
 192.067382812 162.280273438 233.086914062 99.900390625 353.34765625 99.900390625 c 0
194.948242188 848.700195312 m 1
 305.34765625 848.700195312 l 1
 305.34765625 728.700195312 l 1
 194.948242188 728.700195312 l 1
 194.948242188 848.700195312 l 1
401.34765625 848.700195312 m 1
 510.788085938 848.700195312 l 1
 510.788085938 728.700195312 l 1
 401.34765625 728.700195312 l 1
 401.34765625 848.700195312 l 1
EndSplineSet
EndChar

StartChar: Yacute
Encoding: 221 221 159
Width: 583
GlyphClass: 2
Flags: MW
HStem: 0.0595703 21G<241.988 357.188 241.988 241.988> 671.26 20G<1.91602 133.411 133.411 133.411 465.72 597.229 597.229 597.229>
VStem: 241.988 115.199<0.0595703 277.465 0.0595703 278.417 0.0595703 278.417>
LayerCount: 2
Fore
SplineSet
465.719726562 691.259765625 m 1
 597.228515625 691.259765625 l 1
 357.1875 277.46484375 l 1
 357.1875 0.0595703125 l 1
 241.98828125 0.0595703125 l 1
 241.98828125 278.416992188 l 1
 1.916015625 691.259765625 l 1
 133.411132812 691.259765625 l 1
 300.478515625 385.42578125 l 1
 465.719726562 691.259765625 l 1
324.737304688 871.740234375 m 1
 470.87890625 871.740234375 l 1
 306.1640625 720.059570312 l 1
 192.016601562 720.059570312 l 1
 324.737304688 871.740234375 l 1
EndSplineSet
EndChar

StartChar: Thorn
Encoding: 222 222 160
Width: 638
GlyphClass: 2
Flags: MW
HStem: 0.0595703 21G<75.9072 192.067 75.9072 75.9072> 148.86 106.56<192.067 375.427 192.067 192.067> 467.58 106.56<192.067 372.546 192.066 375.427> 671.26 20G<75.9072 192.067 192.067 192.067>
VStem: 75.9072 116.159<255.42 467.58 255.42 691.26> 502.146 115.2<338.888 380.309>
LayerCount: 2
Fore
SplineSet
375.426757812 574.139648438 m 2
 418.379882812 574.139648438 617.345703125 573.1171875 617.345703125 361.01953125 c 0
 617.345703125 316.756835938 611.287109375 148.860351562 375.426757812 148.860351562 c 2
 192.067382812 148.860351562 l 1
 192.067382812 0.0595703125 l 1
 75.9072265625 0.0595703125 l 1
 75.9072265625 691.259765625 l 1
 192.067382812 691.259765625 l 1
 192.067382812 574.139648438 l 1
 375.426757812 574.139648438 l 2
377.345703125 255.419921875 m 2
 478.748046875 255.419921875 502.145507812 300.240234375 502.145507812 360.059570312 c 0
 502.145507812 400.557617188 491.379882812 426.610351562 472.776367188 442.11328125 c 0
 453.733398438 457.982421875 420.85546875 467.580078125 372.545898438 467.580078125 c 2
 192.06640625 467.580078125 l 1
 192.06640625 255.419921875 l 1
 377.345703125 255.419921875 l 2
EndSplineSet
EndChar

StartChar: germandbls
Encoding: 223 223 161
Width: 564
GlyphClass: 2
Flags: MW
HStem: -3.78027 100.801<272.708 316.868 316.868 321.668 272.708 316.868> 366.78 100.8<271.749 310.148 271.749 315.909> 597.179 101.762<276.999 319.404>
VStem: 71.1074 110.4<0.0595703 487.74 487.74 496.38 0.0595703 580.208> 404.229 110.399<518.887 543.347> 412.868 110.399<211.647 276.704>
LayerCount: 2
Fore
SplineSet
523.267578125 233.33984375 m 0xf4
 523.267578125 66.5947265625 478.798828125 -3.7802734375 321.66796875 -3.7802734375 c 2
 272.708007812 -3.7802734375 l 1
 272.708007812 97.0205078125 l 1
 316.868164062 97.0205078125 l 2
 378.296875 97.0205078125 395.86328125 116.755859375 404.32421875 145.702148438 c 0
 409.759765625 164.301757812 412.868164062 192.833984375 412.868164062 230.459960938 c 0xf4
 412.868164062 322.948242188 394.995117188 343.296875 375.926757812 354.297851562 c 0
 362.698242188 361.930664062 340.80078125 366.780273438 310.1484375 366.780273438 c 2
 271.749023438 366.780273438 l 1
 271.749023438 467.580078125 l 1
 315.909179688 467.580078125 l 2
 351.006835938 467.580078125 373.942382812 474.024414062 385.783203125 483.260742188 c 0
 397.379882812 492.305664062 404.228515625 506.833984375 404.228515625 530.940429688 c 0
 404.228515625 555.752929688 396.420898438 570.678710938 381.85546875 580.388671875 c 0
 366.521484375 590.611328125 339.219726562 597.178710938 299.588867188 597.178710938 c 0
 254.408203125 597.178710938 224.291015625 588.303710938 207.6015625 574.182617188 c 0
 191.426757812 560.49609375 181.5078125 535.872070312 181.5078125 496.379882812 c 2
 181.5078125 0.0595703125 l 1
 71.107421875 0.0595703125 l 1
 71.107421875 487.740234375 l 2
 71.107421875 672.676757812 199.470703125 698.940429688 296.708007812 698.940429688 c 0
 363.783203125 698.940429688 417.254882812 685.758789062 455.954101562 657.262695312 c 0
 495.033203125 628.486328125 514.627929688 586.13671875 514.627929688 533.8203125 c 0xf8
 514.627929688 482.875 497.276367188 446.365234375 460.294921875 421.026367188 c 1
 503.2890625 392.813476562 523.267578125 347.75 523.267578125 233.33984375 c 0xf4
EndSplineSet
EndChar

StartChar: agrave
Encoding: 224 224 162
Width: 553
GlyphClass: 2
Flags: MW
HStem: -5.7002 95.04<213.195 273.971> 223.741 90.2393<249.667 263.106 263.106 387.906> 430.14 96.96<247.7 306.995 240.643 322.171> 680.861 20G<90.8545 237.995 237.995 237.995>
VStem: 47.1064 109.44<142.811 171.586 142.811 185.003> 63.4277 108.48<346.62 363.9 346.62 388.869> 387.906 110.4<199.741 223.741 223.741 223.741>
LayerCount: 2
Fore
SplineSet
272.70703125 430.139648438 m 0xfa
 222.692382812 430.139648438 171.908203125 417.053710938 171.908203125 363.900390625 c 2
 171.908203125 346.620117188 l 1
 63.427734375 346.620117188 l 1
 63.427734375 363.900390625 l 2xf6
 63.427734375 413.836914062 82.8134765625 455.009765625 120.904296875 484.284179688 c 0
 158.78125 513.393554688 209.537109375 527.099609375 271.748046875 527.099609375 c 0
 342.241210938 527.099609375 398.374023438 511.51953125 438.397460938 478.166992188 c 0
 478.676757812 444.600585938 498.306640625 395.786132812 498.306640625 335.099609375 c 2
 498.306640625 0.0595703125 l 1
 389.827148438 0.0595703125 l 1
 389.827148438 36.2412109375 l 1
 353.318359375 7.8671875 304.03515625 -5.7001953125 243.907226562 -5.7001953125 c 0
 182.483398438 -5.7001953125 133.635742188 7.2275390625 98.9833984375 35.44921875 c 0
 64.10546875 63.8544921875 47.1064453125 105.369140625 47.1064453125 156.540039062 c 0
 47.1064453125 213.465820312 72.23046875 313.98046875 249.666992188 313.98046875 c 2
 387.907226562 313.98046875 l 1
 387.907226562 333.1796875 l 2
 387.907226562 379.3671875 371.634765625 430.139648438 272.70703125 430.139648438 c 0xfa
260.2265625 89.33984375 m 0
 356.891601562 89.33984375 387.90625 130.501953125 387.90625 199.741210938 c 2
 387.90625 223.741210938 l 1
 263.106445312 223.741210938 l 2
 164.541015625 223.741210938 156.546875 185.672851562 156.546875 157.5 c 0xfa
 156.546875 128.12109375 164.995117188 89.33984375 260.2265625 89.33984375 c 0
237.995117188 700.861328125 m 1
 369.530273438 549.180664062 l 1
 255.569335938 549.180664062 l 1
 90.8544921875 700.861328125 l 1
 237.995117188 700.861328125 l 1
EndSplineSet
EndChar

StartChar: aacute
Encoding: 225 225 163
Width: 553
GlyphClass: 2
Flags: MW
HStem: -5.7002 95.04<213.195 273.971> 223.741 90.2393<249.667 263.106 263.106 387.906> 430.14 96.96<247.7 306.995 240.643 322.171> 680.861 20G<294.976 441.117 441.117 441.117>
VStem: 47.1064 109.44<142.811 171.586 142.811 185.003> 63.4277 108.48<346.62 363.9 346.62 388.869> 387.906 110.4<199.741 223.741 223.741 223.741>
LayerCount: 2
Fore
SplineSet
272.70703125 430.139648438 m 0xfa
 222.692382812 430.139648438 171.908203125 417.053710938 171.908203125 363.900390625 c 2
 171.908203125 346.620117188 l 1
 63.427734375 346.620117188 l 1
 63.427734375 363.900390625 l 2xf6
 63.427734375 413.836914062 82.8134765625 455.009765625 120.904296875 484.284179688 c 0
 158.78125 513.393554688 209.537109375 527.099609375 271.748046875 527.099609375 c 0
 342.241210938 527.099609375 398.374023438 511.51953125 438.397460938 478.166992188 c 0
 478.676757812 444.600585938 498.306640625 395.786132812 498.306640625 335.099609375 c 2
 498.306640625 0.0595703125 l 1
 389.827148438 0.0595703125 l 1
 389.827148438 36.2412109375 l 1
 353.318359375 7.8671875 304.03515625 -5.7001953125 243.907226562 -5.7001953125 c 0
 182.483398438 -5.7001953125 133.635742188 7.2275390625 98.9833984375 35.44921875 c 0
 64.10546875 63.8544921875 47.1064453125 105.369140625 47.1064453125 156.540039062 c 0
 47.1064453125 213.465820312 72.23046875 313.98046875 249.666992188 313.98046875 c 2
 387.907226562 313.98046875 l 1
 387.907226562 333.1796875 l 2
 387.907226562 379.3671875 371.634765625 430.139648438 272.70703125 430.139648438 c 0xfa
260.2265625 89.33984375 m 0
 356.891601562 89.33984375 387.90625 130.501953125 387.90625 199.741210938 c 2
 387.90625 223.741210938 l 1
 263.106445312 223.741210938 l 2
 164.541015625 223.741210938 156.546875 185.672851562 156.546875 157.5 c 0xfa
 156.546875 128.12109375 164.995117188 89.33984375 260.2265625 89.33984375 c 0
294.975585938 700.861328125 m 1
 441.1171875 700.861328125 l 1
 276.40234375 549.180664062 l 1
 162.254882812 549.180664062 l 1
 294.975585938 700.861328125 l 1
EndSplineSet
EndChar

